<svg xmlns="http://www.w3.org/2000/svg" xmlns:xlink="http://www.w3.org/1999/xlink" fill="none" version="1.1" width="60" height="60" viewBox="0 0 60 60"><defs><clipPath id="master_svg0_27_04749"><rect x="0" y="0" width="60" height="60" rx="0"/></clipPath></defs><g clip-path="url(#master_svg0_27_04749)"><g><path d="M44.9523,57.4589C45.1211,59.2378,45.0195,60.0125,42.8272,60C34.1971,59.9485,25.5654,59.9781,16.9337,59.9781C15.2899,59.9781,14.9914,59.6767,15.0023,58.029C15.0039,57.8759,15.0023,57.7229,15.0023,57.498C16.2602,57.498,17.4775,57.498,18.7228,57.498C18.7228,55.7956,18.7228,54.1682,18.7228,52.483C18.4853,52.483,18.2759,52.483,18.0666,52.483C14.6492,52.483,11.2318,52.4846,7.81447,52.483C5.30965,52.4814,3.75488,50.9321,3.75332,48.4348C3.75175,41.2911,3.75332,34.1474,3.75332,27.0037C3.75332,26.7725,3.75332,26.5398,3.75332,26.3071C3.35642,26.2243,2.99078,26.1775,2.64388,26.0713C1.10162,25.6027,0.0156226,24.1971,0.0124974,22.5744C-0.00156258,16.2709,-0.00781291,9.9659,0.0156258,3.66244C0.0218761,1.6727,1.65477,0.0515397,3.64394,0.0234271C5.8503,-0.00780904,8.05667,-0.00624723,10.263,0.0249889C12.2506,0.0515397,14.0117,1.35253,14.6992,3.2798C14.8351,3.664,15.0039,3.77333,15.4008,3.77021C18.0947,3.75146,20.7901,3.75771,23.4856,3.76083C25.9389,3.76396,27.5014,5.32733,27.5124,7.79343C27.5186,9.33337,27.5139,10.8733,27.5139,12.4632C29.1796,12.4632,30.8032,12.4632,32.4939,12.4632C32.4939,12.2352,32.4939,12.0259,32.4939,11.8182C32.4939,9.26152,32.4923,6.70484,32.4939,4.14816C32.497,1.53682,34.0299,0.0124954,36.6519,0.0124954C38.5067,0.0124954,40.3615,0.0109335,42.2178,0.0124954C44.7742,0.015619,46.404,1.14481,47.3009,3.53437C47.3275,3.60465,47.3618,3.67181,47.4009,3.76084C50.2386,3.76084,53.0684,3.76084,55.8998,3.76084C58.478,3.7624,60,5.29141,60.0016,7.88557C60.0031,12.6288,60.0031,17.372,60.0016,22.1136C60.0016,24.5423,58.7296,25.976,56.2514,26.2774C56.2514,26.4961,56.2514,26.7241,56.2514,26.9521C56.2514,34.0755,56.2514,41.2005,56.2514,48.3239C56.2514,50.979,54.7372,52.4814,52.0652,52.4814C48.4916,52.4814,44.9195,52.4814,41.299,52.4814C41.299,54.1292,41.299,55.7566,41.299,57.4589C42.4928,57.4589,43.7101,57.4589,44.9523,57.4589ZM53.7325,26.2852C53.6106,26.2681,53.5528,26.2509,53.4965,26.2509C49.2791,26.2493,45.0602,26.2431,40.8427,26.2602C40.6271,26.2618,40.3677,26.4133,40.2052,26.5726C38.041,28.7154,35.8956,30.877,33.7299,33.0182C33.4674,33.2775,33.4345,33.4852,33.5486,33.8241C34.0736,35.3968,33.5174,37.0758,32.1892,38.0316C30.886,38.9687,29.0984,38.9656,27.8061,38.0207C26.4764,37.0492,25.9295,35.3859,26.4639,33.81C26.5811,33.4633,26.5279,33.2618,26.2701,33.0073C24.1184,30.8801,21.9886,28.7279,19.8307,26.607C19.626,26.4055,19.2666,26.2618,18.9775,26.2603C14.9351,26.2384,10.8928,26.2446,6.85035,26.2462C6.66284,26.2462,6.4769,26.2665,6.29876,26.2759C6.29876,31.7032,6.29876,37.0773,6.29876,42.4468C22.1371,42.4468,37.9238,42.4468,53.7356,42.4468C53.7325,37.0445,53.7325,31.6844,53.7325,26.2852ZM12.1944,3.77177C11.6194,2.83937,10.8568,2.5067,9.92552,2.50358C8.01292,2.49733,6.10032,2.50046,4.18616,2.50202C2.91578,2.50202,2.49544,2.91902,2.49544,4.1794C2.49388,10.1486,2.49388,16.1194,2.49544,22.0887C2.49544,23.3412,2.92203,23.7582,4.19397,23.7582C10.5771,23.7582,16.9603,23.7598,23.3434,23.7582C24.5872,23.7582,24.9919,23.3537,24.9919,22.1121C24.9935,17.3907,24.9935,12.6694,24.9919,7.94804C24.9919,6.62675,24.6107,6.25036,23.2793,6.2488C18.2635,6.2488,13.246,6.2488,8.23011,6.2488C8.00354,6.2488,7.77697,6.2488,7.53789,6.2488C7.53789,5.38355,7.53789,4.59484,7.53789,3.77177C9.06922,3.77177,10.5677,3.77177,12.1944,3.77177ZM44.643,3.77177C44.1664,2.9034,43.4679,2.50983,42.4256,2.50514C40.5131,2.49577,38.6004,2.50202,36.6863,2.50202C35.3956,2.50202,35.0112,2.88778,35.0112,4.17784C35.0112,10.1486,35.0112,16.1179,35.0112,22.0887C35.0112,23.374,35.3987,23.7582,36.6925,23.7582C43.0569,23.7582,49.4198,23.7582,55.7842,23.7582C57.0936,23.7582,57.5077,23.349,57.5092,22.0527C57.5108,17.3892,57.5092,12.7272,57.5092,8.06362C57.5092,6.62675,57.1373,6.2488,55.7201,6.2488C50.7229,6.2488,45.7258,6.2488,40.7287,6.2488C40.5021,6.2488,40.2755,6.2488,40.0318,6.2488C40.0318,5.37731,40.0318,4.59016,40.0318,3.77021C41.5709,3.77177,43.071,3.77177,44.643,3.77177ZM53.745,45.0254C37.8738,45.0254,22.0855,45.0254,6.24564,45.0254C6.24564,46.0921,6.24564,47.1229,6.24564,48.1537C6.24564,49.628,6.60816,49.9951,8.06917,49.9951C22.6949,49.9951,37.3191,49.9951,51.9449,49.9951C52.159,49.9951,52.3762,50.006,52.5887,49.981C53.2325,49.9045,53.7122,49.4875,53.734,48.8487C53.7747,47.5852,53.745,46.3201,53.745,45.0254ZM36.9785,26.2837C36.7644,26.2618,36.6957,26.2509,36.6253,26.2493C33.8768,26.1509,32.4923,24.7187,32.4908,21.9684C32.4908,19.86,32.4908,17.7515,32.4892,15.6446C32.4892,15.44,32.472,15.2354,32.4642,15.0418C30.7813,15.0418,29.1687,15.0418,27.5108,15.0418C27.5108,15.2885,27.5108,15.5009,27.5108,15.7118C27.5108,17.9171,27.5233,20.1239,27.5077,22.3292C27.4936,24.3751,26.2389,25.8838,24.3028,26.2025C23.9294,26.2634,23.545,26.2556,23.1075,26.2821C23.1965,26.3961,23.2371,26.4586,23.2871,26.5086C24.8872,28.111,26.4842,29.7181,28.103,31.3018C28.2405,31.4361,28.5562,31.5048,28.7421,31.4486C29.575,31.2034,30.4016,31.1596,31.2126,31.4611C31.5532,31.5876,31.7392,31.5001,31.9689,31.2674C33.1611,30.057,34.3658,28.8607,35.569,27.6612C36.0066,27.227,36.4503,26.7991,36.9785,26.2837ZM38.7192,57.4652C38.7192,55.7722,38.7192,54.1463,38.7192,52.5096C32.8892,52.5096,27.103,52.5096,21.2995,52.5096C21.2995,54.176,21.2995,55.8159,21.2995,57.4652C27.1248,57.4652,32.8939,57.4652,38.7192,57.4652ZM30.0281,36.2261C30.7032,36.2152,31.2548,35.6608,31.2548,34.9923C31.2548,34.3036,30.6657,33.7304,29.975,33.7444C29.3062,33.7585,28.7515,34.3207,28.7484,34.9876C28.7468,35.6795,29.3234,36.2386,30.0281,36.2261Z" fill="#FFFFFF" fill-opacity="1" style="mix-blend-mode:passthrough"/></g><g><path d="M8.79014944,33.7724609375C9.61988,33.7724609375,10.40898,33.7724609375,11.24184,33.7724609375C11.24184,35.0031709375,11.24184,36.2057609375,11.24184,37.4723809375C12.50128,37.4723809375,13.718530000000001,37.4723809375,14.97016,37.4723809375C14.97016,38.3251309375,14.97016,39.1138409375,14.97016,39.9790909375C14.06699,39.9790909375,13.17632,39.9790909375,12.28564,39.9790909375C11.52467,39.9790909375,10.762129999999999,39.991580937500004,10.001149999999999,39.9712809375C9.355804,39.9541009375,8.8198383,39.5683309375,8.805775,38.9889009375C8.7620229,37.2615409375,8.79014944,35.5294909375,8.79014944,33.7724609375Z" fill="#FFFFFF" fill-opacity="1" style="mix-blend-mode:passthrough"/></g><g><path d="M45.0234375,39.98075109375C45.0234375,39.11239109375,45.0234375,38.33773109375,45.0234375,37.49904109375C46.2610075,37.49904109375,47.4782475,37.49904109375,48.7392575,37.49904109375C48.7392575,36.23241109375,48.7392575,35.02982109375,48.7392575,33.78662109375C49.5705475,33.78662109375,50.3596475,33.78662109375,51.1940675,33.78662109375C51.2096975,33.92249809375,51.2393875,34.06930809375,51.2393875,34.21611809375C51.2425075,35.66079109375,51.2471975,37.10546109375,51.2393875,38.54858109375C51.2331375,39.53564109375,50.7924875,39.97451109375,49.8049375,39.97919109375C48.2282975,39.98544109375,46.6500875,39.98075109375,45.0234375,39.98075109375Z" fill="#FFFFFF" fill-opacity="1" style="mix-blend-mode:passthrough"/></g><g><path d="M19.966926875,39.94785578125C19.143446875,39.94785578125,18.354339875,39.94785578125,17.529296875,39.94785578125C17.529296875,39.12946578125,17.529296875,38.34387578125,17.529296875,37.52392578125C18.343401875,37.52392578125,19.132506875,37.52392578125,19.966926875,37.52392578125C19.966926875,38.30795478125,19.966926875,39.09198578125,19.966926875,39.94785578125Z" fill="#FFFFFF" fill-opacity="1" style="mix-blend-mode:passthrough"/></g><g><path d="M42.47513,37.53173828125C42.47513,38.34075428125,42.47513,39.12790828125,42.47513,39.94629828125C41.651650000000004,39.94629828125,40.862544,39.94629828125,40.03125,39.94629828125C40.03125,39.14508828125,40.03125,38.35793628125,40.03125,37.53173828125C40.842235,37.53173828125,41.6454,37.53173828125,42.47513,37.53173828125Z" fill="#FFFFFF" fill-opacity="1" style="mix-blend-mode:passthrough"/></g><g><path d="M22.458328125,16.228751484375C21.658288125,16.228751484375,20.872309125,16.228751484375,20.048828125,16.228751484375C20.048828125,15.411931484375,20.048828125,14.623215484375,20.048828125,13.790771484375C20.842620125,13.790771484375,21.628598125,13.790771484375,22.458328125,13.790771484375C22.458328125,14.590416484375,22.458328125,15.391621484375,22.458328125,16.228751484375Z" fill="#FFFFFF" fill-opacity="1" style="mix-blend-mode:passthrough"/></g><g><path d="M15.044921875,8.797607421875C15.851213875,8.797607421875,16.637191875,8.797607421875,17.457551875,8.797607421875C17.457551875,9.612871421874999,17.457551875,10.398457421875,17.457551875,11.219977421875C16.660631875,11.219977421875,15.873090875,11.219977421875,15.044921875,11.219977421875C15.044921875,10.425007421875,15.044921875,9.625365421875,15.044921875,8.797607421875Z" fill="#FFFFFF" fill-opacity="1" style="mix-blend-mode:passthrough"/></g><g><path d="M22.462231875,11.22792890625C21.651251875,11.22792890625,20.865276875,11.22792890625,20.044921875,11.22792890625C20.044921875,10.41578890625,20.044921875,9.63176390625,20.044921875,8.80712890625C20.849649875,8.80712890625,21.635631875,8.80712890625,22.462231875,8.80712890625C22.462231875,9.59115690625,22.462231875,10.37674890625,22.462231875,11.22792890625Z" fill="#FFFFFF" fill-opacity="1" style="mix-blend-mode:passthrough"/></g><g><path d="M47.525390625,11.21680609375C47.525390625,10.40778609375,47.525390625,9.62063309375,47.525390625,8.80224609375C48.348869625,8.80224609375,49.137980625,8.80224609375,49.969270625,8.80224609375C49.969270625,9.60345409375,49.969270625,10.39060609375,49.969270625,11.21680609375C49.158290625,11.21680609375,48.356684625,11.21680609375,47.525390625,11.21680609375Z" fill="#FFFFFF" fill-opacity="1" style="mix-blend-mode:passthrough"/></g><g><path d="M52.529296875,13.77197265625C53.359026875,13.77197265625,54.129376875,13.77197265625,54.945046875,13.77197265625C54.945046875,14.59816965625,54.945046875,15.39781265625,54.945046875,16.22870265625C54.129376875,16.22870265625,53.343400875,16.22870265625,52.529296875,16.22870265625C52.529296875,15.40562265625,52.529296875,14.61534965625,52.529296875,13.77197265625Z" fill="#FFFFFF" fill-opacity="1" style="mix-blend-mode:passthrough"/></g><g><path d="M52.541015625,8.797607421875C53.347307625,8.797607421875,54.133285625,8.797607421875,54.953645625,8.797607421875C54.953645625,9.612871421874999,54.953645625,10.398457421875,54.953645625,11.219977421875C54.156725625,11.219977421875,53.369184625,11.219977421875,52.541015625,11.219977421875C52.541015625,10.425007421875,52.541015625,9.625365421875,52.541015625,8.797607421875Z" fill="#FFFFFF" fill-opacity="1" style="mix-blend-mode:passthrough"/></g></g></svg>