<svg xmlns="http://www.w3.org/2000/svg" xmlns:xlink="http://www.w3.org/1999/xlink" fill="none" version="1.1" width="61" height="60" viewBox="0 0 61 60"><defs><clipPath id="master_svg0_27_04715"><rect x="0" y="0" width="61" height="60" rx="0"/></clipPath></defs><g clip-path="url(#master_svg0_27_04715)"><g><path d="M16.462978125,48.793932421875C15.801078125,46.890032421875,15.115278125,45.023632421875,14.505878125,43.132132421875C14.171778125,42.092632421875,13.976078125,41.010932421875,13.695978125,39.955832421875C13.640278125,39.743232421875,13.527378125,39.508732421875,13.365078125,39.366532421875C10.995828125,37.292232421875,8.844588125,35.024132421875,7.009988125,32.474632421875C6.963848125,32.410532421875,6.927248125,32.340132421875,6.844508125,32.202632421875C6.023478125,33.747032421875,5.469748125,35.258532421875,5.2024381250000005,36.862332421875C5.102198125,37.457932421875,5.089468125,38.066032421875,5.0337781249999995,38.667832421875C4.952628125,39.541632421875,4.453008125,40.018332421875,3.674938125,39.966732421875C2.950958125,39.918332421875,2.526118125,39.375932421875,2.545218125,38.520832421875C2.6088581250000002,35.619632421875,3.554008125,32.968532421875,4.958998125,30.458132421875C5.215168125,30.000132421875,5.235858125,29.651532421875,4.978088125,29.176332421875C3.593788125,26.614332421875,2.6390981250000003,23.914732421875,2.604088125,20.977632421875C2.5436281249999997,15.913032421875,5.234258125,11.991032421875,10.015678125,10.085632421875C12.384878125,9.141442421875,14.855978125,8.717822421875,17.398578125,8.677182421875C17.802778125,8.670932421875,18.033478125,8.550572421875,18.249878125,8.205112421875C19.923778125,5.522742421875,21.963678125,3.178022421875,24.775178125,1.580472421875C27.739478125,-0.101473578125,30.874078125,-0.426609578125,34.142278125,0.539418421875C34.520978125,0.651965421875,34.797878125,0.611323421875,35.136778125,0.436250421875C37.105078125,-0.573545578125,39.518778125,0.294003421875,40.368478125,2.294832421875C41.213378125,4.281602421875,40.172778125,6.554422421875,38.102678125,7.250022421875C36.003978125,7.955012421875,33.736578125,6.774832421875,33.214678125,4.653632421875C33.073078124999995,4.078392421875,33.119178125000005,3.459382421875,33.079378125000005,2.843502421875C28.861278125,1.400712421875,23.952578125,3.859552421875,20.937378125,8.727202421875C22.039978125,8.892902421875,23.142678125,8.994502421875,24.213478125,9.235232421875C26.145178125,9.669782421875,28.056178125,10.201232421875,29.983078125,10.659232421875C30.326778125,10.740532421875,30.737278125,10.754632421875,31.066578125,10.649832421875C35.314978125,9.305572421875,39.646078125,8.481792421875,44.129978125,8.683432421875C47.429978125,8.831932421875,50.599578125,9.493152421875,53.388878125,11.348632421875C57.207678125,13.890332421875,58.731978125,17.507432421875,58.361278125,21.949932421875C58.143278125,24.558832421875,57.245878125,26.972332421875,55.995178125,29.262332421875C55.764478125,29.685932421875,55.794678125,29.986032421875,56.017478125,30.384632421875C57.422478125,32.893532421875,58.413778125,35.535232421875,58.451978125,38.438032421875C58.464678125,39.429032421875,58.385078125,40.431032421875,58.238678125,41.412732421875C58.171878125,41.861332421875,58.315078125,42.080132421875,58.603078125,42.355232421875C59.766178125,43.460432421875,60.071678125,45.133032421875,59.405078125,46.564832421875C58.747878125,47.974832421875,57.236278125,48.861132421875,55.697678125,48.739232421875C54.069878125,48.609432421875,52.726978125,47.513732421875,52.300578125,45.966132421875C51.743678125,43.945032421875,53.040478125,41.820732421875,55.126478125,41.403332421875C55.614878125,41.304832421875,55.797878125,41.125132421875,55.866278125,40.628032421875C56.272078125,37.670532421875,55.591078125,34.935032421875,54.203578125,32.263532421875C54.061978125,32.430832421875,53.944178125,32.554332421875,53.843978125,32.690332421875C52.098478125,35.085032421875,50.063378125,37.217232421875,47.850078125,39.197732421875C47.581178125,39.438432421875,47.359978125,39.812032421875,47.280478125,40.160632421875C46.643978125,42.966432421875,45.821378125,45.711332421875,44.623278125,48.340632421875C44.569178125,48.460932421875,44.542078125,48.593832421875,44.486378125,48.775132421875C46.386178125,48.693832421875,48.209678125,48.487532421875,49.951978125,47.818532421875C50.119078125,47.754432421875,50.279778125,47.674732421875,50.450078125,47.626232421875C51.135778125,47.426132421875,51.780278125,47.715332421875,52.023678125,48.323432421875C52.278278125,48.956432421875,52.009378125,49.678632421875,51.306078125,49.902132421875C50.026778125,50.310132421875,48.734778125,50.721232421875,47.415678125,50.952632421875C46.192078125,51.166732421875,44.925578125,51.168332421875,43.676478125,51.218332421875C43.269178125,51.234032421875,43.036878125,51.362132421875,42.826778125,51.704532421875C41.409078125,54.017932421875,39.701778125,56.095432421875,37.440778125,57.667932421875C32.504978125,61.100632421875,26.886678125,60.723832421875,22.318478125,56.697232421875C20.720978125,55.288832421875,19.392378125,53.666232421875,18.284878125,51.867032421875C18.052578125,51.488732421875,17.810678125,51.340232421875,17.349278125,51.327732421875C13.735778125,51.223032421875,10.298898125,50.504032421875,7.258208125,48.435932421875C7.091138125,48.321832421875,6.734718125,48.374932421875,6.511958125,48.462532421875C4.172958125,49.378532421875,1.523695125,47.888832421875,1.291386425,45.490932421875C1.135453125,43.882432421875,1.743273125,42.599132421875,3.180088125,41.794132421875C4.567568125,41.015632421875,5.983698125,41.098532421875,7.275708125,42.022332421875C8.617048125,42.982132421875,9.046658125,44.331132421875,8.720478125,45.906732421875C8.656828125,46.214732421875,8.661608125,46.397632421875,8.944828125,46.596132421875C10.731698125,47.832532421875,14.270378125,48.876732421875,16.462978125,48.793932421875ZM41.945278125,40.685832421875C42.941378125,39.932432421875,43.822878125,39.305532421875,44.650278125,38.616232421875C44.908078125,38.402032421875,45.130778125,38.030032421875,45.173778125,37.706432421875C45.391778125,36.082332421875,45.589078125,34.452032421875,45.709978125,32.818532421875C45.977278125,29.195132421875,45.730678125,25.596732421875,45.001878125,22.035832421875C44.941478125,21.742032421875,44.745778125,21.412132421875,44.508678125,21.227732421875C40.385978125,18.015432421875,35.875078125,15.461232421875,30.952078125,13.626132421875C30.689478125,13.527632421875,30.323578125,13.538632421875,30.057778125,13.637032421875C25.319378125,15.389332421875,20.989878125,17.857532421875,16.948278125,20.846332421875C16.162278125,21.426232421875,15.816978125,22.085932421875,15.691278125,23.012832421875C15.027778125,27.925832421875,15.034178125,32.827832421875,15.828178125,37.725232421875C15.864778125,37.948732421875,15.906078125,38.239532421875,16.058878125,38.364532421875C16.999278125,39.130532421875,17.972978125,39.857332421875,19.035878125,40.673332421875C19.053378125,40.331032421875,19.082078125,40.143432421875,19.067778125,39.958932421875C18.970678125,38.678732421875,19.510078125,37.772132421875,20.619078125,37.085932421875C22.350278125,36.015132421875,24.033678125,34.867732421875,25.734678125,33.750132421875C25.904878125,33.637532421875,26.065578125,33.510932421875,26.256578125,33.371832421875C24.695678125,31.905632421875,24.079878125,30.158032421875,24.176878125,28.135332421875C24.210378125,27.452232421875,24.173778125,26.767532421875,24.189678125,26.084432421875C24.262878125,22.976932421875,26.772078125,20.314832421875,29.857378125,20.061632421875C33.203578125,19.788032421875,36.167878125,21.918632421875,36.692978125,25.112132421875C36.896578125,26.353332421875,36.820178125,27.642932421875,36.818578125,28.909032421875C36.817078125,30.459732421875,36.221978125,31.797732421875,35.179778125,32.949832421875C35.054078125,33.088932421875,34.928378125,33.229632421875,34.780378125,33.396832421875C34.977678125,33.534432421875,35.133578125,33.650132421875,35.297478125,33.757932421875C37.065278125,34.917832421875,38.828278125,36.088632421875,40.607178125,37.231232421875C41.520478125,37.819032421875,41.970778125,38.617732421875,41.943778125,39.685432421875C41.938978125,39.952732421875,41.945278125,40.226232421875,41.945278125,40.685832421875ZM39.456778125,40.867132421875C39.456778125,40.515432421875,39.498178125,40.157532421875,39.442478125,39.813632421875C39.407478125,39.596332421875,39.280178125,39.327432421875,39.105078125,39.210232421875C36.968178125,37.783032421875,34.820178125,36.374632421875,32.659378125,34.981932421875C32.454078124999995,34.849032421875,32.146978125000004,34.830232421875,31.886078125,34.827132421875C30.979078125,34.811532421875,30.072178125,34.814632421875,29.166778125,34.836532421875C28.888378125,34.842732421875,28.560578125,34.859932421875,28.340978125,35.000632421875C26.210378125,36.366832421875,24.102178125,37.764332421875,21.977978125,39.141432421875C21.685178125,39.330632421875,21.534078125,39.533832421875,21.551578125,39.896432421875C21.581778125,40.520132421875,21.580178125,41.146932421875,21.553078125,41.772232421875C21.537178125,42.131732421875,21.670878125,42.341232421875,21.981178125,42.524132421875C24.546078125,44.027832421875,27.204878125,45.337732421875,30.022778125,46.316332421875C30.358578125,46.433532421875,30.831178125,46.444532421875,31.144578125,46.302232421875C33.504278125,45.234632421875,35.835278125,44.104432421875,38.188578125,43.021232421875C39.143278125,42.581932421875,39.813178125,42.028632421875,39.456778125,40.867132421875ZM54.151078125,27.431832421875C55.167778125,25.377932421875,55.823378125,23.361432421875,55.925178125,21.207432421875C56.044478125,18.679832421875,55.334878125,16.421032421875,53.493878125,14.579632421875C52.284678125,13.371332421875,50.817578125,12.578832421875,49.196178125,12.036432421875C47.535078125,11.481532421875,45.824578125,11.212632421875,44.015378125,11.129732421875C44.093378125,11.336132421875,44.137878125,11.481532421875,44.203178125,11.619032421875C45.423578125,14.210732421875,46.348078125,16.902532421875,47.062478125,19.669232421875C47.143578125,19.981932421875,47.353678125,20.311732421875,47.601878125,20.525832421875C49.791278125,22.409432421875,51.821578125,24.438432421875,53.590978125,26.714432421875C53.754878125,26.923832421875,53.918778125,27.134832421875,54.151078125,27.431832421875ZM40.260278125,51.129232421875C36.971378125,50.821332421875,33.890878125,50.188232421875,30.877278125,49.237832421875C30.657678125,49.169032421875,30.372878125,49.234732421875,30.134178125,49.294132421875C28.175478125,49.780232421875,26.227878125,50.314832421875,24.259678125,50.761932421875C23.172878125,51.008932421875,22.052778125,51.112032421875,20.865778125,51.293332421875C22.245278125,53.289532421875,23.802978125,55.004332421875,25.873078125,56.218832421875C27.664778125,57.270832421875,29.585278125,57.769532421875,31.683978125,57.466232421875C32.960078124999995,57.281832421875,34.134378125,56.831632421875,35.229078125,56.173532421875C37.302378125,54.926132421875,38.860078125,53.186332421875,40.260278125,51.129232421875ZM6.979758125,27.383432421875C7.014758125,27.311532421875,7.038628125,27.231832421875,7.084778125,27.167732421875C8.905048125,24.729232421875,11.032418125,22.573632421875,13.344378125,20.586832421875C13.520978125,20.435232421875,13.657778125,20.183532421875,13.708778125,19.955332421875C14.287878125,17.379232421875,15.015078125,14.848532421875,16.062078125,12.413132421875C16.229078125,12.023932421875,16.396178125,11.634632421875,16.579178125,11.209532421875C16.442378124999998,11.189132421875,16.362778125,11.157932421875,16.294378125,11.171932421875C14.777978125,11.462732421875,13.215478125,11.612832421875,11.759578125,12.083332421875C8.561358125,13.114932421875,6.173048125,15.076732421875,5.350418125,18.437532421875C4.5802981250000006,21.577832421875,5.472938125,24.490032421875,6.979758125,27.383432421875ZM34.392078125,27.538132421875C34.376178125,27.536632421875,34.361878125,27.536632421875,34.345978125,27.535032421875C34.345978125,27.084832421875,34.352378125,26.636232421875,34.344378125,26.186032421875C34.307778125,24.130532421875,32.600478124999995,22.482932421875,30.512878125,22.481332421875C28.425278125,22.479832421875,26.706878125,24.128932421875,26.675078125,26.178232421875C26.662278125,27.037932421875,26.665478125,27.897732421875,26.673478125,28.757432421875C26.692578125,30.650432421875,28.140478125,32.282332421875,29.968678125,32.485532421875C32.027678125,32.713732421875,33.809778125,31.527332421875,34.232978125,29.573432421875C34.376178125,28.913732421875,34.344378125,28.218132421875,34.392078125,27.538132421875ZM48.130178125,24.180532421875C48.058578125,24.227432421875,47.988478125,24.275832421875,47.916878125,24.322732421875C48.424478125,28.032132421875,48.376778125,31.747732421875,48.010778125,35.585232421875C48.188978125,35.449332421875,48.257378125,35.414932421875,48.301978125,35.360132421875C49.726078125,33.636032421875,51.156478125,31.918132421875,52.553578125,30.172032421875C52.668078125,30.029832421875,52.639478125,29.624932421875,52.513778125,29.471832421875C51.248778125,27.921132421875,49.948778125,26.398632421875,48.661578125,24.866732421875C48.475378125,24.644732421875,48.306778125,24.410332421875,48.130178125,24.180532421875ZM12.859078125,35.502432421875C12.859078125,31.777432421875,12.859078125,28.096232421875,12.859078125,24.382132421875C11.191538125,25.984432421875,9.668808125,27.716332421875,8.379968125000001,29.642132421875C8.308368125000001,29.748432421875,8.333828125,29.992332421875,8.410198125,30.111132421875C9.691078125,32.066632421875,11.185168125,33.854832421875,12.859078125,35.502432421875ZM26.590678125,47.804432421875C26.587478125,47.743432421875,26.584378125,47.682532421875,26.582778125,47.623132421875C23.161778125,46.147532421875,19.952378125,44.304532421875,16.871978125,42.128632421875C16.871978125,42.274032421875,16.856078125,42.334932421875,16.873578125,42.381832421875C17.665978125,44.438932421875,18.463078125,46.494532421875,19.250678125,48.553132421875C19.381178125,48.893932421875,19.627778125,48.897032421875,19.922178125,48.862732421875C20.908678125,48.751732421875,21.901578125,48.686032421875,22.880178125,48.528132421875C24.124378125,48.324932421875,25.354378125,48.048332421875,26.590678125,47.804432421875ZM26.458678125,12.227132421875C26.487278125,12.252132421875,26.461778125,12.209932421875,26.429978125,12.203632421875C24.223078125,11.845732421875,22.014578125,11.494032421875,19.809178125,11.131332421875C19.443278125,11.071932421875,19.306378125,11.286132421875,19.202978125,11.551832421875C18.442378125,13.493232421875,17.685078125,15.436232421875,16.932378125,17.382332421875C16.887878125,17.496532421875,16.900578125,17.632432421875,16.900578125,17.629332421875C20.063778125,15.841132421875,23.268378125,14.030932421875,26.458678125,12.227132421875ZM34.683278125,47.729432421875C34.613278125,47.699732421875,34.664178125,47.734132421875,34.719878125,47.743432421875C36.910878125,48.078032421875,39.101978125,48.418732421875,41.299278125,48.725132421875C41.461578125,48.747032421875,41.762378125,48.557832421875,41.824378125,48.400032421875C42.615178125,46.406932421875,43.374178125,44.401432421875,44.137878125,42.397532421875C44.158578125,42.341232421875,44.134778125,42.269332421875,44.137878125,42.347432421875C40.993778125,44.137232421875,37.827378125,45.939632421875,34.683278125,47.729432421875ZM43.786278125,17.413632421875C43.787878125,17.429232421875,43.795878125,17.330832421875,43.760778125,17.247932421875C42.962078125,15.322132421875,42.166478125,13.393232421875,41.334278125,11.479932421875C41.267478125,11.325132421875,40.922178125,11.178232421875,40.731278125,11.204832421875C38.947578125,11.451732421875,37.170278125,11.733132421875,35.392978125,12.016032421875C35.077878125,12.066132421875,34.773978125,12.175532421875,34.548078125,12.234932421875C37.639678125,13.966932421875,40.728078125,15.698832421875,43.786278125,17.413632421875ZM38.163178125,3.761072421875C38.175878125,3.068602421875,37.615778125,2.480852421875,36.915678125,2.452722421875C36.226678125,2.424582421875,35.615678125,2.990442421875,35.590278125,3.679792421875C35.563178125,4.400402421875,36.145578125,5.011592421875,36.863178125,5.019412421875C37.556878125,5.024102421875,38.150378125,4.450422421875,38.163178125,3.761072421875ZM6.335338125,44.990732421875C6.324198125,44.299832421875,5.732298125,43.724632421875,5.040148125,43.732432421875C4.344808125,43.738632421875,3.764038125,44.318632421875,3.762448125,45.009532421875C3.759268125,45.725432421875,4.3734481249999995,46.322532421875,5.087878125,46.299132421875C5.772078125,46.275632421875,6.346478125,45.675432421875,6.335338125,44.990732421875ZM54.682478125,45.037632421875C54.692078125,45.730132421875,55.280778125,46.306932421875,55.972878125,46.300632421875C56.668278125,46.296032421875,57.250578125,45.716032421875,57.255378125,45.025132421875C57.260178125,44.309232421875,56.668278125,43.732432421875,55.929978125,43.733932421875C55.252178125,43.737132421875,54.672978125,44.342032421875,54.682478125,45.037632421875Z" fill="#FFFFFF" fill-opacity="1" style="mix-blend-mode:passthrough"/></g><g><path d="M14.021484375,3.770263671875C14.845701375,3.770263671875,15.614224375,3.770263671875,16.436854375,3.770263671875C16.436854375,4.567470671875,16.436854375,5.350613671875,16.436854375,6.166573671875C15.628544375,6.166573671875,14.845701375,6.166573671875,14.021484375,6.166573671875C14.021484375,5.374053671875,14.021484375,4.603423671875,14.021484375,3.770263671875Z" fill="#FFFFFF" fill-opacity="1" style="mix-blend-mode:passthrough"/></g><g><path d="M46.9984125,3.7734375C46.9984125,4.5862765,46.9984125,5.3553475,46.9984125,6.1619275C46.1805625,6.1619275,45.3977135,6.1619275,44.5703125,6.1619275C44.5703125,5.3647275,44.5703125,4.5784605,44.5703125,3.7734375C45.3818015,3.7734375,46.1503225,3.7734375,46.9984125,3.7734375Z" fill="#FFFFFF" fill-opacity="1" style="mix-blend-mode:passthrough"/></g><g><path d="M2.4281,31.1957115625C1.58797,31.1957115625,0.803532,31.1957115625,0,31.1957115625C0,30.3985015625,0,29.6435045625,0,28.8291015625C0.798758,28.8291015625,1.59274,28.8291015625,2.4281,28.8291015625C2.4281,29.609112562500002,2.4281,30.3781815625,2.4281,31.1957115625Z" fill="#FFFFFF" fill-opacity="1" style="mix-blend-mode:passthrough"/></g><g><path d="M58.58203125,31.189666875C58.58203125,30.389326875000002,58.58203125,29.618695875,58.58203125,28.810546875C59.39670025,28.810546875,60.17955125,28.810546875,61.00058125,28.810546875C61.00058125,29.603065875,61.00058125,30.372136875,61.00058125,31.189666875C60.20659125,31.189666875,59.40783425,31.189666875,58.58203125,31.189666875Z" fill="#FFFFFF" fill-opacity="1" style="mix-blend-mode:passthrough"/></g><g><path d="M16.429620625,56.239134765624996C15.610180625,56.239134765624996,14.840060625,56.239134765624996,14.025390625,56.239134765624996C14.025390625,55.435674765625,14.025390625,54.649405765625,14.025390625,53.838134765625C14.832104625,53.838134765625,15.600630625,53.838134765625,16.429620625,53.838134765625C16.429620625,54.627523765625,16.429620625,55.407534765625,16.429620625,56.239134765624996Z" fill="#FFFFFF" fill-opacity="1" style="mix-blend-mode:passthrough"/></g><g><path d="M44.5703125,53.83642578125C45.3818005,53.83642578125,46.1487325,53.83642578125,46.9761325,53.83642578125C46.9761325,54.62894478125,46.9761325,55.41051578125,46.9761325,56.22491578125C46.1821525,56.22491578125,45.3977085,56.22491578125,44.5703125,56.22491578125C44.5703125,55.43396578125,44.5703125,54.64770178125,44.5703125,53.83642578125Z" fill="#FFFFFF" fill-opacity="1" style="mix-blend-mode:passthrough"/></g></g></svg>