<svg xmlns="http://www.w3.org/2000/svg" xmlns:xlink="http://www.w3.org/1999/xlink" fill="none" version="1.1" width="193.400390625" height="40" viewBox="0 0 193.400390625 40"><g><g><g><g><path d="M7.50467,24.981813500976564L1.32225,24.981813500976564L1.32225,14.152744500976562C1.32225,13.754637500976562,1.32225,13.153213500976562,0.64202,13.153213500976562C0,13.153213500976562,0,13.707219500976562,0,14.152744500976562L0,25.02711350097656C0,25.93011350097656,0.123492,26.04441350097656,1.10187,26.04441350097656L7.50467,26.04441350097656C7.93587,26.04441350097656,8.47248,26.04441350097656,8.47248,25.50441350097656C8.47248,24.981813500976564,7.93587,24.981813500976564,7.50467,24.981813500976564Z" fill-rule="evenodd" fill="#FFFFFE" fill-opacity="1" style="mix-blend-mode:passthrough"/></g><g><path d="M10.265488775939941,16.653959274291992C9.662018775939941,16.653959274291992,9.662018775939941,17.15918327429199,9.662018775939941,17.56513627429199L9.662018775939941,25.362839274291993C9.662018775939941,25.760949274291992,9.662018775939941,26.256619274291992,10.265488775939941,26.256619274291992C10.849858775939941,26.256619274291992,10.849858775939941,25.760949274291992,10.849858775939941,25.362839274291993L10.849858775939941,17.56513627429199C10.849858775939941,17.202166274291994,10.849858775939941,16.653959274291992,10.265488775939941,16.653959274291992Z" fill-rule="evenodd" fill="#FFFFFE" fill-opacity="1" style="mix-blend-mode:passthrough"/></g><g><path d="M10.26548972857666,13.506972312927246C9.84111572857666,13.506972312927246,9.50850772857666,13.813654312927246,9.50850772857666,14.205621312927246C9.50850772857666,14.591102312927246,9.84828072857666,14.904612312927245,10.26548972857666,14.904612312927245C10.67587772857666,14.904612312927245,11.02247772857666,14.584622312927246,11.02247772857666,14.205621312927246C11.02247772857666,13.820136312927247,10.683037728576661,13.506972312927246,10.26548972857666,13.506972312927246Z" fill-rule="evenodd" fill="#FFFFFE" fill-opacity="1" style="mix-blend-mode:passthrough"/></g><g><path d="M15.00558471496582,14.792033500976562C14.99944471496582,14.804993500976563,14.993644714965821,14.818303500976562,14.98818471496582,14.831263500976563C14.993644714965821,14.818303500976562,14.99944471496582,14.804993500976563,15.00558471496582,14.792033500976562ZM16.113944714965818,16.866143500976563L14.83911471496582,16.866143500976563L14.83911471496582,16.062083500976563C14.83911471496582,14.914503500976563,14.94657471496582,14.161953500976562,16.38241471496582,14.161953500976562C16.43733471496582,14.161953500976562,16.59699471496582,14.178333500976562,16.76619471496582,14.195383500976563C16.94836471496582,14.213803500976562,17.13666471496582,14.232573500976562,17.20660471496582,14.232573500976562C17.50850471496582,14.232573500976562,17.69545471496582,13.989339500976563,17.69545471496582,13.763507500976562C17.69545471496582,13.752590500976563,17.69238471496582,13.490938500976563,17.42151471496582,13.366082500976562C17.20353471496582,13.265105500976562,16.57345471496582,13.153213500976562,16.01808471496582,13.153213500976562C15.603254714965821,13.153213500976562,15.17547471496582,13.249413700976563,14.813524714965821,13.423734500976563C14.42531471496582,13.611018500976563,14.123064714965821,13.879834500976562,13.939874714965821,14.200843500976562C13.81570471496582,14.410303500976562,13.650934714965821,14.814893500976563,13.650934714965821,15.903113500976563L13.650934714965821,16.866143500976563L12.644236714965821,16.866143500976563C12.456952714965821,16.866143500976563,11.88725471496582,16.866143500976563,11.88725471496582,17.264593500976563C11.88725471496582,17.680783500976563,12.41772171496582,17.680783500976563,12.644236714965821,17.680783500976563L13.650934714965821,17.680783500976563L13.650934714965821,25.362813500976564C13.650934714965821,25.760913500976564,13.650934714965821,26.256613500976563,14.25474471496582,26.256613500976563C14.83911471496582,26.256613500976563,14.83911471496582,25.760913500976564,14.83911471496582,25.362813500976564L14.83911471496582,17.680783500976563L16.113944714965818,17.680783500976563C16.61643471496582,17.680783500976563,16.87092471496582,17.540573500976564,16.87092471496582,17.264593500976563C16.87092471496582,16.866143500976563,16.378664714965822,16.866143500976563,16.113944714965818,16.866143500976563Z" fill-rule="evenodd" fill="#FFFFFE" fill-opacity="1" style="mix-blend-mode:passthrough"/></g><g><path d="M18.133809841918946,20.68551927429199C18.280159841918945,19.51848927429199,19.122769841918945,17.556947274291993,21.362669841918944,17.556947274291993C24.140549841918947,17.556947274291993,24.379679841918946,19.909769274291993,24.457799841918945,20.68551927429199L18.133809841918946,20.68551927429199ZM25.704659841918946,20.818559274291992C25.704659841918946,20.773869274291993,25.698179841918943,19.71292927429199,25.145199841918945,18.67689927429199C24.830329841918946,18.08707927429199,24.399129841918946,17.61801127429199,23.864229841918945,17.282333274291993C23.805549841918946,17.245490274291992,23.738349841918946,17.218882274291992,23.676939841918944,17.185109274291992C23.634299841918946,17.16191127429199,23.590289841918946,17.139396274291993,23.545949841918947,17.11722327429199C23.414949841918947,17.05206527429199,23.279519841918948,16.993390274291993,23.137609841918945,16.942219274291993C23.094959841918946,16.92686827429199,23.050609841918945,16.91254027429199,23.006269841918947,16.898213274291994C22.850029841918946,16.847725274291992,22.688669841918944,16.804401274291994,22.520489841918945,16.77028627429199C22.486029841918945,16.76312227429199,22.450559841918945,16.757324274291992,22.415759841918945,16.751182974291993C22.221309841918945,16.715704074291992,22.020039841918944,16.69114377429199,21.810919841918945,16.67715717429199C21.791479841918946,16.675791274291992,21.772039841918946,16.674768574291992,21.752589841918947,16.673745874291992C21.635239841918946,16.667262974291994,21.522659841918944,16.653959274291992,21.401219841918945,16.653959274291992C19.991299841918945,16.653959274291992,18.828709841918947,17.10971727429199,18.039309841918946,17.97210927429199C17.272781841918945,18.80959927429199,16.867509841918945,20.01415927429199,16.867509841918945,21.455459274291993C16.867509841918945,22.855149274291993,17.250264841918945,24.036159274291993,17.974499841918945,24.871949274291993C18.357259841918946,25.31371927429199,18.833139841918946,25.65519927429199,19.388509841918946,25.887509274291993C19.973899841918946,26.132449274291993,20.651059841918944,26.256619274291992,21.401219841918945,26.256619274291992C23.136919841918946,26.256619274291992,24.150779841918947,25.56615927429199,24.695579841918946,24.98724927429199C25.317129841918945,24.32646927429199,25.512939841918943,23.627819274291994,25.512939841918943,23.488979274291992C25.512939841918943,23.25017927429199,25.272779841918947,22.984439274291994,24.928229841918945,22.984439274291994C24.685339841918946,22.984439274291994,24.463599841918946,23.139309274291993,24.363649841918946,23.37912927429199C24.019439841918945,24.180799274291992,23.496139841918946,24.748449274291993,22.808409841918944,25.06707927429199C22.398019841918945,25.257089274291992,21.937489841918946,25.353289274291992,21.439429841918944,25.353289274291992C20.381559841918946,25.353289274291992,19.549529841918947,24.994759274291994,18.966529841918945,24.28689927429199C18.429579841918944,23.63532927429199,18.134489841918946,22.701979274291993,18.113339841918947,21.588159274291993L24.602449841918947,21.588159274291993C25.193979841918946,21.588159274291993,25.704659841918946,21.588159274291993,25.704659841918946,20.818559274291992Z" fill-rule="evenodd" fill="#FFFFFE" fill-opacity="1" style="mix-blend-mode:passthrough"/></g><g><path d="M31.785083003051756,13.153213500976562C31.124300003051758,13.153213500976562,31.124300003051758,13.754637500976562,31.124300003051758,14.152744500976562L31.124300003051758,25.257113500976562C31.124300003051758,25.678713500976563,31.124300003051758,26.256613500976563,31.804528003051757,26.256613500976563C32.446550003051755,26.256613500976563,32.446550003051755,25.70231350097656,32.446550003051755,25.257113500976562L32.446550003051755,14.152744500976562C32.446550003051755,13.707219500976562,32.446550003051755,13.153213500976562,31.785083003051756,13.153213500976562Z" fill-rule="evenodd" fill="#FFFFFE" fill-opacity="1" style="mix-blend-mode:passthrough"/></g><g><path d="M53.39883303857422,19.88452224822998C53.82934703857422,19.88452224822998,54.066777038574216,19.51098224822998,54.066777038574216,19.21010224822998L54.066777038574216,11.56556224822998L52.70427703857422,11.56556224822998L52.70427703857422,19.21010224822998C52.70427703857422,19.52326224822998,52.954675038574216,19.88452224822998,53.39883303857422,19.88452224822998Z" fill-rule="evenodd" fill="#FFFFFE" fill-opacity="1" style="mix-blend-mode:passthrough"/></g><g><path d="M40.85249747436524,21.486159274291992C40.77164747436523,21.440789274291994,40.67988747436523,21.40633927429199,40.593917474365234,21.36607927429199C40.564927474365234,21.352099274291994,40.53592747436524,21.33810927429199,40.50624747436523,21.32514927429199C39.85671747436523,21.03619927429199,39.09018747436524,20.862909274291994,38.337297474365236,20.701889274291993C37.608627474365235,20.54598927429199,36.91987747436524,20.398619274291992,36.408857474365234,20.151979274291993C35.837447474365234,19.875999274291992,35.571017474365235,19.51472927429199,35.571017474365235,19.015309274291994C35.571017474365235,18.007929274291993,36.769777474365235,17.556947274291993,37.95795747436524,17.556947274291993C39.189457474365234,17.556947274291993,40.13372747436524,18.042389274291992,40.42232747436523,18.82392927429199C40.59460747436523,19.301179274291993,40.73002747436524,19.37827927429199,40.98690747436523,19.37827927429199C41.52692747436524,19.37827927429199,41.533407474365234,18.91364927429199,41.533407474365234,18.90886927429199C41.533407474365234,18.789819274291993,41.43754747436523,18.238199274291993,40.97018747436523,17.720009274291993C40.68807747436524,17.407871274291992,40.320327474365236,17.15986427429199,39.877187474365236,16.983156274291993C39.33034747436523,16.764486274291993,38.66513747436524,16.653959274291992,37.90029747436523,16.653959274291992C36.56986747436523,16.653959274291992,35.58875747436524,17.014882274291992,34.984266474365235,17.72717927429199C34.429916474365236,18.37976927429199,34.40194347436523,19.09137927429199,34.40194347436523,19.227499274291993C34.40194347436523,19.899539274291993,34.74751747436523,20.53029927429199,35.32642747436523,20.915099274291993C35.915907474365234,21.30535927429199,36.52654747436524,21.453759274291993,37.74269747436524,21.749859274291993C38.07257747436523,21.829689274291994,38.446127474365234,21.92076927429199,38.87595747436524,22.030279274291992L38.92644747436523,22.04323927429199C39.58960747436524,22.209029274291993,40.82384747436524,22.517759274291993,40.82384747436524,23.630209274291992C40.82384747436524,24.487829274291993,39.990787474365234,25.353289274291992,38.130567474365236,25.353289274291992C36.780007474365235,25.353289274291992,35.86064747436524,24.83782927429199,35.398067474365234,23.82055927429199L35.38543747436523,23.792929274291993C35.256837474365234,23.50432927429199,35.13538947436523,23.231759274291992,34.79493247436523,23.231759274291992C34.65574847436523,23.231759274291992,34.51213147436523,23.281569274291993,34.400920474365236,23.368559274291993C34.278110474365235,23.464759274291993,34.210567474365234,23.595069274291994,34.210567474365234,23.736299274291994C34.210567474365234,24.258579274291993,34.647220474365234,24.990659274291993,35.24932747436523,25.47643927429199C35.54577747436524,25.71727927429199,35.86098747436523,25.887509274291993,36.24169747436523,26.012709274291993C36.740097474365236,26.17678927429199,37.33264747436523,26.256619274291992,38.05381747436523,26.256619274291992C39.58551747436523,26.256619274291992,40.706157474365234,25.88409927429199,41.384327474365236,25.15031927429199C41.985417474365235,24.49941927429199,42.050577474365234,23.759159274291992,42.050577474365234,23.47089927429199C42.050577474365234,22.58837927429199,41.65860747436523,21.93918927429199,40.85249747436524,21.486159274291992Z" fill-rule="evenodd" fill="#FFFFFE" fill-opacity="1" style="mix-blend-mode:passthrough"/></g><g><path d="M68.76158919067383,17.629270932006836C68.33004919067383,17.184427932006837,67.51916919067384,16.653960332006836,66.10958919067383,16.653960332006836C64.25380919067383,16.653960332006836,63.47907919067383,17.537844932006834,62.91756919067383,18.194190932006837L62.91756919067383,17.510554932006837C62.91825919067383,17.246854932006837,62.91858919067383,16.948019932006837,62.748029190673826,16.777451932006837C62.72994919067383,16.759370932006835,62.702995190673825,16.751525932006835,62.68218519067383,16.737196932006835C62.675026190673826,16.732421932006837,62.667180190673825,16.727986232006835,62.659671190673826,16.723552232006835C62.57302319067383,16.671016832006835,62.47068419067383,16.636220932006836,62.33320319067383,16.636220932006836C61.72938919067383,16.636220932006836,61.72938919067383,17.162936932006836,61.72938919067383,17.547397932006835L61.72938919067383,25.345100932006837C61.72938919067383,25.772550932006837,61.72938919067383,26.256620932006836,62.33320319067383,26.256620932006836C62.47068419067383,26.256620932006836,62.57302319067383,26.221820932006835,62.659671190673826,26.169290932006838C62.667180190673825,26.164850932006836,62.675026190673826,26.160420932006836,62.68218519067383,26.155640932006836C62.702995190673825,26.140980932006833,62.72994919067383,26.133470932006837,62.748029190673826,26.115390932006836C62.91858919067383,25.944820932006834,62.91825919067383,25.645980932006836,62.91756919067383,25.381950932006838L62.91756919067383,22.056540932006836C62.91756919067383,20.571570932006836,62.967379190673824,19.811180932006835,63.26177919067383,19.231590932006835C63.51012919067383,18.748540932006836,63.91164919067383,18.337810932006835,64.42266919067383,18.044430932006836C64.91014919067383,17.764020932006837,65.47507919067382,17.609825932006835,66.01372919067383,17.609825932006835C66.81266919067383,17.609825932006835,67.52632919067383,17.932540932006837,67.92341919067383,18.472900932006837C68.27512919067382,18.941620932006835,68.32390919067383,19.647780932006835,68.32390919067383,20.341310932006834L68.32390919067383,25.381950932006838C68.32356919067382,25.645980932006836,68.32288919067383,25.944820932006834,68.49379919067383,26.115390932006836C68.51153919067383,26.133470932006837,68.53848919067383,26.140980932006833,68.55929919067383,26.155640932006836C68.56645919067383,26.160420932006836,68.57430919067383,26.164850932006836,68.58180919067382,26.169290932006838C68.66845919067383,26.221820932006835,68.77079919067383,26.256620932006836,68.90827919067382,26.256620932006836C69.51242919067383,26.256620932006836,69.51242919067383,25.751060932006837,69.51242919067383,25.345100932006837L69.51242919067383,20.058160932006835C69.51242919067383,19.565900932006837,69.51242919067383,18.412180932006837,68.76158919067383,17.629270932006836Z" fill-rule="evenodd" fill="#FFFFFE" fill-opacity="1" style="mix-blend-mode:passthrough"/></g><g><path d="M55.29043193115234,12.98571491241455L55.29043193115234,14.296364912414552C57.478141931152344,15.05368491241455,59.05594193115235,17.129164912414552,59.05594193115235,19.57102491241455C59.05594193115235,22.65080491241455,56.55060193115234,25.15611491241455,53.47081193115234,25.15611491241455C50.39137193115234,25.15611491241455,47.88572193115235,22.65080491241455,47.88572193115235,19.57102491241455C47.88572193115235,17.17658491241455,49.403781931152345,15.134874912414551,51.525651931152346,14.34241491241455L51.525651931152346,13.018123112414552C48.700011931152346,13.858342912414551,46.632041931152344,16.47622491241455,46.632041931152344,19.57102491241455C46.632041931152344,23.34231491241455,49.699891931152344,26.40981491241455,53.47081193115234,26.40981491241455C57.24204193115234,26.40981491241455,60.309941931152345,23.34231491241455,60.309941931152345,19.57102491241455C60.309941931152345,16.43085491241455,58.179841931152346,13.785339912414551,55.29043193115234,12.98571491241455Z" fill-rule="evenodd" fill="#FFFFFE" fill-opacity="1" style="mix-blend-mode:passthrough"/></g><g><path d="M105.04384733886718,14.421217120361328C102.76508733886719,13.409067120361328,101.40531733886719,13.016757120361328,100.05577733886719,13.016757120361328C98.63937733886719,13.016757120361328,97.73229733886718,13.523687120361329,97.73229733886718,14.307957120361328C97.73229733886718,16.673747120361327,105.75784733886718,16.00750712036133,105.75784733886718,21.480017120361328C105.75784733886718,24.497017120361328,103.22595733886719,26.250117120361327,99.70883733886718,26.250117120361327C96.94904733886719,26.250117120361327,95.59131733886719,25.53611712036133,94.02618233886719,24.72801712036133L94.02618233886719,21.34361712036133C96.28348733886719,22.83911712036133,97.66440733886719,23.367517120361327,99.40522733886719,23.367517120361327C100.91543733886719,23.367517120361327,101.72973733886718,22.83911712036133,101.72973733886718,21.918417120361326C101.72973733886718,19.34211712036133,93.70414733886719,20.285317120361327,93.70414733886719,14.651147120361328C93.70414733886719,11.933987120361328,96.05253733886718,10.135517120361328,99.70883733886718,10.135517120361328C101.47320733886718,10.135517120361328,103.0652873388672,10.505309120361328,105.04384733886718,11.356447120361327L105.04384733886718,14.421217120361328Z" fill-rule="evenodd" fill="#FFFFFE" fill-opacity="1" style="mix-blend-mode:passthrough"/></g><g><path d="M116.28024437011719,25.530668020629882C114.94298437011719,26.016168020629884,113.81178437011718,26.247768020629884,112.68296437011719,26.247768020629884C108.94512437011718,26.247768020629884,106.52885437011719,24.070618020629883,106.52885437011719,20.758518020629882C106.52885437011719,17.507488020629882,109.03859437011718,15.210268020629883,112.54411437011719,15.210268020629883C113.62688437011718,15.210268020629883,115.01088437011718,15.487954020629882,116.11786437011719,15.900047020629883L116.11786437011719,18.38897802062988C115.24182437011719,17.92332802062988,114.22694437011718,17.668158020629882,113.3966243701172,17.668158020629882C111.39073437011719,17.668158020629882,110.09953437011718,18.87407802062988,110.09953437011718,20.733618020629883C110.09953437011718,22.621128020629882,111.36890437011719,23.863208020629884,113.28063437011718,23.863208020629884C114.08708437011718,23.863208020629884,114.80414437011719,23.67728802062988,116.28024437011719,23.124988020629882L116.28024437011719,25.530668020629882Z" fill-rule="evenodd" fill="#FFFFFE" fill-opacity="1" style="mix-blend-mode:passthrough"/></g><g><path d="M145.42084303710936,19.538957898254395C145.55831303710937,18.061487898254395,146.41560303710938,17.207287898254393,147.72931303710936,17.207287898254393C149.02188303710938,17.207287898254393,149.89723303710937,18.085707898254395,150.03539303710937,19.538957898254395L145.42084303710936,19.538957898254395ZM147.49904303710937,15.213337898254395C144.21935303710939,15.213337898254395,141.88461303710938,17.530337898254395,141.88461303710938,20.789557898254394C141.88461303710938,24.072997898254393,144.31317303710938,26.247737898254393,148.0544230371094,26.247737898254393C148.88303303710939,26.247737898254393,150.88824303710936,26.247737898254393,152.79831303710938,24.833737898254395L152.79831303710938,22.756217898254395C151.23313303710938,23.870027898254392,150.19846303710938,24.254147898254395,148.86290303710936,24.254147898254395C146.75502303710937,24.254147898254395,145.46621303710938,23.162847898254395,145.34989303710938,21.301947898254394L152.98551303710937,21.301947898254394C153.14451303710936,17.415377898254395,150.59315303710937,15.213337898254395,147.49904303710937,15.213337898254395Z" fill-rule="evenodd" fill="#FFFFFE" fill-opacity="1" style="mix-blend-mode:passthrough"/></g><g><path d="M154.27777099609375,26.054032954406736L157.61716099609376,26.054032954406736L157.61716099609376,15.409832954406738L154.27777099609375,15.409832954406738L154.27777099609375,26.054032954406736Z" fill="#FFFFFE" fill-opacity="1" style="mix-blend-mode:passthrough"/></g><g><path d="M166.90870230957032,23.144429345703124C166.2134723095703,23.770029345703126,165.6355823095703,24.021129345703123,164.9215823095703,24.021129345703123C163.34963230957032,24.021129345703123,162.3552223095703,22.727929345703124,162.3552223095703,20.788529345703125C162.3552223095703,18.663259345703125,163.34963230957032,17.438569345703126,165.03246230957032,17.438569345703126C165.6355823095703,17.438569345703126,166.4219123095703,17.715579345703127,166.90870230957032,18.063199345703126L166.90870230957032,23.144429345703124ZM166.90870230957032,10.331329345703125L166.90870230957032,15.877189345703126C166.00675230957032,15.440199345703125,165.1081823095703,15.210949345703124,164.13527230957033,15.210949345703124C161.0902823095703,15.210949345703124,158.9827423095703,17.461089345703126,158.9827423095703,20.718929345703124C158.9827423095703,23.905829345703125,161.0902823095703,26.250529345703125,163.94730230957032,26.250529345703125C165.0802223095703,26.250529345703125,165.95626230957032,25.953029345703126,166.90870230957032,25.193329345703127L166.90870230957032,26.050529345703126L170.2470423095703,26.050529345703126L170.2470423095703,10.331329345703125L166.90870230957032,10.331329345703125Z" fill-rule="evenodd" fill="#FFFFFE" fill-opacity="1" style="mix-blend-mode:passthrough"/></g><g><path d="M175.18946438964844,19.538957898254395C175.32830438964845,18.061487898254395,176.18114438964844,17.207287898254393,177.49418438964844,17.207287898254393C178.78777438964843,17.207287898254393,179.67132438964845,18.085707898254395,179.81016438964843,19.538957898254395L175.18946438964844,19.538957898254395ZM177.26562438964845,15.213337898254395C173.98661438964842,15.213337898254395,171.65562438964844,17.530337898254395,171.65562438964844,20.789557898254394C171.65562438964844,24.072997898254393,174.08383438964844,26.247737898254393,177.82167438964845,26.247737898254393C178.64962438964844,26.247737898254393,180.65755438964842,26.247737898254393,182.57202438964845,24.833737898254395L182.57202438964845,22.756217898254395C181.00619438964844,23.870027898254392,179.96947438964844,24.254147898254395,178.62778438964844,24.254147898254395C176.53047438964845,24.254147898254395,175.23619438964843,23.162847898254395,175.12021438964842,21.301947898254394L182.75312438964843,21.301947898254394C182.91182438964844,17.415377898254395,180.35803438964842,15.213337898254395,177.26562438964845,15.213337898254395Z" fill-rule="evenodd" fill="#FFFFFE" fill-opacity="1" style="mix-blend-mode:passthrough"/></g><g><path d="M187.75183476074218,18.457547803649902L187.8009447607422,18.457547803649902C188.7916147607422,16.2422078036499,189.90099476074218,15.203787803649902,191.18913476074218,15.203787803649902C191.85638476074217,15.203787803649902,192.4322247607422,15.457934803649902,193.40037476074218,16.1750038036499L192.48203476074218,19.125497803649903C191.6042947607422,18.5725178036499,191.0284447607422,18.3415678036499,190.4986647607422,18.3415678036499C189.2739847607422,18.3415678036499,188.4900447607422,19.495967803649904,187.75183476074218,21.4476178036499L187.75183476074218,26.039687803649905L184.4080047607422,26.039687803649905L184.4080047607422,15.399259803649903L187.75183476074218,15.399259803649903L187.75183476074218,18.457547803649902Z" fill-rule="evenodd" fill="#FFFFFE" fill-opacity="1" style="mix-blend-mode:passthrough"/></g><g><path d="M157.7730632861328,10.932753264953613C158.0869032861328,11.759666264953614,157.5226732861328,12.912716264953612,156.51665328613282,13.505946264953614C155.50689328613282,14.099186264953612,154.4398082861328,13.911216264953612,154.1280143861328,13.083966264953613C153.8121162861328,12.255336264953613,154.3732982861328,11.100934264953613,155.3823732861328,10.510767264953614C156.38906328613282,9.914460264953613,157.45682328613282,10.104132264953613,157.7730632861328,10.932753264953613Z" fill-rule="evenodd" fill="#FFFFFE" fill-opacity="1" style="mix-blend-mode:passthrough"/></g><g><path d="M128.30664862060547,19.279347930297853C128.30664862060547,16.39537793029785,126.34684862060547,15.21333793029785,124.41192862060547,15.21333793029785C123.09649862060547,15.21333793029785,122.01508862060547,15.769047930297852,121.04762862060547,16.99372793029785L121.00156862060547,16.99372793029785L121.00156862060547,10.330987930297852L117.66014862060547,10.330987930297852L117.66014862060547,26.02298793029785L121.00156862060547,26.02298793029785L121.00156862060547,19.279347930297853C121.78346862060548,18.14813793029785,122.45209862060547,17.664407930297852,123.23465862060547,17.664407930297852C124.27375862060546,17.664407930297852,124.96490862060547,18.40330793029785,124.96490862060547,19.99334793029785L124.96490862060547,23.732587930297854C126.08553862060546,23.15668793029785,127.22527862060547,22.802987930297853,128.30664862060547,22.671587930297854L128.30664862060547,19.279347930297853Z" fill-rule="evenodd" fill="#FFFFFE" fill-opacity="1" style="mix-blend-mode:passthrough"/></g><g><path d="M136.69012614257812,15.210610389709473C135.32865614257813,15.210610389709473,134.28954614257813,15.716175389709473,133.22554614257814,16.93267038970947L133.22554614257814,15.409833389709473L129.88479614257812,15.409833389709473L129.88479614257812,22.642960389709472C131.04226614257811,22.75860038970947,132.51904614257813,23.289070389709472,133.22554614257814,24.166130389709473L133.22554614257814,19.195770389709473C134.10397614257812,17.877620389709474,134.72723614257814,17.438230389709474,135.55823614257812,17.438230389709474C136.50455614257814,17.438230389709474,137.2236761425781,18.063200389709472,137.2236761425781,19.563520389709474L137.2236761425781,26.026010389709473L140.5650961425781,26.026010389709473L140.5650961425781,19.28788038970947C140.5650961425781,16.15317238970947,138.35113614257813,15.210610389709473,136.69012614257812,15.210610389709473Z" fill-rule="evenodd" fill="#FFFFFE" fill-opacity="1" style="mix-blend-mode:passthrough"/></g><g><path d="M142.41098939453124,29.08259271789551L138.52815939453126,29.08259271789551L138.52815939453126,31.841372717895506L142.27417939453125,31.841372717895506L142.27417939453125,33.02546271789551L138.52815939453126,33.02546271789551L138.52815939453126,35.871222717895506L142.52696939453125,35.871222717895506L142.52696939453125,37.05360271789551L137.22637939453125,37.05360271789551L137.22637939453125,27.901582717895508L142.41098939453124,27.901582717895508L142.41098939453124,29.08259271789551Z" fill="#FFFFFE" fill-opacity="1" style="mix-blend-mode:passthrough"/></g><g><path d="M145.5821990966797,37.05872237854004L146.7713990966797,37.05872237854004L146.7713990966797,27.89817237854004L145.5821990966797,27.89817237854004L145.5821990966797,37.05872237854004Z" fill="#FFFFFE" fill-opacity="1" style="mix-blend-mode:passthrough"/></g><g><path d="M152.65942736328125,31.928361095581053C153.50305736328124,31.928361095581053,154.02533736328124,32.50932109558106,154.06456736328124,33.42186109558106L151.03560736328126,33.42186109558106C151.19934736328125,32.46872109558105,151.74858736328125,31.928361095581053,152.65942736328125,31.928361095581053ZM151.01343736328124,34.215681095581054L155.25103736328126,34.215681095581054C155.25103736328126,31.982601095581053,154.23069736328125,30.904951095581055,152.63213736328126,30.904951095581055C150.97420736328124,30.904951095581055,149.82354736328125,32.130661095581054,149.82354736328125,33.958121095581056C149.82354736328125,35.629011095581056,150.86333736328126,37.17231109558105,152.73583736328126,37.17231109558105C153.75583736328124,37.17231109558105,154.41627736328124,36.94512109558106,155.14665736328124,36.460021095581055L155.14665736328124,35.302201095581054C154.44049736328125,35.76478109558106,153.75583736328124,36.03121109558106,153.03535736328126,36.03121109558106C151.88368736328124,36.03121109558106,151.19934736328125,35.41307109558105,151.01343736328124,34.215681095581054Z" fill-rule="evenodd" fill="#FFFFFE" fill-opacity="1" style="mix-blend-mode:passthrough"/></g><g><path d="M163.01736017089843,32.604491095581054C162.33304017089844,32.135771095581056,161.87660017089843,31.998631095581054,161.35568017089844,31.998631095581054C160.26677017089844,31.998631095581054,159.51285017089845,32.833741095581054,159.51285017089845,34.05705109558105C159.51285017089845,35.302201095581054,160.31521017089844,36.053051095581054,161.55491017089844,36.053051095581054C162.06421017089843,36.053051095581054,162.55033017089843,35.92103109558106,163.15039017089845,35.65255109558105L163.15039017089845,36.82504109558106C162.74956017089843,37.014711095581056,161.98576017089843,37.17164109558105,161.35568017089844,37.17164109558105C159.55516017089843,37.17164109558105,158.30455017089844,35.933311095581054,158.30455017089844,34.16280109558105C158.30455017089844,32.16613109558106,159.44634017089842,30.904951095581055,161.27415017089845,30.904951095581055C161.97211017089845,30.904951095581055,162.44151017089843,31.067331095581054,163.01736017089843,31.320114095581054L163.01736017089843,32.604491095581054Z" fill-rule="evenodd" fill="#FFFFFE" fill-opacity="1" style="mix-blend-mode:passthrough"/></g><g><path d="M168.43597713378907,31.019917014160157L170.34429713378907,31.019917014160157L170.34429713378907,32.09142701416015L168.43597713378907,32.09142701416015L168.43597713378907,35.18928701416016C168.43597713378907,35.898517014160156,168.94904713378907,36.10319701416016,169.29598713378905,36.10319701416016C169.72616713378906,36.10319701416016,170.16997713378908,35.95206701416016,170.65234713378905,35.654937014160154L170.65234713378905,36.77079701416016C170.23410713378905,37.000387014160154,169.59345713378906,37.171637014160154,169.20012713378907,37.171637014160154C167.90551713378906,37.171637014160154,167.25120713378905,36.367917014160156,167.25120713378905,35.27900701416016L167.25120713378905,32.09142701416015L166.20118713378906,32.09142701416015L166.20118713378906,31.958727014160157L168.43597713378907,29.772377014160156L168.43597713378907,31.019917014160157Z" fill-rule="evenodd" fill="#FFFFFE" fill-opacity="1" style="mix-blend-mode:passthrough"/></g><g><path d="M174.892683984375,31.019912264770507L174.892683984375,32.416528264770506L174.916893984375,32.416528264770506C175.523773984375,31.347404264770507,176.100303984375,30.904268264770508,176.661813984375,30.904268264770508C177.145203984375,30.904268264770508,177.599603984375,31.13146626477051,178.097653984375,31.603258264770506L177.467573984375,32.65122826477051C177.105283984375,32.293718264770504,176.636903984375,32.04605826477051,176.353773984375,32.04605826477051C175.535723984375,32.04605826477051,174.892683984375,32.878428264770506,174.892683984375,33.91002826477051L174.892683984375,37.05939826477051L173.704833984375,37.05939826477051L173.704833984375,31.019912264770507L174.892683984375,31.019912264770507Z" fill-rule="evenodd" fill="#FFFFFE" fill-opacity="1" style="mix-blend-mode:passthrough"/></g><g><path d="M190.2844207861328,32.604491095581054C189.59703078613282,32.135771095581056,189.14127078613282,31.998631095581054,188.6166007861328,31.998631095581054C187.53077078613282,31.998631095581054,186.7829907861328,32.833741095581054,186.7829907861328,34.05705109558105C186.7829907861328,35.302201095581054,187.5867107861328,36.053051095581054,188.81822078613283,36.053051095581054C189.3289007861328,36.053051095581054,189.8112607861328,35.92103109558106,190.4195107861328,35.65255109558105L190.4195107861328,36.82504109558106C190.0104907861328,37.014711095581056,189.24531078613282,37.17164109558105,188.6166007861328,37.17164109558105C186.8191607861328,37.17164109558105,185.5634307861328,35.933311095581054,185.5634307861328,34.16280109558105C185.5634307861328,32.16613109558106,186.7103307861328,30.904951095581055,188.5381407861328,30.904951095581055C189.2378207861328,30.904951095581055,189.7017507861328,31.067331095581054,190.2844207861328,31.320114095581054L190.2844207861328,32.604491095581054Z" fill-rule="evenodd" fill="#FFFFFE" fill-opacity="1" style="mix-blend-mode:passthrough"/></g><g><path d="M181.24942016601562,37.058713211669925L182.43897016601562,37.058713211669925L182.43897016601562,31.019573211669922L181.24942016601562,31.019573211669922L181.24942016601562,37.058713211669925Z" fill="#FFFFFE" fill-opacity="1" style="mix-blend-mode:passthrough"/></g><g><path d="M182.47920188476562,28.85028185913086C182.59553188476562,29.14229785913086,182.39221188476563,29.55336685913086,182.03539288476563,29.76418685913086C181.67481088476563,29.97467685913086,181.29376188476562,29.90678685913086,181.18492948476563,29.61476685913086C181.0764543847656,29.32036885913086,181.27329388476562,28.911345859130858,181.63454788476562,28.70086585913086C181.99172588476563,28.48799655913086,182.37038188476564,28.55588275913086,182.47920188476562,28.85028185913086Z" fill-rule="evenodd" fill="#FFFFFE" fill-opacity="1" style="mix-blend-mode:passthrough"/></g><g><path d="M129.2458381958008,29.33845235473633C129.03603819580078,29.33845235473633,128.94763819580078,29.372562354736328,128.86173819580077,29.468422354736326C128.82863819580078,29.506292354736328,128.81493819580078,29.54381235473633,128.80273819580077,29.619212354736327L127.73664819580078,33.66441235473633C127.48591819580078,35.08218235473633,125.74337819580079,36.49928235473633,123.47209819580078,36.49928235473633L120.31452819580078,36.49928235473633L120.86239819580078,34.420382354736326L122.89113819580078,34.420382354736326C123.09854819580079,34.420382354736326,123.25991819580078,34.344292354736325,123.39567819580078,34.193172354736326C123.44480819580077,34.134492354736324,123.51064819580078,34.04239235473633,123.51882819580078,33.947892354736325L124.36109819580078,30.414052354736327C124.60943819580078,28.994582354736327,126.10873819580078,27.42706235473633,128.37933819580078,27.42706235473633L131.6123381958008,27.42706235473633L131.1988381958008,29.33845235473633L129.2458381958008,29.33845235473633ZM129.97483819580077,31.80316235473633L130.33543819580078,30.49490235473633L133.62053819580078,30.49490235473633C134.0258381958008,28.597502354736328,133.7065381958008,26.839282354736326,132.55483819580078,25.687602354736327C130.2245381958008,23.35798235473633,125.34868819580078,24.14975935473633,121.71591819580078,27.624922354736327C121.14929819580078,28.16426235473633,120.67000819580078,28.74760235473633,120.23299819580077,29.34391235473633L122.21090819580078,29.34391235473633L121.75140819580078,30.655582354736328L119.38868819580078,30.655582354736328C119.16319819580077,31.06904235473633,118.95101219580079,31.478742354736326,118.78862819580078,31.895272354736328L121.59072819580078,31.895272354736328L121.14246819580079,33.20694235473633L118.38881319580078,33.20694235473633C117.91805419580078,35.209782354736326,118.21824839580079,37.07888235473633,119.40232819580078,38.26528235473633C121.70466819580078,40.56628235473633,126.56517819580078,39.757082354736326,130.19593819580078,36.282982354736326C130.83143819580079,35.67848235473633,131.35573819580077,35.02618235473633,131.82963819580078,34.35623235473633L129.2888381958008,34.35623235473633L129.67603819580077,33.04763235473633L132.64693819580077,33.04763235473633C132.8642381958008,32.63110235473633,133.0652381958008,32.21969235473633,133.2211381958008,31.80316235473633L129.97483819580077,31.80316235473633Z" fill-rule="evenodd" fill="#FFFFFE" fill-opacity="1" style="mix-blend-mode:passthrough"/></g><g><path d="M81.29428100585938,40L81.98098800585937,40L81.98098800585937,0L81.29428100585938,0L81.29428100585938,40Z" fill="#FFFFFE" fill-opacity="1" style="mix-blend-mode:passthrough"/></g></g></g></g></svg>