<svg xmlns="http://www.w3.org/2000/svg" xmlns:xlink="http://www.w3.org/1999/xlink" fill="none" version="1.1" width="60" height="60.7227783203125" viewBox="0 0 60 60.7227783203125"><g><path d="M12.1522,20.4459C12.3148,21.3745,12.4773,22.3043,12.6449,23.2582C12.5248,23.2683,12.4036,23.286,12.2835,23.2886C12.0389,23.2886,11.7941,23.2866,11.5493,23.2846C11.0595,23.2807,10.5696,23.2768,10.0802,23.2886C8.26578,23.3316,7.04283,24.5878,7.01532,26.4209C6.99342,26.8791,6.99592,27.3382,7.02282,27.7961C7.07034,28.2895,6.92279,28.5197,6.4351,28.7184C4.41436,29.5407,3.48527,31.9115,4.31682,33.9685C5.15266,35.9913,7.42831,36.9734,9.44996,36.1837C11.0037,35.5765,12.0217,34.0573,12.0038,32.3723C11.986,30.6873,10.9362,29.1905,9.36993,28.6171C9.07357,28.5046,8.99229,28.373,9.0023,28.0795C9.01675,27.6912,9.01424,27.3028,9.01173,26.9145C9.01077,26.7652,9.0098,26.6158,9.0098,26.4665C9.0098,25.7188,9.38494,25.3355,10.1352,25.3279C10.5453,25.3242,10.9553,25.3254,11.3653,25.3266C11.9242,25.3283,12.483,25.33,13.0413,25.319C13.3414,25.3077,13.4752,25.4316,13.5915,25.6986C14.2693,27.2472,15.167,28.6873,16.2562,29.9733C18.9997,33.2373,20.5953,36.9857,20.938,41.2706C20.963,41.5831,20.9029,41.726,20.6128,41.8855C19.5499,42.4699,19.0122,43.3998,19.0223,44.6345C19.0285,45.3746,19.3324,46.0021,19.7613,46.5612C18.7622,48.1072,18.7634,48.846,19.7513,50.6462C18.9785,51.6583,18.7709,52.7754,19.3036,53.9355C19.8363,55.0956,20.7929,55.6484,22.0334,55.6826C22.346,55.6914,22.4198,55.866,22.5335,56.0773C24.1366,59.0718,26.625,60.7101,29.9875,60.7227C33.3638,60.7354,35.876,59.1009,37.4803,56.0874C37.5884,55.8314,37.8405,55.6687,38.1155,55.6775C39.5786,55.5738,40.5714,54.7426,40.9241,53.3662C41.1854,52.3415,40.9028,51.4369,40.2676,50.626C41.2817,49.2635,41.2742,47.9098,40.2738,46.5701C41.5443,44.6712,41.1767,42.9557,39.2735,41.7893C39.158,41.6863,39.0942,41.5364,39.0997,41.3807C39.356,37.6272,40.579,34.2165,42.8185,31.2195C44.1753,29.4028,45.6396,27.6721,46.5274,25.5455C46.6065,25.4221,46.7377,25.3427,46.8825,25.3304C47.9292,25.3165,48.9771,25.3115,50.0237,25.3304C50.6302,25.3444,51.0103,25.7492,51.0241,26.3564C51.029,26.5515,51.0259,26.7487,51.0227,26.9456C51.018,27.2429,51.0132,27.5395,51.0366,27.8265C51.0753,28.3034,50.9303,28.5248,50.4651,28.712C48.6393,29.4743,47.6499,31.4832,48.148,33.4169C48.6982,35.4284,50.5676,36.7112,52.5496,36.4405C54.3442,36.184,55.752,34.7529,55.9971,32.9362C56.2355,31.113,55.2152,29.3602,53.5237,28.6867C53.1236,28.5273,52.9798,28.3388,53.006,27.9074C53.0408,27.2913,53.0375,26.6736,52.996,26.0579C52.9008,24.6418,51.8159,23.4985,50.4213,23.3442C49.8582,23.2914,49.2927,23.2919,48.7273,23.2924C48.4803,23.2926,48.2334,23.2928,47.9867,23.2886L47.3902,23.2886C47.6128,21.897,47.8216,20.5965,48.0392,19.2403C48.3709,19.2403,48.7051,19.2412,49.041,19.2422C49.9209,19.2448,50.8129,19.2473,51.7043,19.2327C52.0407,19.2276,52.1832,19.3389,52.302,19.6628C52.976,21.5073,54.983,22.6092,56.8312,22.1829C58.7056,21.7794,60.0341,20.0882,59.9993,18.1497C59.9646,16.2113,58.5763,14.5699,56.6886,14.2356C54.7842,13.9054,52.956,14.9845,52.2707,16.8657C52.1782,17.1212,52.0619,17.2022,51.8031,17.2022C50.6151,17.1946,49.4272,17.1946,48.2393,17.1946C48.1552,17.189,48.0716,17.1771,47.9892,17.1592C47.9054,16.4672,47.8454,15.803,47.7391,15.1566C47.6328,14.5101,47.4777,13.87,47.3352,13.1805L49.7586,13.1805C51.7593,13.1805,53.001,11.9154,53.0098,9.89123C53.0112,9.80376,53.013,9.71629,53.0148,9.62882C53.0224,9.2571,53.03,8.88554,53.0098,8.51481C52.9885,8.13908,53.0811,7.94425,53.4762,7.79624C55.4119,7.07134,56.4385,4.9055,55.8521,2.88135C54.9971,-0.000785846,51.4397,-0.960075,49.2802,1.10917C47.1207,3.17841,47.8745,6.82417,50.6727,7.84431C50.9453,7.94552,51.0365,8.06697,51.0265,8.35035C51.0182,8.71896,51.021,9.08813,51.0238,9.45712C51.0252,9.64154,51.0265,9.82592,51.0265,10.0102C51.0203,10.7325,50.6402,11.1348,49.9349,11.1424C49.4929,11.1463,49.0508,11.1455,48.6088,11.1448C48.0505,11.1438,47.4921,11.1428,46.9338,11.1513C46.6737,11.1551,46.5549,11.0551,46.4436,10.8249C46.1335,10.1733,45.8184,9.52056,45.4432,8.8994C41.5043,2.27663,33.7777,-1.20617,26.385,0.438453C20.5078,1.74276,16.2637,5.24581,13.6303,10.7249C13.6216,10.743,13.6132,10.7609,13.6049,10.7785C13.5068,10.9871,13.4251,11.1608,13.1138,11.1538C12.5228,11.1391,11.9318,11.1411,11.3405,11.143C10.916,11.1445,10.4913,11.1459,10.0664,11.1411C9.4162,11.1336,9.02231,10.7249,9.01105,10.0709C9.00752,9.84754,9.00948,9.62421,9.01144,9.40096C9.01433,9.07031,9.01723,8.73983,9.0023,8.40981C8.98854,8.09227,9.08482,7.95184,9.39244,7.83166C10.8155,7.27755,11.692,6.21866,11.9496,4.70055C12.301,2.62327,10.968,0.588996,8.98479,0.114586C6.89152,-0.385126,4.78199,0.826834,4.18052,2.87629C3.56371,4.92544,4.64163,7.10429,6.63267,7.83292C6.94529,7.94805,7.03157,8.09606,7.02156,8.41107C7.00281,9.0588,6.99906,9.70906,7.03282,10.3555C7.101,11.735,8.11337,12.8784,9.46121,13.0982C10.0589,13.1868,10.6742,13.1704,11.2819,13.1868C11.5878,13.1935,11.8932,13.1913,12.2054,13.1891C12.364,13.1879,12.5243,13.1868,12.6874,13.1868C12.5386,13.9028,12.3823,14.5493,12.276,15.1983C12.1697,15.8473,12.1109,16.5051,12.0259,17.2035C11.6844,17.2035,11.3433,17.2027,11.0025,17.2019C10.109,17.1999,9.2174,17.1979,8.32579,17.2098C8.00318,17.2136,7.84437,17.1364,7.71932,16.7961C7.13411,15.1629,5.47225,14.0686,3.81038,14.1761C1.80715,14.3026,0.155286,15.903,0.0127328,17.8449C-0.143575,19.9323,1.15315,21.735,3.13889,22.1981C5.05585,22.6446,7.04408,21.5326,7.74684,19.5945C7.84812,19.3124,7.98567,19.2453,8.25452,19.2453C8.91139,19.2504,9.56769,19.2487,10.2242,19.247C10.5525,19.2462,10.8809,19.2453,11.2094,19.2453C12.0547,19.2453,12.0547,19.2466,12.1147,20.1157C12.1216,20.2264,12.1341,20.3366,12.1522,20.4459ZM8.00255,6.09912C6.89758,6.09388,6.00601,5.18339,6.01119,4.06548L6.0112,4.06042C6.01644,2.94992,6.89695,2.04675,7.99443,2.02614C9.10999,2.03927,10.0086,2.95577,10.0127,4.08445C10.0075,5.20236,9.10753,6.10436,8.00255,6.09912ZM52.0544,2.02741C53.1526,2.05904,54.0243,2.97301,54.0164,4.08445L54.0177,4.08445C54.0114,5.20158,53.1118,6.10237,52.0075,6.09714C50.9033,6.0919,50.0121,5.18262,50.0162,4.06548C50.0137,2.95599,50.9715,1.99578,52.0544,2.02741ZM37.2315,39.9182C37.1689,40.4319,37.1077,40.9468,37.0439,41.4844L31.0529,41.4794L31.0529,32.3707C32.1146,32.2923,32.6435,31.5952,32.8999,30.6476C33.1049,29.886,33.4926,29.3585,34.2991,29.232C34.3618,29.2236,34.4218,29.2007,34.4742,29.1649C35.2845,28.564,36.071,28.7082,36.8901,29.1801C37.7954,29.7026,38.6282,29.5331,39.351,28.774C39.7749,28.3312,40.2151,27.9049,40.6265,27.452C41.1554,26.8726,41.3305,26.1515,40.9453,25.481C40.3414,24.4297,40.3576,23.4834,40.9141,22.4055C41.2104,21.8413,41.438,21.3796,42.0858,21.2379C42.3091,21.1666,42.5268,21.0787,42.7373,20.9747C43.5663,20.6547,43.969,20.0348,43.9877,19.1555C44.004,18.523,44.0052,17.8904,43.9877,17.2579C43.959,16.4419,43.6201,15.7562,42.8335,15.5374C41.6631,15.211,41.0016,14.5303,40.6365,13.3513C40.4502,12.7503,40.3264,12.2772,40.6527,11.7269C40.7856,11.4764,40.8981,11.2153,40.9891,10.9463C41.258,10.2543,41.1804,9.60659,40.674,9.04869C40.1676,8.49078,39.6349,7.94932,39.0847,7.44202C38.5345,6.93471,37.8342,6.79555,37.209,7.15231C36.1573,7.7507,35.2095,7.78233,34.1266,7.1852C33.5914,6.89044,33.215,6.64121,32.9924,6.0365C32.3372,4.25904,32.0421,4.0794,30.1664,4.05789C29.7762,4.0541,29.3836,4.06295,28.9947,4.09078C28.2094,4.14518,27.5492,4.49941,27.3478,5.27491C27.0402,6.45398,26.3712,7.10424,25.222,7.47364C24.6156,7.6672,24.1341,7.79371,23.5764,7.46099C23.3419,7.3354,23.0977,7.22921,22.8462,7.14345C22.1472,6.8664,21.4857,6.93092,20.9255,7.45593C20.3878,7.95944,19.8713,8.48572,19.3711,9.03097C18.8559,9.59521,18.6921,10.3024,19.0673,10.9602C19.6712,12.0254,19.6662,12.9831,19.0948,14.08C18.8059,14.6429,18.5596,15.0604,17.9519,15.2185C17.6986,15.2991,17.4512,15.3976,17.2116,15.5133C16.4563,15.8334,16.0649,16.4166,16.0424,17.2389C16.0236,17.9018,16.0236,18.5673,16.0424,19.2302C16.0649,20.0525,16.4388,20.7166,17.2191,20.938C18.3483,21.2594,19.0072,21.8919,19.3686,23.0507C19.5712,23.6997,19.6675,24.1931,19.3549,24.808C19.3391,24.839,19.3232,24.8701,19.3072,24.9014C19.0468,25.4101,18.7716,25.9477,18.946,26.5639C19.016,26.8169,19.0973,27.1028,19.2661,27.2863C19.8383,27.9335,20.4458,28.548,21.0855,29.127C21.5619,29.5457,22.1622,29.6001,22.7636,29.3547C23.3138,29.127,23.8603,28.7222,24.4092,28.7222C24.7212,28.7207,25.0297,28.8811,25.3426,29.0439C25.5603,29.1571,25.7801,29.2714,26.0048,29.3332C26.5525,29.4837,26.8551,29.7836,26.9877,30.32C27.0365,30.5135,27.144,30.6995,27.2078,30.8931C27.4854,31.7495,28.0331,32.2923,28.9747,32.3821L28.9747,41.4756L22.9862,41.4756C22.9199,40.9581,22.8662,40.4306,22.7949,39.9056C22.2272,35.7067,20.5528,32.0114,17.8668,28.7728C14.7382,25.0015,13.5065,20.6622,14.1817,15.7942C15.0558,9.49652,19.7975,4.18819,25.9248,2.57646C33.8952,0.480197,42.0983,4.68031,44.9543,12.4809C47.1101,18.3686,46.141,23.844,42.2033,28.7044C39.5336,32.0013,37.8004,35.6865,37.2315,39.9182ZM39.0259,10.2328C39.0425,10.2622,39.0539,10.2943,39.0596,10.3277C39.0209,10.4251,38.9821,10.5288,38.9684,10.625C38.762,11.1196,38.567,11.6206,38.3431,12.1064C38.1543,12.5226,38.2206,12.8794,38.4044,13.2817C38.7695,14.0774,39.1097,14.8947,39.4048,15.7221C39.5611,16.1585,39.7787,16.4672,40.2138,16.6266C40.6977,16.8024,41.1692,17.0162,41.6519,17.1946C41.8979,17.2576,42.0626,17.4917,42.0407,17.7475L42.0416,17.7793C42.0758,19.0708,42.0759,19.0747,40.8716,19.5578C40.6252,19.6565,40.3439,19.7109,40.1425,19.869C39.8762,20.0816,39.5961,20.3384,39.456,20.6407C39.0584,21.4934,38.7008,22.3714,38.3869,23.257C38.272,23.5885,38.2546,23.9467,38.3369,24.288C38.4757,24.8168,38.7308,25.3102,38.9621,25.8162C39.0894,26.0204,39.0524,26.2878,38.8746,26.4488L38.8559,26.4696C37.9718,27.4559,37.9695,27.4584,36.7488,26.9257C36.5884,26.8634,36.4315,26.7925,36.2786,26.7132C35.7472,26.4108,35.2745,26.4994,34.738,26.784C34.0115,27.1494,33.2591,27.4598,32.4872,27.7126C32.0708,27.8606,31.7757,28.0694,31.6194,28.4932C31.4231,29.0131,31.233,29.5306,30.9942,30.0252C30.8942,30.2004,30.7223,30.3214,30.5252,30.3554C29.196,30.4617,29.1885,30.4477,28.6958,29.1826C28.6045,28.9473,28.502,28.7171,28.417,28.4793C28.2719,28.0744,27.983,27.8695,27.5867,27.7202C26.7388,27.4014,25.906,27.0472,25.0857,26.6676C24.7193,26.4981,24.3867,26.4374,24.0116,26.6082C23.5414,26.822,23.0662,27.0219,22.5936,27.2268C22.5639,27.2394,22.53,27.2572,22.4958,27.2753C22.4132,27.3187,22.3286,27.3632,22.2959,27.3381C21.9038,27.0582,21.5307,26.7517,21.1793,26.4209C21.0647,26.2734,21.0245,26.0803,21.0705,25.8985C21.2568,25.3633,21.4919,24.8446,21.7207,24.326C21.8744,23.9763,21.8605,23.5747,21.6832,23.2367Q21.118,21.9653,20.6303,20.6635C20.4865,20.265,20.2602,19.9867,19.8613,19.8374C19.3461,19.6464,18.8372,19.449,18.3457,19.2124C18.1842,19.1208,18.071,18.9614,18.0369,18.7773C17.9184,17.3971,17.928,17.3933,19.1916,16.8839L19.2023,16.8796C19.4337,16.786,19.665,16.6898,19.8988,16.6013C20.2777,16.4571,20.484,16.1762,20.6266,15.7967C20.953,14.9288,21.3043,14.0698,21.6795,13.2235C21.852,12.849,21.8896,12.5138,21.727,12.1342C21.5182,11.6573,21.3193,11.1766,21.118,10.6971C21.1075,10.6738,21.0929,10.647,21.078,10.6195C21.0395,10.5489,20.9989,10.4742,21.0205,10.4441C21.2858,10.0444,21.5782,9.66399,21.8958,9.3055C22.052,9.18164,22.2564,9.1386,22.4485,9.18911C22.9774,9.37508,23.4864,9.62177,24.0016,9.84822C24.3705,10.0114,24.7031,9.96208,25.0782,9.79129C25.901,9.4143,26.7376,9.07019,27.5791,8.7438C27.9668,8.59325,28.2644,8.39463,28.4119,7.98474C28.5995,7.46605,28.8246,6.96128,29.0097,6.44133C29.1047,6.17566,29.256,6.0909,29.5299,6.08204L29.554,6.0813C30.8529,6.04151,30.8558,6.04142,31.3293,7.25351C31.4206,7.48756,31.5306,7.71654,31.6056,7.95691C31.7444,8.3921,32.0596,8.59451,32.4647,8.74885C33.295,9.06513,34.1166,9.39911,34.9206,9.77864C35.3045,9.95702,35.6521,10.0165,36.0398,9.84316C36.5387,9.61924,37.0464,9.40164,37.5466,9.19417C37.6679,9.14483,37.8692,9.07651,37.9317,9.13344C38.3131,9.48134,38.6657,9.86087,39.0259,10.2328ZM38.0117,18.221C38.0044,13.7552,34.4217,10.14,30.0076,10.1442C25.5785,10.1342,21.9906,13.7789,22.0184,18.2597C22.0322,22.7255,25.62,26.3354,30.0342,26.3247C34.4483,26.314,38.0191,22.6868,38.0117,18.221ZM36.0159,18.2504C36.0037,21.6008,33.3117,24.3082,30.0001,24.3006C26.6753,24.2929,23.9901,21.5525,24.0116,18.1889C24.033,14.8385,26.7325,12.1388,30.0441,12.1557C33.3557,12.1727,36.028,14.9,36.0159,18.2504ZM54.0452,18.2295C54.0486,17.1192,54.941,16.2221,56.0384,16.2256C57.1358,16.2291,58.0226,17.1319,58.0191,18.2421C58.0157,19.3523,57.1233,20.2495,56.0259,20.246C54.9285,20.2425,54.0417,19.3397,54.0452,18.2295ZM5.9699,18.2257C5.97541,19.3345,5.09258,20.2384,3.9967,20.246L3.99795,20.241C2.89849,20.2473,2.00216,19.3507,1.99596,18.2383C1.99461,17.1296,2.88082,16.2291,3.97672,16.2256C5.07263,16.2222,5.96439,17.117,5.9699,18.2257ZM5.99744,32.4099C5.99744,31.292,6.8932,30.3858,7.99817,30.3858C9.10315,30.3858,9.99891,31.292,9.99891,32.4099C9.99891,33.5278,9.10315,34.4341,7.99817,34.4341C6.8932,34.4341,5.99744,33.5278,5.99744,32.4099ZM52.0144,30.3921C53.1194,30.3921,54.0152,31.2983,54.0152,32.4162C54.0152,33.5341,53.1194,34.4404,52.0144,34.4404C50.9094,34.4404,50.0137,33.5341,50.0137,32.4162C50.0137,31.2983,50.9094,30.3921,52.0144,30.3921ZM28.397,43.5554L30.0376,43.5554C32.6298,43.5554,35.222,43.5554,37.8142,43.5541C38.0611,43.5436,38.307,43.5921,38.5319,43.6958C38.9116,43.8903,39.1039,44.3279,38.9921,44.7433C38.9198,45.1644,38.5836,45.4881,38.1643,45.5403C38.0095,45.5587,37.8535,45.5638,37.6979,45.5555L22.3322,45.5555C22.2955,45.5555,22.2588,45.5563,22.2221,45.5572C22.1489,45.5589,22.0758,45.5606,22.0033,45.5555C21.4131,45.5239,21.0005,45.0634,21.0167,44.5118C21.033,43.9602,21.4381,43.5554,22.0259,43.5554L28.397,43.5554ZM37.6491,49.6152L29.9638,49.6152L22.3722,49.6101C22.2006,49.6159,22.0288,49.6082,21.8583,49.5873C21.4103,49.5231,21.0638,49.1573,21.0192,48.7018C20.9603,48.2264,21.2546,47.7791,21.7107,47.6505C21.9208,47.5944,22.1376,47.5684,22.3547,47.5733L37.6791,47.5733C37.8965,47.5685,38.1133,47.5954,38.3231,47.653C38.7787,47.7839,39.0705,48.2331,39.0084,48.7081C38.9628,49.1655,38.6133,49.5317,38.1631,49.5937C37.9925,49.6141,37.8207,49.6213,37.6491,49.6152ZM22.3435,51.6393L30.0276,51.6393L30.0276,51.6381Q33.989,51.6419,37.9455,51.6381C38.4232,51.6368,38.7645,51.8392,38.9459,52.2807C39.1109,52.6691,39.0571,53.0765,38.7358,53.3194C38.4644,53.5183,38.1404,53.6307,37.8054,53.642C36.2937,53.664,34.7819,53.6614,33.2702,53.6588C32.7812,53.658,32.2922,53.6572,31.8032,53.6572L22.3872,53.6572C22.2153,53.6631,22.0432,53.6576,21.8721,53.6407C21.3694,53.5762,20.9985,53.1345,21.0167,52.6223C21.0282,52.1108,21.4183,51.69,21.9221,51.6457C22.0621,51.6393,22.2034,51.6393,22.3435,51.6393ZM35.4337,55.7269L24.6806,55.7269C25.3333,57.2766,27.6242,58.6631,29.8075,58.7175C32.1566,58.7732,34.0145,57.7666,35.4337,55.7269Z" fill-rule="evenodd" fill="#FFFFFF" fill-opacity="1" style="mix-blend-mode:passthrough"/></g></svg>