<svg xmlns="http://www.w3.org/2000/svg" xmlns:xlink="http://www.w3.org/1999/xlink" fill="none" version="1.1" width="47" height="51" viewBox="0 0 47 51"><defs><clipPath id="master_svg0_27_05698"><rect x="0" y="0" width="47" height="51" rx="0"/></clipPath></defs><g clip-path="url(#master_svg0_27_05698)"><g><path d="M8.82965,32.4999C4.65967,32.4999,0.934129,29.3658,0.164605,25.2091C-0.288057,22.7678,0.197526,20.3362,1.53082,18.3619C2.83257,16.4354,4.81056,15.106,7.1013,14.6213C7.70074,14.494,8.32486,14.4474,8.98465,14.3981C9.30151,14.3749,9.62798,14.3502,9.9613,14.316L10.3509,14.2763L10.3303,13.8861C10.119,9.80185,11.5278,6.31185,14.5195,3.51191C17.0118,1.18159,20.0282,0,23.4877,0C23.8649,0,24.2531,0.0136916,24.6413,0.0424441C26.862,0.202636,28.9745,0.951569,30.9209,2.26597C32.8331,3.55846,34.3268,5.27402,35.3597,7.3661C36.4091,9.49105,36.8275,11.6516,36.6368,13.9696L36.5998,14.4146L37.0469,14.4146C37.1512,14.4146,37.2499,14.4159,37.3446,14.4159C37.4351,14.4159,37.5215,14.4173,37.6066,14.4173C37.7108,14.4173,37.811,14.4159,37.9125,14.4132C38.0044,14.4105,38.0977,14.4091,38.1896,14.4091C42.3431,14.4091,46.059,17.5404,46.8327,21.693C47.2853,24.1192,46.8052,26.5426,45.4829,28.517C44.1853,30.453,42.2004,31.792,39.896,32.289C39.2718,32.4232,38.5956,32.4506,37.9413,32.4779L37.7424,32.4862L37.7136,32.4862C37.3556,32.4862,37.0895,32.1945,37.0812,31.7934C37.0689,31.1978,37.2897,30.8801,37.7342,30.8486C39.0702,30.7555,40.6243,30.5269,42.018,29.5397C43.974,28.1569,45.0206,26.3509,45.2182,24.0193C45.5446,20.1692,42.889,16.8051,39.0414,16.1917C38.265,16.0685,37.4722,16.0685,36.7054,16.0685C36.4283,16.0685,36.1416,16.0685,35.8618,16.063C35.2404,16.0493,35.0209,15.8262,35.0223,15.2114L35.0223,15.0334C35.0278,13.2809,35.0333,11.4681,34.4352,9.72928C32.9661,5.45749,29.9209,2.76298,25.6289,1.93737C24.8374,1.78539,24.0501,1.70735,23.2901,1.70735C20.2326,1.70735,17.5057,2.92043,15.1834,5.31099C13.4687,7.07858,12.4331,9.25007,12.1053,11.768C11.9955,12.6127,11.9914,13.4726,11.9887,14.3037C11.9873,14.6282,11.9859,14.9636,11.9777,15.2908C11.9654,15.7988,11.7061,16.0562,11.2068,16.0562C11.0408,16.0562,10.8749,16.0548,10.7075,16.0548C10.536,16.0535,10.366,16.0535,10.1959,16.0535C9.25076,16.0535,8.1534,16.0795,7.07935,16.3875C4.23856,17.2036,2.22353,19.4873,1.8175,22.3448C1.23727,26.4358,3.80922,29.9601,7.93392,30.7268C8.2549,30.787,8.57588,30.8062,8.88726,30.8254C8.99151,30.8322,9.09576,30.8377,9.20001,30.8459C9.66227,30.8815,9.94484,31.0581,9.91878,31.8262C9.90369,32.2986,9.50178,32.4807,9.13279,32.4944C9.03129,32.4985,8.92978,32.4999,8.82965,32.4999Z" fill="#FFFFFF" fill-opacity="1" style="mix-blend-mode:passthrough"/></g><g><path d="M23.512394843750002,50.9999796875C21.017274843750002,50.9999796875,18.89799184375,49.1954796875,18.58250014375,46.8021796875C18.25466384375,44.3061796875,19.56601484375,42.1674796875,21.92396484375,41.3514796875C22.46578484375,41.1638796875,22.685264843749998,40.8571796875,22.685264843749998,40.2930796875C22.67428484375,35.4435796875,22.67565484375,30.5118196875,22.67703484375,25.7430196875L22.67703484375,23.4551466875C22.67703484375,23.2182816875,22.742874843750002,22.8006856875,23.18319484375,22.6487085875C23.28332484375,22.6144794875,23.387574843750002,22.5966796875,23.49593484375,22.5966796875C23.78399484375,22.5966796875,24.04050484375,22.7212736875,24.16532484375,22.9211706875C24.25448484375,23.0649336875,24.31347484375,23.2812616875,24.314844843750002,23.4702046875C24.32581484375,25.675929687500002,24.32581484375,27.918619687499998,24.32444484375,30.0873796875L24.32444484375,31.8864596875L24.32444484375,33.8155796875C24.32444484375,35.9596796875,24.32581484375,38.1763796875,24.31896484375,40.3560796875C24.31759484375,40.7312796875,24.39852484375,41.1392796875,25.008924843750002,41.3254796875C26.76059484375,41.858079687499995,28.70841484375,43.5653796875,28.431324843749998,46.6268796875C28.24477484375,48.6888796875,26.59461484375,50.4865796875,24.50688484375,50.9013796875C24.17904484375,50.9671796875,23.84434484375,50.9999796875,23.512394843750002,50.9999796875ZM23.45890484375,42.8014796875C21.58790484375,42.8014796875,20.26695484375,44.1294796875,20.24637484375,46.0312796875C20.23677484375,46.9472796875,20.55637484375,47.7796796875,21.14484484375,48.3739796875C21.73467484375,48.9694796875,22.57003484375,49.2980796875,23.49456484375,49.2980796875L23.51102484375,49.2980796875C25.338134843749998,49.2912796875,26.620674843750002,48.0343796875,26.777044843749998,46.0983796875L26.77979484375,46.068279687499995L26.777044843749998,46.038179687500005C26.641254843749998,44.0870796875,25.40397484375,42.849379687500004,23.548064843749998,42.804179687499996C23.519254843749998,42.8014796875,23.48907484375,42.8014796875,23.45890484375,42.8014796875Z" fill="#FFFFFF" fill-opacity="1" style="mix-blend-mode:passthrough"/></g><g><path d="M8.010716406250001,46.91100625C7.55531640625,46.91100625,7.07796640625,46.84810625,6.59100640625,46.72480625C4.70080640625,46.24430625,3.46901540625,44.98190625,3.03007140625,43.07190625C2.71046440625,41.68630625,2.95462770625,40.29800625,3.71455040625,39.164306249999996C4.47584640625,38.02790625,5.67333640625,37.27350625,7.08344640625,37.03800625C7.37699640625,36.98870625,7.66916640625,36.96410625,7.95310640625,36.96410625C8.79396640625,36.96410625,9.57034640625,37.176306249999996,10.26031640625,37.595206250000004C10.46881640625,37.72260625,10.65261640625,37.78140625,10.83505640625,37.78140625C11.14917640625,37.78140625,11.37824640625,37.60350625,11.54285640625,37.44740625C12.06410640625,36.95450625,12.60592640625,36.46290625,13.12856640625,35.98650625C13.43166640625,35.71130625,13.73486640625,35.43470625,14.03656640625,35.15810625C15.64016640625,33.68080625,16.46866640625,31.75438625,16.49746640625,29.43228625C16.51386640625,28.08913625,16.50976640625,26.72407625,16.50706640625,25.40556625C16.50566640625,24.77849625,16.50296640625,24.15004625,16.50426640625,23.52297025C16.50426640625,22.73296225,16.93916640625,22.63027466,17.316366406249998,22.62890625C17.893866406249998,22.62890625,18.14896640625,22.89726325,18.14896640625,23.50106325C18.14896640625,24.39101625,18.14896640625,25.280976250000002,18.14896640625,26.17230625C18.14896640625,27.38811625,18.14896640625,28.60256625,18.15036640625,29.81838625C18.153066406249998,32.19799625,17.28346640625,34.298306249999996,15.56466640625,36.05770625C14.86516640625,36.773706250000004,14.10246640625,37.46110625,13.36586640625,38.12650625C13.02426640625,38.43450625,12.68273640625,38.74260625,12.34529640625,39.05480625L12.13268640625,39.251906250000005L12.24790640625,39.51890625C13.22456640625,41.78080625,12.98176640625,43.67300625,11.50581640625,45.305006250000005C10.53739640625,46.370206249999995,9.36321640625,46.91100625,8.010716406250001,46.91100625ZM7.84611640625,38.667306249999996C5.90104640625,38.79740625,4.59929640625,40.11860625,4.60752640625,41.95470625C4.61575640625,43.84140625,5.946306406250001,45.17080625,7.84337640625,45.18860625L7.88040640625,45.18860625C9.74043640625,45.18860625,11.06961640625,43.87290625,11.11351640625,41.987506249999996C11.15603640625,40.15280625,9.866636406249999,38.81790625,7.90509640625,38.667306249999996L7.87492640625,38.66460625L7.84611640625,38.667306249999996Z" fill="#FFFFFF" fill-opacity="1" style="mix-blend-mode:passthrough"/></g><g><path d="M39.0870328125,46.9030359375C37.7633228125,46.9030359375,36.5301628125,46.3936359375,35.6138628125,45.4695359375C34.6962028125,44.5425359375,34.1763228125,43.3062359375,34.190042812499996,42.076735937500004C34.1996428125,41.1634359375,34.3477828125,40.4323359375,34.6550428125,39.7737359375C34.7949628125,39.4739359375,34.6577928125,39.0193359375,34.4424328125,38.812635937500005C33.8279128125,38.2293359375,33.1941828125,37.6502359375,32.5796628125,37.0902359375C32.3300128125,36.8629359375,32.0803628125,36.6342359375,31.8320828125,36.4070359375C29.8609528125,34.5969359375,28.8582357325,32.3748059375,28.8513768025,29.8007759375C28.8472618625,28.0564659375,28.8486328125,26.2820259375,28.8500058525,24.5664659375L28.8513768025,23.4875639375C28.8513768025,22.8960839375,29.1106288125,22.6318359375,29.6881158125,22.6318359375C30.2354228125,22.6345748475,30.4960528125,22.9152539375,30.4960528125,23.4903029375C30.4960528125,24.0256459375,30.4987928125,24.5623559375,30.5015328125,25.0977059375C30.5083928125,26.3696559375,30.5152528125,27.6840559375,30.4891928125,28.9738059375C30.4356928125,31.7285659375,31.4576128125,33.9986359375,33.5261328125,35.7210359375C34.0569828125,36.1633359375,34.5562828125,36.6288359375,35.0857628125,37.1203359375C35.3258128125,37.3448359375,35.5686028125,37.5694359375,35.8141328125,37.7939359375L36.044582812499996,38.0034359375L36.3093228125,37.8377359375C37.2146428125,37.2723359375,38.1638528125,36.9984359375,39.2104328125,36.9984359375C39.244732812500004,36.9984359375,39.2790328125,36.9984359375,39.3147328125,36.9998359375C41.5121328125,37.0382359375,43.5162328125,38.6579359375,43.9771328125,40.769135937499996C44.2926328125,42.215035937500005,44.0237328125,43.651235937500005,43.2185328125,44.812335937499995C42.4518328125,45.9199359375,41.2748328125,46.641535937499995,39.9073328125,46.842735937499995C39.6329328125,46.8824359375,39.3558328125,46.9030359375,39.0870328125,46.9030359375ZM39.1048328125,38.6921359375C37.2215028125,38.6921359375,35.897802812500004,40.0229359375,35.8854628125,41.9288359375C35.8799728125,42.8461359375,36.2009528125,43.6772359375,36.789412812500004,44.2701359375C37.3778728125,44.8615359375,38.207752812500004,45.1874359375,39.1240328125,45.1874359375L39.1569328125,45.1874359375C40.984032812500004,45.1724359375,42.2638328125,43.9141359375,42.4147328125,41.980835937500004L42.4175328125,41.9507359375L42.4147328125,41.920635937499995C42.2762328125,39.9955359375,41.0060328125,38.729135937500004,39.177532812500004,38.6935359375C39.1542328125,38.6921359375,39.1295328125,38.6921359375,39.1048328125,38.6921359375Z" fill="#FFFFFF" fill-opacity="1" style="mix-blend-mode:passthrough"/></g></g></svg>