<svg xmlns="http://www.w3.org/2000/svg" xmlns:xlink="http://www.w3.org/1999/xlink" fill="none" version="1.1" width="56.7001953125" height="44.6298828125" viewBox="0 0 56.7001953125 44.6298828125"><g><g><path d="M32.328001190185546,14.24040625C32.328001190185546,15.65690625,32.328001190185546,16.94500625,32.328001190185546,18.34110625C32.570501190185546,18.34110625,32.79430119018555,18.34110625,33.018001190185544,18.34110625C35.266101190185545,18.34110625,37.51430119018555,18.34110625,39.764001190185546,18.34110625C39.90010119018555,18.34110625,40.037701190185544,18.33950625,40.17380119018554,18.34110625C40.87000119018555,18.35200625,41.33940119018555,18.75110625,41.323701190185545,19.31930625C41.308101190185546,19.87020625,40.86380119018555,20.26300625,40.19260119018554,20.26770625C38.393501190185546,20.27870625,36.59430119018555,20.27240625,34.79680119018555,20.27240625C33.997301190185546,20.27240625,33.19940119018555,20.27240625,32.33900119018555,20.27240625C32.328001190185546,20.50560625,32.31080119018554,20.69350625,32.31080119018554,20.88130625C32.30930119018555,22.83770625,32.31870119018555,24.79410625,32.301401190185544,26.75050625C32.29830119018555,27.13080625,32.412501190185544,27.34060625,32.752001190185545,27.53310625C36.10310119018555,29.43780625,37.81310119018555,33.05170625,37.18100119018555,36.75480625C36.497301190185546,40.75840625,33.600001190185544,43.55690625,29.685701190185547,44.20330625C24.687181190185548,45.03130625,19.80134319018555,41.20920625,19.444644190185546,36.15850625C19.17555519018555,32.36780625,20.710301190185547,29.48640625,23.959701190185548,27.53460625C24.335171190185548,27.30930625,24.389931190185546,27.05260625,24.389931190185546,26.67850625C24.383671190185545,19.24570625,24.383671190185545,11.81130625,24.386801190185547,4.37852625C24.38836119018555,2.49410625,25.503831190185547,0.98688125,27.256031190185546,0.47508225000000004C29.72790119018555,-0.24644275000000004,32.24040119018555,1.58162625,32.306101190185544,4.1562762499999995C32.31870119018555,4.66493625,32.342101190185545,5.17673625,32.301401190185544,5.68071625C32.25920119018555,6.19407625,32.43130119018555,6.35528625,32.953801190185544,6.35058625C35.22230119018555,6.32397625,37.48920119018555,6.33963625,39.75770119018554,6.33963625C39.93290119018555,6.33963625,40.10970119018555,6.33650625,40.28490119018555,6.34276625C40.917001190185545,6.36623625,41.33470119018555,6.74969625,41.32530119018554,7.29123625C41.31590119018554,7.83433625,40.90130119018555,8.20839625,40.25680119018555,8.21152625C37.96950119018555,8.21935625,35.68230119018555,8.21152625,33.39340119018554,8.21778625C32.107501190185545,8.22248625,32.328001190185546,8.08944625,32.31240119018555,9.31181625C32.301401190185544,10.11316625,32.335901190185545,10.91760625,32.301401190185544,11.71740625C32.281101190185545,12.19630625,32.42350119018555,12.35760625,32.919401190185546,12.35290625C35.363101190185546,12.32940625,37.80840119018555,12.32310625,40.250501190185545,12.36690625C40.57440119018555,12.37320625,41.00610119018555,12.62520625,41.17980119018554,12.89750625C41.32060119018554,13.11660625,41.25960119018555,13.63470625,41.081201190185546,13.84130625C40.87630119018554,14.07760625,40.446101190185544,14.21380625,40.10970119018555,14.22160625C38.54680119018555,14.26080625,36.982301190185545,14.23880625,35.417901190185546,14.24040625C34.40410119018554,14.24040625,33.390301190185546,14.24040625,32.328001190185546,14.24040625ZM30.378701190185545,15.99180625C30.37710119018555,15.99180625,30.37710119018555,15.99180625,30.37560119018555,15.99180625C30.37560119018555,14.95570625,30.37560119018555,13.91800625,30.37560119018555,12.88190625C30.37560119018555,10.00673625,30.388101190185544,7.13002625,30.369301190185546,4.254876250000001C30.359901190185546,2.85564625,29.045781190185547,1.91030625,27.737891190185547,2.32193625C26.811731190185547,2.61305625,26.31422119018555,3.36431625,26.312661190185548,4.49433625C26.311101190185546,12.10400625,26.303271190185548,19.71370625,26.323611190185545,27.32330625C26.325181190185546,28.15130625,26.073301190185546,28.63810625,25.286371190185548,28.99960625C22.162131190185548,30.43480625,20.586711190185547,34.07060625,21.594221190185547,37.35740625C22.620511190185546,40.70370625,25.877741190185546,42.80250625,29.27733119018555,42.30640625C32.578401190185545,41.82590625,34.907801190185545,39.47500625,35.35370119018555,36.03330625C35.69160119018555,33.41950625,34.33370119018555,30.30490625,31.240701190185547,28.91040625C30.616501190185545,28.62870625,30.36620119018555,28.22170625,30.369301190185546,27.55190625C30.386501190185548,23.69850625,30.378701190185545,19.84510625,30.378701190185545,15.99180625Z" fill="#FFFFFF" fill-opacity="1" style="mix-blend-mode:passthrough"/><path d="M32.62800119018554,14.54040625L35.417901190185546,14.54040625L35.41820119018554,14.54040625Q35.85250119018555,14.54000625,36.72080119018555,14.54270625Q38.984201190185544,14.54990625,40.11670119018555,14.52150625Q40.90430119018555,14.50320625,41.308301190185546,14.03730625Q41.50440119018555,13.81020625,41.548401190185544,13.40670625Q41.594201190185544,12.98750625,41.43270119018555,12.73620625Q41.01540119018554,12.08170625,40.25590119018555,12.06700625Q37.18440119018555,12.01190625,32.916601190185546,12.05290625Q32.677501190185545,12.05510625,32.63380119018555,12.00940625Q32.591201190185544,11.96470625,32.60120119018555,11.73030625Q32.62220119018555,11.24050625,32.613701190185544,10.26521625Q32.60810119018555,9.63088625,32.61240119018555,9.31565625Q32.61470119018555,9.13020625,32.60940119018555,8.84809625Q32.60460119018555,8.58963625,32.612201190185544,8.51721625Q32.69330119018555,8.51374625,33.050801190185545,8.51656625Q33.265001190185544,8.51825625,33.393701190185546,8.51778625L40.05500119018555,8.51218625L40.258201190185545,8.51152625Q40.849801190185545,8.50865625,41.226501190185544,8.179896249999999Q41.61590119018555,7.84007625,41.625301190185546,7.29642625Q41.63460119018555,6.75443625,41.24800119018555,6.40122625Q40.87950119018555,6.06464625,40.29560119018555,6.04295625Q40.15810119018555,6.03804625,39.887901190185545,6.03924625Q39.800801190185545,6.03963625,39.75770119018554,6.03963625Q39.14480119018555,6.03963625,37.91910119018554,6.03734625Q34.60780119018555,6.03116625,32.95110119018555,6.05059625Q32.68280119018554,6.05301625,32.62880119018555,5.99863625Q32.58030119018555,5.94974625,32.60050119018555,5.70484625Q32.63650119018555,5.25787625,32.61190119018555,4.36978625Q32.607901190185544,4.2221262500000005,32.606001190185545,4.14861625Q32.55300119018555,2.07043625,30.860001190185546,0.83713425Q29.167951190185548,-0.39551875000000003,27.171921190185547,0.18711525Q25.758701190185548,0.59989925,24.923361190185545,1.73416625Q24.088051190185546,2.86840625,24.086801190185547,4.37846625L24.084851190185546,15.53220625L24.089931190185546,26.67850625Q24.089931190185546,27.10660625,23.805231190185545,27.27750625Q18.729860190185548,30.32600625,19.145391190185546,36.17970625Q19.422087860185545,40.09760625,22.639321190185548,42.62140625Q25.852661190185547,45.14230625,29.734501190185547,44.49930625Q32.78200119018555,43.99600625,34.85550119018555,41.95160625Q36.95070119018555,39.88580625,37.47670119018555,36.80530625Q37.96800119018555,33.92690625,36.730801190185545,31.34010625Q35.48900119018555,28.74370625,32.90000119018555,27.27210625Q32.59860119018555,27.10120625,32.60140119018555,26.75160625L32.612001190185545,23.74320625L32.61130119018554,22.55100625L32.610701190185544,21.48490625L32.61080119018555,20.88130625Q32.61080119018555,20.78010625,32.62260119018555,20.57240625L34.79700119018555,20.57240625L40.19470119018555,20.56770625Q40.80300119018555,20.56350625,41.198501190185546,20.22680625Q41.60800119018555,19.87810625,41.623601190185546,19.32750625Q41.63930119018555,18.75780625,41.21010119018555,18.39270625Q40.80840119018555,18.05100625,40.177301190185545,18.04110625Q40.08410119018555,18.04000625,39.89920119018555,18.04070625Q39.808501190185545,18.04110625,39.764001190185546,18.04110625L32.62800119018554,18.04110625L32.62800119018554,14.54040625ZM32.596601190185545,8.51815625Q32.58940119018555,8.51878625,32.588501190185546,8.51956625L32.596601190185545,8.51815625ZM35.417901190185546,13.94040625L35.41760119018555,13.94040625L32.02800119018555,13.94040625L32.02800119018555,18.64110625L39.764001190185546,18.64110625Q39.810001190185545,18.64110625,39.901401190185545,18.64070625Q40.08190119018555,18.64000625,40.170401190185544,18.64100625Q40.58370119018555,18.64750625,40.82140119018555,18.84970625Q41.03160119018555,19.02860625,41.02380119018555,19.31100625Q41.00540119018555,19.96200625,40.19050119018554,19.96770625L34.796501190185545,19.97240625L32.052701190185545,19.97240625L32.03930119018555,20.25840625Q32.03570119018555,20.33640625,32.027001190185544,20.48020625Q32.010801190185546,20.74890625,32.010801190185546,20.88130625L32.01070119018554,21.48470625L32.01130119018555,22.55130625L32.01200119018554,23.74360625L32.00140119018555,26.74950625Q31.99570119018555,27.44910625,32.60400119018555,27.79400625Q35.02890119018555,29.17240625,36.18960119018554,31.59900625Q37.34450119018555,34.01390625,36.885301190185544,36.70440625Q36.39180119018555,39.59420625,34.43420119018555,41.52440625Q32.49630119018555,43.43510625,29.636801190185547,43.90730625Q26.015181190185547,44.50720625,23.009651190185547,42.14940625Q20.00184519018555,39.78980625,19.743900190185546,36.13740625Q19.354424690185546,30.65070625,24.114171190185548,27.79180625Q24.689931190185547,27.44620625,24.689931190185547,26.67850625L24.684851190185547,15.53190625L24.686801190185548,4.37857625Q24.687891190185546,3.06572625,25.406491190185548,2.08996625Q26.121581190185548,1.11897925,27.340151190185548,0.76305025Q29.053011190185547,0.26307125,30.506701190185545,1.32209625Q31.960701190185546,2.38130625,32.00620119018555,4.163926249999999Q32.00810119018555,4.23774625,32.01220119018555,4.38640625Q32.03590119018555,5.24200625,32.002401190185545,5.65657625Q31.959701190185548,6.17605625,32.20290119018554,6.42120625Q32.43510119018555,6.65526625,32.95650119018555,6.65057625Q34.610701190185544,6.63117625,37.917901190185546,6.63734625Q39.14410119018555,6.63963625,39.75770119018554,6.63963625Q39.802101190185546,6.63963625,39.89060119018555,6.63923625Q40.14880119018555,6.63808625,40.27420119018555,6.64256625Q41.036001190185544,6.67086625,41.025301190185544,7.28603625Q41.014601190185545,7.90784625,40.25530119018555,7.91153625L40.05300119018555,7.91218625L33.39320119018555,7.91778625Q33.26640119018555,7.91825625,33.05560119018555,7.91658625Q32.37640119018555,7.91121625,32.19820119018554,8.06391625Q31.997801190185548,8.23560625,32.009501190185546,8.85940625Q32.01470119018555,9.13200625,32.01240119018554,9.30797625Q32.008001190185546,9.62939625,32.01370119018554,10.27049625Q32.022101190185545,11.23030625,32.00170119018554,11.70450625Q31.98090119018555,12.19430625,32.199801190185546,12.42360625Q32.42310119018555,12.65760625,32.92230119018555,12.65280625Q37.18190119018554,12.61190625,40.24510119018555,12.66690625Q40.68230119018555,12.67540625,40.92680119018554,13.05880625Q40.97470119018554,13.13330625,40.95200119018555,13.34160625Q40.92820119018555,13.55950625,40.854101190185546,13.64530625Q40.62500119018554,13.90960625,40.10270119018554,13.92170625Q38.97770119018554,13.94990625,36.722701190185546,13.94270625Q35.85340119018555,13.94000625,35.417901190185546,13.94040625ZM31.364001190185547,28.63690625Q30.665701190185548,28.32170625,30.669301190185546,27.55330625L30.669301190185546,27.55210625L30.679001190185545,15.69180625L30.675601190185546,15.69180625L30.675601190185546,12.88190625L30.679501190185547,8.58076625L30.669301190185546,4.25416625Q30.661301190185547,3.05556625,29.717401190185548,2.36696625Q28.776431190185548,1.68057625,27.64783119018555,2.03577625Q26.015351190185548,2.54889625,26.012661190185547,4.49392625L26.010591190185547,11.00310625L26.009941190185547,13.93590625L26.023611190185548,27.32370625Q26.025511190185547,28.32990625,25.161121190185547,28.72700625Q22.721071190185548,29.84790625,21.616211190185545,32.36350625Q20.516901190185546,34.86650625,21.307401190185548,37.44530625Q22.109341190185546,40.06010625,24.383321190185548,41.52500625Q26.659861190185545,42.99150625,29.320651190185547,42.60320625Q31.908001190185544,42.22660625,33.60100119018555,40.48970625Q35.30540119018555,38.74110625,35.651201190185546,36.07190625Q35.93190119018554,33.90080625,34.84840119018555,31.87320625Q33.67590119018555,29.67930625,31.364001190185547,28.63690625ZM30.07850119018555,16.29180625L30.06930119018555,27.55050625L30.06930119018555,27.55160625Q30.06440119018555,28.70870625,31.117401190185547,29.18390625Q33.24310119018555,30.14230625,34.319201190185545,32.156006250000004Q35.31230119018555,34.01430625,35.05620119018555,35.99480625Q34.73610119018555,38.46560625,33.17140119018555,40.07090625Q31.620301190185547,41.66220625,29.234001190185545,42.00950625Q26.795741190185545,42.36540625,24.708251190185546,41.02060625Q22.618651190185545,39.67450625,21.881051190185545,37.26950625Q21.155871190185547,34.90380625,22.165561190185546,32.60480625Q23.17872119018555,30.29790625,25.411611190185546,29.27220625Q26.626241190185546,28.71420625,26.623611190185546,27.32300625L26.609941190185545,13.93600625L26.610591190185545,11.00330625L26.61266119018555,4.49475625Q26.614741190185548,2.98943625,27.827951190185544,2.60809625Q28.667581190185548,2.34384625,29.363741190185547,2.85169625Q30.06330119018555,3.36204625,30.06930119018555,4.25557625L30.079501190185546,8.58022625L30.075601190185544,12.88190625L30.075601190185544,16.29180625L30.07850119018555,16.29180625Z" fill-rule="evenodd" fill="#FFFFFF" fill-opacity="1"/></g><g><path d="M19.02379296875,29.998308092651367C18.78449296875,30.292548092651366,18.61239296875,30.704178092651368,18.35269296875,30.769908092651367C18.01319296875,30.854428092651368,17.50469296875,30.785568092651367,17.24499296875,30.571138092651367C16.52689296875,29.974828092651368,15.90119296875,29.26581809265137,15.23469296875,28.605338092651365C14.00349296875,27.387658092651368,12.59389296875,27.381398092651366,11.37199296875,28.592818092651367C10.55219296875,29.405118092651367,9.74809296875,30.229938092651366,8.92361296875,31.035988092651365C7.04312296875,32.873448092651365,4.40386296875,32.86718809265137,2.53120296875,31.028158092651367C1.90384296875,30.411498092651367,1.2811879687499999,29.790138092651368,0.66791596875,29.160958092651367C0.20639816875,28.688288092651366,0.18136696875,28.096668092651367,0.58187096875,27.708518092651367C0.96203596875,27.339148092651367,1.54714296875,27.361058092651366,1.99458296875,27.79302809265137C2.62663296875,28.403428092651367,3.23677296875,29.038878092651366,3.86569296875,29.65396809265137C5.01714296875,30.780868092651367,6.45175296875,30.77773809265137,7.60633296875,29.64457809265137C8.44332296875,28.822888092651368,9.25841296875,27.979278092651366,10.09696296875,27.16071809265137C11.97749296875,25.323253092651367,14.61829296875,25.32168909265137,16.49099296875,27.154458092651367C17.16049296875,27.810248092651367,17.83009296875,28.469168092651365,18.47469296875,29.149998092651366C18.67809296875,29.365988092651367,18.80639296875,29.655538092651366,19.02379296875,29.998308092651367Z" fill="#FFFFFF" fill-opacity="1" style="mix-blend-mode:passthrough"/><path d="M19.09049296875,29.525238092651367Q18.85289296875,29.114018092651367,18.69309296875,28.944338092651368L18.69259296875,28.94375809265137Q18.00349296875,28.21589809265137,16.70079296875,26.940058092651366Q15.20849296875,25.479595092651365,13.29659296875,25.48125009265137Q11.38479296875,25.482906092651366,9.88741296875,26.946048092651367Q9.44520296875,27.377708092651368,8.57524296875,28.253448092651368Q7.79204296875,29.041868092651367,7.39619296875,29.430478092651366Q6.61756296875,30.194658092651366,5.73411296875,30.196798092651367Q4.85143296875,30.198938092651368,4.07545296875,29.439498092651366Q3.79108296875,29.16137809265137,3.22866296875,28.595358092651367Q2.54995296875,27.91231809265137,2.20295296875,27.57719809265137Q1.78934296875,27.17787809265137,1.27895996875,27.150688092651368Q0.75425496875,27.122738092651367,0.37308656875,27.493088092651366Q-0.02717603125000001,27.881008092651367,0.002076968750000019,28.419318092651366Q0.030223968749999996,28.93727809265137,0.45308596875,29.370358092651365Q1.28518196875,30.224038092651366,2.32100296875,31.242208092651367Q3.81337296875,32.70777809265137,5.72400296875,32.71075809265137Q7.63584296875,32.71373809265137,9.13334296875,31.250498092651366Q9.61420296875,30.780388092651368,10.56069296875,29.828848092651366Q11.24079296875,29.145178092651367,11.58319296875,28.805858092651366Q13.29489296875,27.10882809265137,15.02349296875,28.818418092651367Q15.22339296875,29.016508092651367,15.61799296875,29.423808092651367Q16.54049296875,30.376058092651366,17.05399296875,30.802478092651366Q17.61229296875,31.263398092651368,18.42629296875,31.060738092651366Q18.71719296875,30.98710809265137,19.06379296875,30.461218092651368Q19.19079296875,30.268418092651366,19.25659296875,30.187618092651366L19.39289296875,30.020018092651366L19.27719296875,29.837588092651366Q19.20829296875,29.729078092651367,19.09049296875,29.525238092651367ZM18.25629296875,29.355668092651367L18.25679296875,29.356248092651366Q18.36879296875,29.475448092651366,18.57099296875,29.825438092651368Q18.62089296875,29.911728092651366,18.66289296875,29.98258809265137Q18.61699296875,30.048718092651367,18.56279296875,30.131058092651365Q18.34429296875,30.462568092651367,18.27909296875,30.479088092651367Q17.76089296875,30.608068092651365,17.43599296875,30.339808092651367Q16.94889296875,29.935238092651367,16.04889296875,29.006318092651366Q15.65009296875,28.594628092651366,15.44589296875,28.392248092651368Q14.43469296875,27.392208092651366,13.30089296875,27.388168092651366Q12.16499296875,27.384118092651367,11.16079296875,28.379778092651367Q10.81689296875,28.72049809265137,10.13533296875,29.405708092651366Q9.19175296875,30.35429809265137,8.71389296875,30.821468092651365Q7.39175296875,32.11335809265137,5.72494296875,32.110758092651366Q4.05911296875,32.108158092651365,2.74140296875,30.814118092651366Q1.71036296875,29.80063809265137,0.88274696875,28.951558092651368Q0.61710096875,28.67948809265137,0.60119296875,28.386768092651366Q0.5867799687499999,28.121528092651367,0.79065496875,27.92394809265137Q1.24301296875,27.484428092651367,1.78621296875,28.008858092651366Q2.12870296875,28.339618092651367,2.80305296875,29.01826809265137Q3.36851296875,29.587348092651368,3.65592296875,29.868448092651366Q4.60729296875,30.799528092651368,5.73556296875,30.79679809265137Q6.86341296875,30.794068092651365,7.81647296875,29.858688092651366Q8.21503296875,29.467418092651368,9.00091296875,28.676308092651368Q9.86758296875,27.803868092651367,10.30649296875,27.375398092651366Q11.62949296875,26.082694092651366,13.29719296875,26.081250092651366Q14.96399296875,26.079807092651368,16.281092968750002,27.36885809265137Q17.57509296875,28.63613809265137,18.25629296875,29.355668092651367Z" fill-rule="evenodd" fill="#FFFFFF" fill-opacity="1"/></g><g><path d="M50.96705885009766,32.388082743530276C49.73275885009765,32.39747274353027,48.69395885009766,31.923242743530274,47.820958850097654,31.062422743530274C47.013698850097654,30.265762743530274,46.218948850097654,29.456592743530273,45.413238850097656,28.656812743530274C44.14445885009766,27.396882743530274,42.708278850097656,27.390622743530272,41.447308850097656,28.639592743530272C40.79336885009766,29.285992743530272,40.151928850097654,29.944912743530274,39.493288850097656,30.586622743530274C39.003608850097656,31.065552743530272,38.44509785009765,31.104672743530273,38.03990085009766,30.714962743530272C37.61905885009766,30.309592743530274,37.65817045009766,29.732062743530275,38.15879985009766,29.223392743530272C38.872198850097654,28.498732743530272,39.585598850097654,27.772512743530275,40.319328850097655,27.068202743530275C42.120028850097654,25.340298743530273,44.73738885009766,25.346557743530273,46.54121885009766,27.086982743530275C47.371958850097656,27.888332743530274,48.174558850097654,28.71628274353027,48.99275885009766,29.531722743530274C50.291258850097655,30.827652743530273,51.677358850097654,30.822952743530273,52.98995885009766,29.517632743530275C53.55785885009766,28.952622743530274,54.11795885009766,28.376652743530272,54.693658850097655,27.819462743530273C55.14895885009766,27.378092743530274,55.71685885009765,27.345232743530275,56.104858850097656,27.713032743530274C56.51155885009766,28.098062743530274,56.49745885009766,28.695942743530274,56.03755885009765,29.168612743530275C55.36955885009766,29.855702743530273,54.69525885009766,30.538102743530274,54.00065885009766,31.197022743530272C53.158958850097655,31.999932743530273,52.143558850097655,32.39904274353027,50.96705885009766,32.388082743530276Z" fill="#FFFFFF" fill-opacity="1" style="mix-blend-mode:passthrough"/><path d="M54.20705885009765,31.414672743530275L54.20765885009766,31.414092743530272Q55.04585885009766,30.619002743530274,56.25255885009766,29.377832743530274Q56.675258850097656,28.943482743530275,56.695958850097654,28.41983274353027Q56.71735885009765,27.87976274353027,56.31125885009766,27.495322743530274Q55.922658850097655,27.127002743530273,55.40335885009766,27.163552743530275Q54.90285885009766,27.198782743530273,54.48505885009766,27.603892743530274Q54.110358850097654,27.966542743530272,53.376458850097656,28.705242743530274Q52.97795885009766,29.106352743530273,52.77845885009766,29.304912743530274Q50.981058850097654,31.092282743530273,49.204558850097655,29.319222743530272Q48.927158850097655,29.042822743530273,48.375558850097654,28.486592743530274Q47.300408850097654,27.402482743530275,46.749528850097654,26.871092743530273Q45.31013885009766,25.482296743530274,43.42994885009766,25.476970743530273Q41.54985885009766,25.471644743530273,40.11157885009766,26.851772743530272Q39.400788850097655,27.534062743530274,38.02085685009766,28.93588274353027Q37.966699850097655,28.990892743530274,37.944984850097654,29.012952743530274Q37.493905850097654,29.471272743530275,37.45466985009766,29.985072743530274Q37.41321885009766,30.527862743530275,37.83193975009765,30.93118274353027Q38.23532285009765,31.319152743530275,38.75979885009765,31.275502743530275Q39.26062885009765,31.233812743530272,39.70263885009766,30.801492743530275Q40.08558885009766,30.428392743530274,40.83836885009766,29.672142743530273Q41.38376885009765,29.124222743530275,41.65842885009766,28.852732743530275Q43.42385885009766,27.104092743530273,45.20112885009765,28.868962743530275L47.45257885009766,31.120062743530273L47.610318850097656,31.276032743530273Q49.057058850097654,32.70262274353027,50.96435885009765,32.68807274353027Q52.853358850097656,32.705662743530276,54.20705885009765,31.414672743530275ZM55.82255885009766,28.959392743530273Q54.623658850097655,30.192512743530273,53.79415885009766,30.979372743530273L53.793558850097654,30.979952743530273Q52.615758850097656,32.103422743530274,50.96985885009766,32.08810274353027Q49.30125885009765,32.10075274353027,48.03155885009765,30.848802743530275L47.87445885009765,30.693412743530274L45.625358850097655,28.444662743530273Q44.58583885009766,27.412392743530273,43.42864885009766,27.407362743530275Q42.270148850097655,27.402332743530273,41.23619885009766,28.426452743530273Q40.96022885009766,28.699232743530274,40.41312885009766,29.248862743530275Q39.663618850097656,30.001822743530273,39.283938850097655,30.371742743530273Q38.70477385009766,30.938192743530273,38.247862850097654,30.498742743530272Q38.03299485009766,30.291772743530274,38.05292785009765,30.03075274353027Q38.075455850097654,29.735752743530274,38.372614850097655,29.433822743530275Q38.39610985009766,29.409962743530272,38.448445850097656,29.356792743530274Q39.822418850097655,27.961032743530275,40.52707885009766,27.284632743530274Q41.79045885009766,26.072328743530274,43.42824885009766,26.076968743530273Q45.067158850097655,26.081610743530273,46.332918850097656,27.302872743530273Q46.87906885009765,27.829712743530273,47.94955885009766,28.909092743530273Q48.50235885009766,29.466552743530272,48.780958850097655,29.744212743530273Q49.84295885009766,30.804132743530275,50.98715885009766,30.800142743530273Q52.12975885009766,30.79615274353027,53.20145885009766,29.730352743530272Q53.40245885009766,29.530392743530275,53.802158850097655,29.128102743530274Q54.531858850097656,28.393522743530273,54.90225885009765,28.035042743530273Q55.44915885009766,27.504862743530275,55.898458850097654,27.930752743530274Q56.10705885009766,28.128232743530273,56.096458850097655,28.396082743530272Q56.08475885009766,28.689882743530273,55.82255885009766,28.959392743530273Z" fill-rule="evenodd" fill="#FFFFFF" fill-opacity="1"/></g><g><path d="M50.95457573242187,40.26546251953125C49.710875732421876,40.28268251953125,48.67677573242187,39.79748251953125,47.806885732421875,38.936662519531254C46.987105732421874,38.12592251953125,46.178275732421874,37.30266251953125,45.35692573242187,36.49193251953125C44.14446573242188,35.29460251953125,42.69263573242188,35.30086251953125,41.47391573242187,36.50288251953125C41.08436573242187,36.88791251953125,40.70888573242188,37.28701251953125,40.308385732421876,37.65951251953125C39.82965573242188,38.105582519531254,39.303998732421874,38.11184251953125,38.90192973242188,37.70490251953125C38.517069732421874,37.31362251953125,38.53584463242188,36.75017251953125,38.978589732421874,36.29159251953125C39.45262273242187,35.79857251953125,39.931345732421875,35.30712251953125,40.436675732421875,34.84541251953125C42.165405732421874,33.26305951953125,44.731135732421876,33.27088651953125,46.44422573242188,34.87984251953125C47.32659573242188,35.70936251953125,48.16514573242188,36.58740251953125,49.02407573242188,37.44353251953125C50.29597573242187,38.708152519531254,51.689875732421875,38.70189251953125,52.97277573242187,37.42474251953125C53.540675732421874,36.85973251953125,54.10077573242187,36.28533251953125,54.674875732421874,35.72658251953125C55.15827573242187,35.25547251953125,55.727775732421875,35.21947251953125,56.12517573242188,35.61545251953125C56.51937573242188,36.00673251953125,56.491275732421876,36.59679251953125,56.02817573242187,37.07259251953125C55.372675732421875,37.74403251953125,54.71247573242188,38.41234251953125,54.03347573242188,39.06030251953125C53.176175732421875,39.87731251953125,52.149875732421876,40.29520251953125,50.95457573242187,40.26546251953125Z" fill="#FFFFFF" fill-opacity="1" style="mix-blend-mode:passthrough"/><path d="M50.952975732421876,40.565512519531254Q52.84177573242187,40.61040251953125,54.240375732421874,39.27748251953125L54.240575732421874,39.27734251953125Q55.03677573242187,38.51754251953125,56.243175732421875,37.28183251953125Q56.66597573242187,36.84735251953125,56.697575732421875,36.33063251953125Q56.73047573242188,35.79351251953125,56.33687573242187,35.40295251953125Q55.94057573242188,35.00803251953125,55.41047573242187,35.04665251953125Q54.904975732421875,35.08348251953125,54.46567573242187,35.51158251953125Q54.100175732421874,35.86722251953125,53.38257573242188,36.58922251953125Q52.96887573242188,37.00542251953125,52.76107573242187,37.21214251953125Q50.99007573242187,38.97526251953125,49.235875732421874,37.23105251953125Q48.967075732421876,36.96314251953125,48.43251573242188,36.422022519531254Q47.25907573242188,35.23413251953125,46.649605732421875,34.66116751953125Q45.280115732421876,33.37492151953125,43.44779573242187,33.36588951953125Q41.61859573242187,33.35687351953125,40.23431573242188,34.62393551953125Q39.670805732421876,35.13881251953125,38.762762732421876,36.08322251953125Q38.35453973242188,36.50604251953125,38.33025673242187,37.00902251953125Q38.30529173242188,37.52613251953125,38.68852553242188,37.91576251953125Q39.083362732421875,38.31537251953125,39.58442873242188,38.30198251953125Q40.07296573242188,38.28892251953125,40.51270573242188,37.87919251953125Q40.77658573242188,37.63375251953125,41.27857573242188,37.12470251953125Q41.548665732421874,36.85081251953125,41.68457573242188,36.71647251953125Q42.51181573242187,35.90057251953125,43.41873573242187,35.89765251953125Q44.325215732421874,35.89472251953125,45.14502573242187,36.70428251953125L47.59586573242187,39.14990251953125Q49.05067573242187,40.58962251953125,50.952975732421876,40.565512519531254ZM55.813175732421875,36.86335251953125Q54.614975732421875,38.09065251953125,53.826475732421876,38.84313251953125L53.82637573242187,38.84327251953125Q52.60567573242187,40.00645251953125,50.96207573242187,39.96555251953125L50.95627573242187,39.96541251953125L50.95047573242188,39.96549251953125Q49.29617573242187,39.98839251953125,48.01790573242187,38.72343251953125L45.568835732421874,36.27957251953125Q44.57073573242187,35.29393251953125,43.416795732421875,35.29765251953125Q42.26490573242187,35.30137251953125,41.263255732421875,36.28929251953125Q41.124155732421876,36.42677251953125,40.85135573242187,36.70341251953125Q40.35846573242188,37.20324251953125,40.104075732421876,37.43984251953125Q39.56138773242188,37.94550251953125,39.115333732421874,37.49405251953125Q38.67090253242188,37.04220251953125,39.194415732421874,36.49996251953125Q40.089855732421874,35.56866251953125,40.639035732421874,35.06688251953125Q41.85047573242188,33.95802351953125,43.44483573242187,33.96588251953125Q45.041285732421876,33.97375151953125,46.23884573242187,35.09851251953125Q46.84002573242188,35.66369251953125,48.005665732421875,36.84368251953125Q48.54176573242188,37.38639251953125,48.812275732421874,37.65600251953125Q49.854875732421874,38.69264251953125,50.99567573242187,38.68730251953125Q52.13517573242187,38.681962519531254,53.18437573242188,37.63735251953125Q53.39307573242188,37.42977251953125,53.80807573242188,37.012212519531246Q54.522275732421875,36.29373251953125,54.88407573242188,35.94157251953125Q55.462175732421876,35.37828251953125,55.913375732421876,35.82795251953125Q56.37497573242187,36.28609251953125,55.813175732421875,36.86335251953125Z" fill-rule="evenodd" fill="#FFFFFF" fill-opacity="1"/></g><g><path d="M1.204571873624325,35.19920677490234C1.5471918736243249,35.41519677490234,1.8319218736243248,35.538846774902346,2.0462518736243247,35.74074677490234C2.672041873624325,36.32923677490234,3.263411873624325,36.95528677490234,3.878251873624325,37.55629677490234C5.012481873624325,38.66441677490234,6.442411873624325,38.669106774902346,7.573521873624324,37.56255677490235C8.412071873624324,36.74242677490234,9.227161873624325,35.900386774902344,10.064151873624326,35.07869677490234C11.971251873624325,33.20366877490235,14.577651873624324,33.19271177490234,16.497251873624325,35.050526774902345C16.946251873624323,35.48562677490234,17.390551873624325,35.925436774902344,17.819251873624324,36.38088677490234C18.225951873624325,36.812866774902346,18.236951873624324,37.36691677490234,17.877151873624324,37.747246774902344C17.507851873624325,38.138526774902346,16.918051873624325,38.138526774902346,16.469051873624323,37.71594677490234C16.013851873624326,37.288666774902346,15.586751873624324,36.830076774902345,15.136151873624325,36.396536774902344C13.998751873624325,35.297816774902344,12.571951873624325,35.30250677490234,11.440851873624325,36.413756774902346C10.589851873624324,37.249536774902346,9.760651873624324,38.105666774902346,8.909581873624324,38.939876774902345C7.077581873624325,40.73351677490234,4.444581873624325,40.75229677490234,2.6016418736243248,38.982136774902344C1.9117118736243248,38.31851677490234,1.2076998736243247,37.66116677490234,0.5944288736243248,36.93024677490234C0.3894833436243248,36.68608677490234,0.3300335736243248,36.188376774902345,0.42233717362432477,35.87065677490234C0.4974318736243248,35.610836774902346,0.8979358736243248,35.44649677490234,1.204571873624325,35.19920677490234Z" fill="#FFFFFF" fill-opacity="1" style="mix-blend-mode:passthrough"/><path d="M0.7317768736243249,35.16532677490235Q0.2164728736243248,35.503476774902346,0.1342478736243248,35.78695677490234L0.1341338736243248,35.78735677490234Q0.04435887362432478,36.09673677490235,0.10017687362432481,36.472156774902345Q0.1608668736243248,36.880356774902346,0.3646094736243248,37.123076774902344Q0.9211288736243248,37.786356774902345,2.1668218736243245,38.98062677490235Q2.318171873624325,39.12572677490235,2.393821873624325,39.198496774902345Q3.8637618736243247,40.610386774902345,5.761761873624325,40.597426774902345Q7.658631873624325,40.58447677490234,9.119571873624325,39.154126774902345Q9.554291873624324,38.72801677490234,10.410851873624324,37.86587677490235Q11.234551873624325,37.03683677490234,11.651151873624325,36.627756774902345Q12.412151873624325,35.88014677490234,13.287451873624326,35.87640677490234Q14.162051873624325,35.87266677490234,14.928151873624325,36.612716774902346Q15.127951873624324,36.80494677490234,15.520651873624324,37.201946774902346Q16.009051873624323,37.695606774902345,16.263451873624327,37.93440677490234Q16.682351873624324,38.32867677490234,17.198351873624325,38.33675677490234Q17.725551873624326,38.34501677490234,18.095051873624325,37.95342677490234Q18.453451873624324,37.57460677490234,18.435451873624324,37.072686774902344Q18.417751873624326,36.57889677490235,18.037651873624323,36.17527677490234Q17.505351873624324,35.60965677490234,16.705851873624326,34.834956774902345Q15.178351873624324,33.356558774902346,13.274751873624325,33.36479877490235Q11.371051873624324,33.37303877490234,9.853991873624325,34.864616774902345Q9.449141873624324,35.262066774902344,8.650901873624324,36.06520677490234Q7.7964918736243245,36.924856774902345,7.3637318736243245,37.348116774902344Q6.603531873624325,38.09179677490234,5.727701873624325,38.089926774902345Q4.851831873624325,38.08805677490234,4.087951873624325,37.34176677490235Q3.8421318736243246,37.10146677490234,3.356411873624325,36.61117677490235Q2.6294818736243246,35.877396774902344,2.2519618736243245,35.52237677490234Q2.083171873624325,35.36337677490234,1.6761718736243247,35.13020677490234Q1.4732618736243248,35.01395677490235,1.3645568736243248,34.945426774902344L1.1831598736243247,34.83107677490234L1.0162438736243247,34.965686774902345Q0.9299628736243248,35.03526677490235,0.7317768736243249,35.16532677490235ZM0.8242488736243248,36.73741677490234Q0.5706888736243247,36.43534677490234,0.7104258736243247,35.95434677490234L0.7105408736243248,35.953956774902345Q0.7308848736243247,35.88356677490234,1.0609628736243248,35.666956774902346Q1.149823873624325,35.60864677490235,1.2206108736243246,35.55958677490234Q1.291563873624325,35.601346774902346,1.3779118736243248,35.650816774902346Q1.7233818736243247,35.84873677490234,1.8405518736243247,35.95911677490234Q2.2107118736243248,36.307216774902344,2.930161873624325,37.033446774902345Q3.419301873624325,37.52719677490234,3.6685418736243247,37.770826774902346Q4.606861873624325,38.68753677490234,5.726411873624325,38.68992677490235Q6.847671873624325,38.69232677490234,7.783311873624325,37.77700677490235Q8.219051873624325,37.350846774902344,9.076461873624325,36.488166774902346Q9.872091873624324,35.68764677490234,10.274321873624325,35.29277677490234Q11.617651873624325,33.971976774902345,13.277351873624324,33.96479277490234Q14.936651873624324,33.95761077490234,16.288651873624325,35.266096774902344Q17.077851873624326,36.03095677490234,17.600751873624326,36.58649677490234Q18.080351873624323,37.095856774902344,17.659151873624324,37.54106677490235Q17.217851873624326,38.00872677490234,16.674651873624324,37.49748677490234Q16.427751873624324,37.265696774902345,15.947251873624325,36.779976774902345Q15.549251873624325,36.377646774902345,15.344151873624325,36.180366774902346Q14.403451873624325,35.271626774902344,13.284851873624325,35.276416774902344Q12.165651873624325,35.28119677490234,11.230651873624325,36.19975677490234Q10.811551873624325,36.611306774902346,9.985241873624325,37.442986774902344Q9.131461873624325,38.30230677490234,8.699581873624325,38.72563677490234Q7.412111873624325,39.986146774902345,5.757671873624325,39.99743677490234Q4.103521873624325,40.008736774902346,2.8094618736243246,38.76577677490234Q2.733831873624325,38.693036774902346,2.5820518736243248,38.54751677490234Q1.3598538736243246,37.37577677490234,0.8242488736243248,36.73741677490234Z" fill-rule="evenodd" fill="#FFFFFF" fill-opacity="1"/></g></g></svg>