<svg xmlns="http://www.w3.org/2000/svg" xmlns:xlink="http://www.w3.org/1999/xlink" fill="none" version="1.1" width="50" height="43" viewBox="0 0 50 43"><g><path d="M43.0237,30.0554Q43.2571,30.038,43.4947,30.038C47.9844,30.0357,51.1139,34.4838,49.5878,38.6985C48.0617,42.9131,42.8063,44.3363,39.3555,41.4693C35.9047,38.6024,36.353,33.1855,40.2283,30.9226L32.6471,21.9906L29.1381,26.3527C30.075,27.3574,30.6481,28.7046,30.6481,30.1854C30.6481,33.293,28.1243,35.8123,25.011,35.8123C21.8976,35.8123,19.3738,33.293,19.3738,30.1854C19.3738,28.5575,20.0664,27.091,21.1736,26.0635L21.1705,26.0598L21.1858,26.0451L17.8214,22.1011L10.451,31.3774C14.0915,34.1713,13.7544,39.7518,9.80381,42.0888C5.85327,44.4257,0.787261,42.0415,0.0799374,37.5124C-0.627386,32.9834,3.47122,29.1731,7.94693,30.1989L16.0407,20.0107L9.43261,12.2626C5.34126,14.3307,0.45272,11.6111,0.0628872,7.04997C-0.326947,2.48889,4.02942,-1.01797,8.41261,0.328463C12.7958,1.6749,14.4231,7.01983,11.5315,10.5729L17.7482,17.8636L22.2228,12.2327C22.1084,11.9188,22.046,11.5799,22.046,11.2264C22.046,9.60002,23.3669,8.28155,24.9963,8.28155C26.6257,8.28155,27.9466,9.60002,27.9466,11.2264C27.9466,11.5396,27.8976,11.8413,27.8069,12.1244L32.5924,17.7637L38.4244,10.514C35.5623,6.91653,37.256,1.5709,41.6701,0.270417C46.0842,-1.03007,50.4146,2.54073,49.9682,7.113C49.5219,11.6853,44.5823,14.3545,40.5028,12.2278L34.3667,19.853L43.0237,30.0554ZM24.2069,14.0647C24.4582,14.1342,24.7229,14.1713,24.9963,14.1713C25.309,14.1713,25.6104,14.1227,25.8932,14.0327L30.8728,19.9003L26.8728,24.8727C26.2899,24.6693,25.6634,24.5586,25.011,24.5586C24.6057,24.5586,24.2104,24.6013,23.8294,24.6824C23.7551,24.6981,23.681,24.7154,23.6072,24.7341L19.5289,19.9524L24.2069,14.0647ZM2.72809,6.49376C2.72809,8.57905,4.42166,10.2695,6.51078,10.2695C8.59894,10.2672,10.2911,8.57809,10.2935,6.49376C10.2935,4.40847,8.5999,2.71801,6.51078,2.71801C4.42166,2.71801,2.72809,4.40847,2.72809,6.49376ZM47.2774,6.49428C47.2774,4.40899,45.5838,2.71853,43.4947,2.71853C41.4066,2.72085,39.7143,4.40996,39.712,6.49428C39.712,8.57957,41.4056,10.27,43.4947,10.27C45.5838,10.27,47.2774,8.57957,47.2774,6.49428ZM22.0607,30.1854C22.0607,31.8119,23.3816,33.1303,25.011,33.1303C26.6403,33.1303,27.9612,31.8118,27.9612,30.1854C27.9612,28.559,26.6403,27.2406,25.011,27.2406C23.3816,27.2406,22.0607,28.559,22.0607,30.1854ZM39.7131,36.5041C39.7131,38.589,41.4061,40.2792,43.4947,40.2794C45.5829,40.2771,47.2751,38.5879,47.2774,36.5036C47.2774,34.419,45.5841,32.7291,43.4952,32.7289C41.4065,32.7289,39.7133,34.4191,39.7131,36.5041ZM2.72915,36.5047C2.72915,38.5895,4.42218,40.2797,6.51078,40.2794C8.59873,40.2771,10.2909,38.5883,10.2935,36.5041C10.2935,34.4196,8.60019,32.7296,6.5113,32.7294C4.42261,32.7294,2.72934,34.4196,2.72915,36.5047Z" fill-rule="evenodd" fill="#FFFFFF" fill-opacity="1" style="mix-blend-mode:passthrough"/></g></svg>