<svg xmlns="http://www.w3.org/2000/svg" xmlns:xlink="http://www.w3.org/1999/xlink" fill="none" version="1.1" width="47" height="44" viewBox="0 0 47 44"><defs><clipPath id="master_svg0_20_38925"><rect x="0" y="0" width="47" height="44" rx="0"/></clipPath></defs><g clip-path="url(#master_svg0_20_38925)"><g><path d="M26.6839447265625,44C26.1712047265625,44,25.6569147265625,43.9969,25.1410647265625,43.9938C24.7701527265625,43.9907,24.3961237265625,43.9891,24.0220947265625,43.9875L24.0220947265625,41.9635L27.7733047265625,41.9635L27.7733047265625,41.496C27.7733047265625,41.3215,27.7717447265625,41.161,27.7686347265625,41.0098C27.7639547265625,40.7153,27.7608347265625,40.4614,27.7764247265625,40.2152C27.8636947265625,38.7676,28.568124726562502,37.8265,29.9317747265625,37.3372C30.586324726562502,37.1035,31.2829547265625,36.8168,32.1245247265625,36.435C32.8460947265625,36.1078,33.4164847265625,35.9551,33.9167547265625,35.9551C34.6787947265625,35.9551,35.3738947265625,36.3213,36.2403947265625,37.1783C36.3260947265625,37.2624,36.4086947265625,37.3637,36.503794726562504,37.4821C36.5551947265625,37.546,36.6097947265625,37.613,36.6689947265625,37.6831L36.9977947265625,38.0695L40.8347947265625,34.2317L40.7318947265625,33.9637C40.7131947265625,33.8905,40.6773947265625,33.7658,40.572894726562495,33.6552C38.6014947265625,31.5579,38.5375947265625,31.1746,39.7126947265625,28.5272C39.8809947265625,28.1486,40.0476947265625,27.7248,40.2393947265625,27.1934C40.8845947265625,25.3968,41.7167947265625,24.8047,43.6633947265625,24.7564C43.8362947265625,24.7518,44.0061947265625,24.7393,44.1853947265625,24.7268C44.2695947265625,24.7206,44.3568947265625,24.7144,44.4503947265625,24.7081L44.8882947265625,24.6801L44.8882947265625,19.2342L44.420794726562505,19.2342C44.299194726562504,19.2342,44.1791947265625,19.2358,44.0607947265625,19.2373C43.948594726562504,19.2389,43.8363947265625,19.2405,43.7256947265625,19.2405C43.5994947265625,19.2405,43.4731947265625,19.2389,43.3469947265625,19.2327C41.7916947265625,19.1657,40.8284947265625,18.4629,40.3173947265625,17.0232C40.0710947265625,16.3282,39.7702947265625,15.6021,39.3744947265625,14.742C38.6684947265625,13.2072,38.8554947265625,12.1009,40.0165947265625,10.9229C40.139694726562496,10.7982,40.3017947265625,10.6845,40.4435947265625,10.5847C40.5152947265625,10.5349,40.582294726562495,10.4881,40.6399947265625,10.4429L41.0622947265625,10.1188L37.0398947265625,6.08315L36.7094947265625,6.39478C36.6409947265625,6.46023,36.564594726562504,6.53346,36.4819947265625,6.61293C36.2855947265625,6.80303,36.0642947265625,7.01806,35.8305947265625,7.21906C35.1853947265625,7.77378,34.535494726562504,8.04334,33.8435147265625,8.04334C33.4429847265625,8.04334,33.0190847265625,7.94829,32.5873947265625,7.76287C32.4268747265625,7.69431,32.2663547265625,7.62419,32.1058347265625,7.55407C31.4730947265625,7.27828,30.8169847265625,6.99313,30.1530847265625,6.74849C28.4294247265625,6.11275,27.8060447265625,5.23082,27.7702047265625,3.37814C27.7670847265625,3.21765,27.7670847265625,3.05716,27.7686447265625,2.87329L27.7702047265625,2.56165L27.7702047265625,2.0942L24.0376921265625,2.0942L24.0376921265625,0.0155818C24.4070457265625,0.0140237,24.7748427265625,0.0109073,25.1441947265625,0.00779092C25.6600347265625,0.00467455,26.1789947265625,0,26.6995247265625,0C27.5769347265625,0,28.2922747265625,0.0124655,28.9499447265625,0.0373964C29.6715047265625,0.0654437,29.7993047265625,0.668461,29.8102147265625,1.02684C29.8195647265625,1.3229,29.8164447265625,1.6283,29.8117647265625,1.92592C29.8055347265625,2.437,29.7977447265625,2.96678,29.8569647265625,3.49345C29.9083947265625,3.95779,30.2855347265625,4.49692,30.7156747265625,4.72286C31.4606147265625,5.11396,32.2959547265625,5.45988,33.1967347265625,5.75437C33.324534726562504,5.79644,33.4694647265625,5.8167,33.6253147265625,5.8167C33.9962247265625,5.8167,34.3561947265625,5.70295,34.5915947265625,5.5113C34.9764947265625,5.19654,35.322494726562496,4.84284,35.6559947265625,4.49848C35.8632947265625,4.28501,36.0767947265625,4.0653,36.2933947265625,3.86274C36.5910947265625,3.58538,36.8746947265625,3.44359,37.1364947265625,3.44359C37.396794726562504,3.44359,37.6725947265625,3.58382,37.9546947265625,3.86274C39.6128947265625,5.49104,41.3474947265625,7.22686,43.111694726562504,9.01877C43.699194726562496,9.61555,43.6929947265625,10.1033,43.0866947265625,10.7546C42.9058947265625,10.9494,42.686194726562505,11.141,42.4523947265625,11.3436C41.8835947265625,11.8375,41.294494726562505,12.3502,41.1588947265625,13.0389C41.0357947265625,13.6684,41.3521947265625,14.287,41.6575947265625,14.8853C41.8180947265625,15.2001,41.9848947265625,15.5273,42.065894726562505,15.8218C42.3199947265625,16.7505,42.8700947265625,17.2008,43.7474947265625,17.2008C43.8362947265625,17.2008,43.9329947265625,17.1961,44.031194726562504,17.1868C44.275794726562495,17.165,44.540794726562495,17.154,44.8383947265625,17.154C45.192194726562505,17.154,45.5428947265625,17.1681,45.9308947265625,17.1868C46.4015947265625,17.2086,46.9656947265625,17.4002,46.976594726562496,18.1902C47.0062947265625,20.6117,47.0062947265625,23.1577,46.9797947265625,25.7599C46.9750947265625,26.1868,46.8565947265625,26.7618,45.8794947265625,26.8132C45.7968947265625,26.8179,45.711194726562496,26.8195,45.6254947265625,26.8195C45.4150947265625,26.8195,45.1983947265625,26.8086,44.969294726562495,26.7976C44.740294726562496,26.7867,44.5017947265625,26.7743,44.2711947265625,26.7743C43.809894726562504,26.7743,43.2191947265625,26.8148,42.7438947265625,27.1264C42.1827947265625,27.4957,41.9552947265625,28.1985,41.7339947265625,28.8778C41.6248947265625,29.216,41.511094726562504,29.565,41.3661947265625,29.8377C41.0669947265625,30.3986,40.8347947265625,31.1341,41.6996947265625,31.8633C42.1905947265625,32.2762,42.6471947265625,32.7686,43.088294726562495,33.2439L43.1162947265625,33.2735C43.6804947265625,33.8812,43.6882947265625,34.3798,43.139694726562496,34.9392C41.381794726562504,36.7311,39.6237947265625,38.4871,37.9172947265625,40.1591C37.6570947265625,40.4146,37.3951947265625,40.5439,37.1411947265625,40.5439C36.8824947265625,40.5439,36.6034947265625,40.4131,36.3151947265625,40.1544C36.1032947265625,39.9643,35.8959947265625,39.7337,35.6762947265625,39.4891C35.1494947265625,38.9032,34.6039947265625,38.2986,33.8824647265625,38.1506C33.7858447265625,38.1303,33.6845447265625,38.121,33.5816847265625,38.121C33.0190847265625,38.121,32.4595947265625,38.4139,31.918814726562502,38.6975C31.6071147265625,38.8611,31.2845147265625,39.0294,30.9915247265625,39.1244C30.129694726562498,39.4018,29.7541147265625,39.9394,29.813334726562502,40.8135C29.8632047265625,41.5521,29.8382647265625,42.3031,29.8039847265625,43.0043C29.7837247265625,43.4282,29.610734726562498,43.9377,28.9031947265625,43.961C28.254864726562502,43.9907,27.5488847265625,44,26.6839447265625,44Z" fill="#FFFFFF" fill-opacity="1" style="mix-blend-mode:passthrough"/></g><g><path d="M4.06603,26.0199125C3.71226,26.0199125,3.35381,25.9731625,3.00004,25.879672499999998C1.20937,25.4059825,0.003123,23.8509125,0.00000608115,22.0091425C-0.00311084,20.1611325,1.19223,18.5998365,2.97666,18.1214735C3.33511,18.0248658,3.69979,17.9765625,4.06135,17.9765625C5.53254,17.9765625,6.8245,18.7618875,7.51801,20.0785525C7.91074,20.8249225,8.42348,20.9776225,9.0718,20.9776225L9.0905,20.9776225C11.6651,20.9667125,14.2147,20.965162499999998,16.1488,20.965162499999998L22.9857,20.9667125L22.9857,23.026632499999998L16.2703,23.0281925C14.2786,23.0281925,11.6557,23.026632499999998,9.02504,23.0172825C8.28789,23.0172825,7.86087,23.2697125,7.53204,23.888312499999998C6.8245,25.2236725,5.52942,26.0199125,4.06603,26.0199125ZM4.03018,20.0396025C2.97199,20.0396025,2.09457,20.9028325,2.07432,21.9623925C2.06496,22.479712499999998,2.26133,22.9736625,2.62601,23.3522925C2.99069,23.7309325,3.47849,23.9459625,3.99589,23.955312499999998L4.03018,23.955312499999998C5.08993,23.955312499999998,5.9689,23.0920825,5.9876,22.030952499999998C5.99696,21.5136325,5.80059,21.0196925,5.43435,20.6410525C5.06811,20.2624125,4.58187,20.0489425,4.06447,20.0395925L4.03018,20.0396025Z" fill="#FFFFFF" fill-opacity="1" style="mix-blend-mode:passthrough"/></g><g><path d="M24.0313720703125,31.4532328125C26.9550420703125,31.1929328125,29.2989620703125,29.9386328125,31.0008020703125,27.7198328125C32.4361420703125,25.8484328125,33.0844620703125,23.7105328125,32.9254920703125,21.3655328125C32.6496520703125,17.298652812500002,29.5140320703125,13.0370128125,24.0360496303125,12.5461928125L24.0360496303125,10.5361328125C26.7571220703125,10.5906690125,29.4797420703125,11.760862812500001,31.5337920703125,13.7631328125C33.748362070312496,15.9212128125,34.9810720703125,18.8116528125,35.0075720703125,21.899932812499998C35.034072070312504,24.9400328125,33.7826520703125,27.9582328125,31.5774320703125,30.1832328125C29.4797420703125,32.2993328125,26.800752070312498,33.467932812499996,24.0313744483325,33.4757328125L24.0313720703125,31.4532328125Z" fill="#FFFFFF" fill-opacity="1" style="mix-blend-mode:passthrough"/></g><g><path d="M19.915574414062498,17.0672275C18.9119744140625,17.0672275,18.0999744140625,17.0313875,17.359714414062502,16.9550375C16.8423044140625,16.9005075,16.2703444140625,16.422137499999998,15.7170944140625,15.9593575C15.5674844140625,15.8347075,15.419424414062501,15.7100475,15.274494414062499,15.5963075C14.8848744140625,15.2893375,14.4438344140625,15.0057475,13.865644414062501,15.0057475C13.5710944140625,15.0057475,13.2594044140625,15.0805475,12.9149844140625,15.233247500000001C12.4458944140625,15.4420375,11.951854414062499,15.5479975,11.4438044140625,15.5479975C10.2172944140625,15.5479975,9.0281944140625,14.920047499999999,8.2614284140625,13.8698375C7.1876504140625,12.3957875,7.2453134140625,10.3857375,8.4032474140625,8.978697499999999C9.1809144140625,8.0344355,10.3170344140625,7.4921875,11.5186044140625,7.4921875C12.0874444140625,7.4921875,12.6438144140625,7.6121675,13.1721344140625,7.8490115C14.8038344140625,8.5797975,15.7591744140625,10.3608075,15.4973544140625,12.1792075C15.4287844140625,12.6591275,15.6906044140625,13.2278675,15.9835944140625,13.5426175C16.907754414062502,14.530507499999999,18.0687744140625,15.030687499999999,19.4355744140625,15.030687499999999C19.6365744140625,15.030687499999999,19.8469744140625,15.0197775,20.0573744140625,14.9979575C20.4205744140625,14.9621175,20.814774414062498,14.9449875,21.2979744140625,14.9449875C21.6345744140625,14.9449875,21.9727744140625,14.9527775,22.329674414062502,14.962127500000001C22.547774414062502,14.9667975,22.7690744140625,14.9730275,22.9950744140625,14.9761475L22.9950744140625,17.0235975C22.547774414062502,17.0282775,22.1020744140625,17.0360675,21.6672744140625,17.0454175C21.0937744140625,17.0547675,20.4968744140625,17.0672275,19.915574414062498,17.0672275ZM11.5186044140625,9.556777499999999C10.493144414062499,9.556777499999999,9.6157244140625,10.3919675,9.5627444140625,11.4188075C9.5081944140625,12.4768175,10.3591144140625,13.4179675,11.4219844140625,13.4740575C11.4547144140625,13.4756175,11.4874344140625,13.4771775,11.5186044140625,13.4771775C12.5456344140625,13.4771775,13.423044414062499,12.641987499999999,13.4760344140625,11.613587500000001C13.5025244140625,11.097827500000001,13.3217444140625,10.5992075,12.9664144140625,10.2065475C12.612644414062501,9.8154375,12.1326444140625,9.5863875,11.6167944140625,9.5598975C11.5825044140625,9.556777499999999,11.551334414062499,9.556777499999999,11.5186044140625,9.556777499999999Z" fill="#FFFFFF" fill-opacity="1" style="mix-blend-mode:passthrough"/></g><g><path d="M11.524758945312499,36.5176009375C10.0660389453125,36.5176009375,8.6758989453125,35.6761809375,7.9839419453125,34.373540937499996C7.1408159453125,32.7857509375,7.4104289453125,30.9377409375,8.674338945312499,29.666270937500002C9.4551289453125,28.8809409375,10.458778945312499,28.4477709375,11.5013789453125,28.4477709375C12.151258945312499,28.4477709375,12.769968945312499,28.6160509375,13.3388089453125,28.9479409375C13.7330989453125,29.1785509375,14.0915389453125,29.2907409375,14.431288945312499,29.2907409375C14.8349289453125,29.2907409375,15.2073989453125,29.1411609375,15.6063689453125,28.8217309375C17.2209289453125,27.5237649375,19.066168945312498,26.8662109375,21.090568945312498,26.8662109375C21.5144689453125,26.8662109375,21.9523689453125,26.8942571375,22.3949689453125,26.9503518375C22.5149689453125,26.9659346375,22.6412689453125,26.9721659375,22.7939689453125,26.9721659375C22.8594689453125,26.9721659375,22.9248689453125,26.9706089375,22.9934689453125,26.9690489375L22.9934689453125,29.0211809375C22.8562689453125,29.0227309375,22.7191689453125,29.024290937499998,22.5820689453125,29.0258509375C22.2999689453125,29.0289709375,22.0209689453125,29.0336409375,21.7419689453125,29.0336409375C21.3290689453125,29.0336409375,20.9923689453125,29.0258509375,20.679168945312497,29.0071509375C20.5762689453125,29.0009209375,20.4749689453125,28.9978009375,20.3752689453125,28.9978009375C19.4915689453125,28.9978009375,18.7466689453125,29.2362109375,18.0983689453125,29.7254809375C17.8551689453125,29.9093409375,17.5871689453125,30.0713909375,17.301968945312503,30.2038409375C16.337278945312498,30.6557109375,15.4473989453125,31.3054809375,15.4598689453125,32.9867609375C15.4707789453125,34.6103809375,14.065048945312501,36.1000109375,12.1902189453125,36.4537209375C11.9720389453125,36.4957809375,11.7491789453125,36.5176009375,11.524758945312499,36.5176009375ZM11.499828945312501,30.5248209375C10.9824189453125,30.5279409375,10.4946189453125,30.7367409375,10.1268189453125,31.1107009375C9.7574689453125,31.4862209375,9.5564289453125,31.9801709375,9.5610989453125,32.500600937499996C9.5720089453125,33.5695109375,10.4478689453125,34.4389809375,11.515408945312501,34.4405409375L11.5356689453125,34.4405409375C12.595418945312499,34.4296309375,13.4837389453125,33.5243209375,13.4759489453125,32.4663209375C13.4681589453125,31.4145409375,12.5689289453125,30.5263809375,11.5122889453125,30.5263809375L11.5107289453125,30.5263809375L11.499828945312501,30.5263809375L11.499828945312501,30.5248209375Z" fill="#FFFFFF" fill-opacity="1" style="mix-blend-mode:passthrough"/></g></g></svg>