<svg xmlns="http://www.w3.org/2000/svg" xmlns:xlink="http://www.w3.org/1999/xlink" fill="none" version="1.1" width="43" height="43" viewBox="0 0 43 43"><defs><clipPath id="master_svg0_27_05728"><rect x="0" y="0" width="43" height="43" rx="0"/></clipPath></defs><g clip-path="url(#master_svg0_27_05728)"><g><path d="M21.5058,43C16.546,43,11.5309,42.9931,6.59996,42.9781C3.88897,42.97,1.40967,41.2005,0.42993,38.5743C-0.532515,35.9943,0.154452,33.1158,2.18193,31.2413C2.28912,31.1421,2.39632,31.043,2.51504,30.9346L3.20546,30.3006L2.696,29.8787C0.894441,28.3892,0.0161368,26.6173,0.0115263,24.4627C0.00691578,22.3185,0.882914,20.5074,2.61532,19.0791L3.07522,18.6998L2.68102,18.2525C2.59342,18.1534,2.50812,18.0554,2.42398,17.9574C2.24302,17.7487,2.05629,17.5332,1.8638,17.3268C-0.216694,15.095,-0.585536,11.7991,0.945156,9.12568C2.04592,7.20279,3.19048,5.25914,4.29585,3.3789L5.07618,2.05201C5.88648,0.670938,7.06216,0,8.66893,0C13.0086,0.00115281,17.3459,0.00115281,21.6844,0.00115281C25.8973,0.00115281,30.109,0.00115281,34.3207,0C35.9286,0,37.1043,0.672091,37.9158,2.05316C38.3053,2.71603,38.6972,3.3766,39.0903,4.03716C40.0746,5.69491,41.0936,7.40914,42.0341,9.12222C43.7861,12.3132,43.1233,15.7567,40.3017,18.1061L39.7692,18.5499L40.3017,18.9926C42.0399,20.4371,42.9873,22.3877,42.9723,24.4846C42.9574,26.5493,41.9868,28.5114,40.3086,29.8648L39.7968,30.2787L40.4435,30.8931C40.5668,31.0107,40.6878,31.126,40.8112,31.2413C42.8421,33.1331,43.5152,36.037,42.5263,38.6389C41.5431,41.227,39.073,42.9712,36.3816,42.9781C31.4322,42.9931,26.4275,43,21.5058,43ZM12.8311,31.2574C10.7563,31.2574,8.68276,31.2586,6.60803,31.2632C5.26521,31.2655,3.96389,31.8673,3.03833,32.9117C2.1047,33.9642,1.66094,35.3407,1.82,36.6872C2.14504,39.4355,4.23707,41.212,7.14976,41.2131C11.0514,41.2154,14.9542,41.2154,18.857,41.2154C24.5141,41.2154,30.1712,41.2143,35.8283,41.212C36.1834,41.212,36.5338,41.1878,36.868,41.1417C39.4649,40.7785,41.3644,38.5086,41.1927,35.9724C41.0083,33.2437,38.9013,31.2609,36.1834,31.2597C34.2804,31.2586,32.3774,31.2586,30.4755,31.2586L21.5692,31.2597C20.1134,31.2597,18.6565,31.2586,17.2007,31.2586C15.7438,31.2586,14.288,31.2574,12.8311,31.2574ZM30.0525,29.3956C32.1157,29.3956,34.1778,29.3956,36.241,29.3933C39.0165,29.391,41.1961,27.2191,41.2042,24.4489C41.2077,23.122,40.6982,21.877,39.7692,20.9443C38.8379,20.0094,37.5884,19.493,36.2525,19.4918C31.3527,19.4872,26.4517,19.4849,21.5519,19.4849C16.6175,19.4849,11.6842,19.4872,6.7498,19.4906C3.97081,19.493,1.79118,21.6649,1.78773,24.4339C1.78542,25.7758,2.30295,27.0266,3.2435,27.9546C4.18289,28.8803,5.44848,29.391,6.80743,29.3922C8.84067,29.3933,10.8751,29.3933,12.9095,29.3933L21.4896,29.3922L30.0525,29.3956ZM12.9037,7.67429C10.512,7.67429,8.55366,7.67775,6.74404,7.68582C4.01461,7.6985,1.79119,9.93035,1.78658,12.6625C1.78197,15.4039,3.97081,17.6404,6.66681,17.6461C11.3523,17.6577,16.1772,17.6634,21.0078,17.6634C25.9941,17.6634,31.1441,17.6577,36.3124,17.645C38.1659,17.6404,39.6389,16.7481,40.5749,15.0627C41.4336,13.5156,41.414,11.6803,40.523,10.154C39.6297,8.62305,38.0345,7.70195,36.2571,7.68927C34.5097,7.67659,32.6286,7.67083,30.3372,7.67083C28.8803,7.67083,27.4245,7.67313,25.9676,7.67544C24.5118,7.67775,23.056,7.68005,21.6003,7.68005L21.5703,7.68005C20.1261,7.68005,18.683,7.6789,17.2387,7.67775C15.7922,7.67544,14.3479,7.67429,12.9037,7.67429ZM8.90406,1.77764C8.35311,1.77764,7.42985,1.77764,6.88581,2.58231C6.52043,3.12182,6.19884,3.67287,5.85882,4.25735C5.71359,4.50635,5.56605,4.75882,5.4116,5.01705L4.88945,5.88973L38.0725,5.88973L37.57,5.02397C37.4466,4.8107,37.3233,4.6055,37.2034,4.40375C36.9475,3.97375,36.7043,3.56796,36.4923,3.15525C36.0208,2.23761,35.2555,1.77188,34.2181,1.77188C34.1893,1.77188,34.1593,1.77188,34.1294,1.77303C33.6937,1.7834,33.2234,1.78802,32.6517,1.78802C32.2805,1.78802,31.9106,1.78571,31.5394,1.78456C31.1671,1.78225,30.7937,1.77995,30.4214,1.77995L21.4159,1.77995C17.2491,1.77995,13.0823,1.77995,8.91559,1.77764L8.90406,1.77764Z" fill="#FFFFFF" fill-opacity="1" style="mix-blend-mode:passthrough"/></g><g><path d="M7.98201859375,37.1014865625C7.56014859375,37.1014865625,7.21320859375,37.0991865625,6.88932059375,37.0934165625C6.51932659375,37.0876565625,5.90036491375,36.9631465625,5.90382266395,36.2080585625C5.90612797375,35.6581675625,6.27842759375,35.3273062625,6.8996945937500005,35.3226975325C7.79758859375,35.3169348625,8.73352859375,35.3134765625,9.68098859375,35.3134765625C10.59617859375,35.3134765625,11.55631859375,35.3157809225,12.533748593750001,35.3215471125C13.14924859375,35.3250054625,13.55382859375,35.6685455625,13.565348593749999,36.1976875625C13.56995859375,36.4294065625,13.49503859375,36.6322965625,13.34750859375,36.7856265625C13.15962859375,36.9804465625,12.86339859375,37.0899665625,12.51414859375,37.0934265625C12.15107859375,37.0980365625,11.78799859375,37.0991865625,11.42491859375,37.0991865625C11.13560859375,37.0991865625,10.84629859375,37.0980365625,10.55583859375,37.0968865625C10.271138593749999,37.0957265625,9.985288593749999,37.0945765625,9.70058859375,37.0945765625L9.68790859375,37.0945765625C9.40320859375,37.0945765625,9.11735859375,37.0957365625,8.83265859375,37.0968865625C8.54910859375,37.1003365625,8.26555859375,37.1014865625,7.98201859375,37.1014865625Z" fill="#FFFFFF" fill-opacity="1" style="mix-blend-mode:passthrough"/></g><g><path d="M36.2019676875,37.0933425C35.7144036875,37.0910325,35.3248180175,36.7117625,35.3155950125,36.2287275C35.3109835075,35.9935525,35.4031959875,35.7676015,35.5760906875,35.5923755C35.7478306875,35.4171485,35.9725956875,35.3203125,36.2077326875,35.3203125C36.4486296875,35.32146644,36.6687796875,35.4136902,36.8313096875,35.5808495C36.9995896875,35.7537725,37.0894896875,35.9889475,37.083729687499996,36.2402605C37.0722096875,36.7336625,36.7033696875,37.0921925,36.2077326875,37.0921925L36.2019676875,37.0921925L36.2019676875,37.0933425Z" fill="#FFFFFF" fill-opacity="1" style="mix-blend-mode:passthrough"/></g><g><path d="M9.66582515625,13.5817459375C8.74718515625,13.5817459375,7.84006515625,13.5782859375,6.96867515625,13.5713659375C6.65054915625,13.5690659375,5.90825521625,13.4768359375,5.90479746765,12.6744769375C5.90133971625,11.8732709375,6.64017515625,11.7729752375,6.95830515625,11.7660586675C7.27181515625,11.7602942375,7.60838515625,11.7568359375,8.01641515625,11.7568359375C8.29650515625,11.7568359375,8.57544515625,11.7579889975,8.85552515625,11.7591411775C9.13677515625,11.7602942375,9.41801515625,11.7614464275,9.69925515625,11.7614464275C9.978195156249999,11.7614464275,10.25712515625,11.7602933575,10.534915156250001,11.7591411775C10.81730515625,11.7579881175,11.09969515625,11.7568359375,11.38324515625,11.7568359375C11.73710515625,11.7568359375,12.08980515625,11.7579889975,12.44251515625,11.7637525475C12.82749515625,11.7683639375,13.14792515625,11.8836449375,13.34387515625,12.0865409375C13.493715156250001,12.2410179375,13.566325156249999,12.4416079375,13.56171515625,12.6813929375C13.55018515625,13.2243659375,13.12948515625,13.5644459375,12.46210515625,13.5690559375C11.50542515625,13.5782859375,10.56487515625,13.5817459375,9.66582515625,13.5817459375Z" fill="#FFFFFF" fill-opacity="1" style="mix-blend-mode:passthrough"/></g><g><path d="M36.19601196875,13.570231249999999C35.96087396875,13.56562125,35.73726396875,13.46302125,35.56667696875,13.28202125C35.39839386875,13.10334125,35.30733515875,12.86816125,35.31655464475,12.63529525C35.33499716875,12.16610025,35.74187496875,11.76953125,36.20523096875,11.76953125L36.21906196875,11.76953125C36.45188796875,11.77298955,36.66973796875,11.86982625,36.83225796875,12.04044225C37.00284796875,12.21912925,37.09160796875,12.45660925,37.08353796875,12.70792225C37.068547968749996,13.17481125,36.66973796875,13.570231249999999,36.21214696875,13.570231249999999L36.19601196875,13.570231249999999Z" fill="#FFFFFF" fill-opacity="1" style="mix-blend-mode:passthrough"/></g><g><path d="M9.68897515625,25.3425240625C8.73229515625,25.3425240625,7.78367515625,25.3390640625,6.86733715625,25.3321540625C6.55958515625,25.3298440625,6.30715915625,25.2364640625,6.13657015625,25.0623940625C5.98211795625,24.9044540625,5.90143381625,24.6842740625,5.90489200125,24.4260400625C5.91180793625,23.8899810625,6.25874915625,23.5764156625,6.85581115625,23.5648867925C7.18776515625,23.5579701825,7.54393515625,23.5556640625,7.97731515625,23.5556640625C8.26547515625,23.5556640625,8.55363515625,23.5568162425,8.84179515625,23.5579701825C9.13110515625,23.5591223625,9.42156515625,23.5602763125,9.710875156250001,23.5602763125L9.73277515625,23.5602763125C10.01632515625,23.5602763125,10.29986515625,23.5591241225,10.58226515625,23.5579701825C10.87387515625,23.5568180025,11.16549515625,23.5556640625,11.45710515625,23.5556640625C11.87551515625,23.5556640625,12.22130515625,23.5579701825,12.54403515625,23.5625806725C13.159545156250001,23.5718033625,13.559505156250001,23.9153420625,13.56296515625,24.4387210625C13.56642515625,24.9609440625,13.15723515625,25.3286940625,12.56709515625,25.3333040625C11.588505156250001,25.3390640625,10.62029515625,25.3425240625,9.68897515625,25.3425240625Z" fill="#FFFFFF" fill-opacity="1" style="mix-blend-mode:passthrough"/></g><g><path d="M36.20649325,25.33438C35.97020525,25.33438,35.74544125,25.23639,35.57370025,25.06001C35.40196005,24.88363,35.31090129,24.65652,35.316663031,24.420195C35.32819005,23.939471,35.72008325,23.5625,36.20879725,23.5625C36.70788625,23.5625,37.07557625,23.923332,37.08479625,24.420195C37.08940625,24.67151,36.99834625,24.90438,36.82891625,25.07615C36.66523625,25.24215,36.44508625,25.33438,36.20879725,25.33438L36.20649325,25.33438Z" fill="#FFFFFF" fill-opacity="1" style="mix-blend-mode:passthrough"/></g></g></svg>