<svg xmlns="http://www.w3.org/2000/svg" xmlns:xlink="http://www.w3.org/1999/xlink" fill="none" version="1.1" width="50" height="50" viewBox="0 0 50 50"><defs><clipPath id="master_svg0_27_05644"><rect x="0" y="0" width="50" height="50" rx="0"/></clipPath></defs><g clip-path="url(#master_svg0_27_05644)"><g><path d="M24.97566875,37.855509375C17.868548750000002,37.843809375,12.09896436,32.066109374999996,12.10547669915,24.969109375000002C12.11329071,17.853989375,17.92193875,12.077556175,25.04596875,12.0996729003C32.15186875,12.121789675,37.90706875,17.908629375,37.88886875,25.012109375C37.87196875,32.111609375,32.08406875,37.867309375000005,24.97566875,37.855509375ZM25.80136875,36.241009375000004C31.92526875,35.871509375,36.637268750000004,30.512709375,36.31426875,24.347309375000002C35.98866875,18.135009375,30.63456875,13.352539375,24.36226875,13.672579375C18.156378750000002,13.988719375,13.32972875,19.341039375,13.69308875,25.617009375000002C14.07989875,32.300309375,19.69579875,36.113509375,24.19556875,36.211109375C24.19556875,33.614309375000005,24.19556875,31.018809375,24.19556875,28.427209375C22.12086875,27.552909375,21.17791875,26.098409375,21.53086875,24.329109375C21.87469875,22.607809375000002,23.29036875,21.439539375000003,25.022568749999998,21.448649375000002C26.72866875,21.457759375000002,28.12356875,22.626009375000002,28.46476875,24.330409375000002C28.81776875,26.098409375,27.866968749999998,27.564609375,25.80136875,28.425909375C25.80136875,31.020109375,25.80136875,33.615609375,25.80136875,36.241009375000004ZM26.94876875,25.004309375C26.96186875,23.929609375,26.09706875,23.041109374999998,25.02516875,23.026809375C23.949368749999998,23.012409375,23.05986875,23.877609375,23.04556875,24.948309375C23.03246875,26.023009375,23.89596875,26.911509375,24.96916875,26.925909375C26.04626875,26.940209375000002,26.93576875,26.076309375,26.94876875,25.004309375Z" fill="#FFFFFF" fill-opacity="1" style="mix-blend-mode:passthrough"/></g><g><path d="M10.1404296875,38.7859584375C11.5171296875,37.405598437500004,12.8794296875,36.0382484375,14.2430296875,34.6708984375C14.5764296875,35.0247704375,14.9098296875,35.3773404375,15.2302296875,35.7168984375C13.9004296875,37.0387184375,12.5225296875,38.4073684375,11.1316296875,39.7890284375C12.3949296875,41.5648884375,12.8169296875,43.4045084375,12.2542296875,45.4144984375C11.8388296875,46.895098437499996,10.9766296875,48.0672984375,9.6924496875,48.9180984375C7.1358696875,50.6119984375,3.7288196875,50.1904984375,1.6423896875,47.9306984375C-0.4349193125,45.681298437500004,-0.5443203125,42.2596284375,1.3493496875,39.8345584375C2.9812396875,37.7438584375,6.5862596875,36.3296684375,10.1404296875,38.7859584375ZM6.2346096875,39.0279484375C3.6545796875,39.0331484375,1.5551296875,41.1420684375,1.5590396875,43.7206484375C1.5642496875,46.2952984375,3.6767196875,48.3963984375,6.2567496875,48.3911984375C8.8367796875,48.3859984375,10.9362296875,46.2770984375,10.9310296875,43.6972284375C10.9271296875,41.1212584375,8.8172496875,39.0227384375,6.2346096875,39.0279484375Z" fill="#FFFFFF" fill-opacity="1" style="mix-blend-mode:passthrough"/></g><g><path d="M39.9090934375,11.1820765625C39.2071034375,11.8858765625,38.5181434375,12.5727765625,37.8317734375,13.2636765625C37.1558434375,13.9440765625,36.4825034375,14.6270765625,35.8287034375,15.2892765625C35.4575234375,14.9080765625,35.1110874375,14.5516765625,34.7490234375,14.1795765625C36.0683434375,12.8668765625,37.444973437499996,11.4968765625,38.8333134375,10.1152765625C37.648143437499996,8.4525565625,37.2118434375,6.6936065625,37.6846034375,4.7577265625C38.0544834375,3.2459565625,38.8802034375,2.0334265625,40.1578434375,1.1396465625C42.7456834375,-0.6700464375,46.2269234375,-0.2875524375,48.3642234375,2.0373365625C50.4845234375,4.3440065625,50.5509234375,7.8553965625,48.5074234375,10.2830765625C46.6359234375,12.5077765625,43.0517534375,13.4197765625,39.9090934375,11.1820765625ZM43.811043437500004,1.5637665625C41.2245034375,1.5364465625,39.0885834375,3.6154465625,39.0638434375,6.1836165625C39.0377934375,8.7686965625,41.1164034375,10.8997765625,43.6886234375,10.9270765625C46.2751234375,10.9543765625,48.4098234375,8.8779865625,48.4358234375,6.3072165625C48.4632234375,3.7208265625,46.3845234375,1.5910865625,43.811043437500004,1.5637665625Z" fill="#FFFFFF" fill-opacity="1" style="mix-blend-mode:passthrough"/></g><g><path d="M33.498725625,40.944962187499996C32.882695625,39.8963621875,32.282291625,38.8750721875,31.657144525,37.8121581875C32.093445625,37.5506561875,32.516721625,37.2969631875,32.992095625,37.0107421875C33.473975625,37.8277691875,33.950655625,38.6330921875,34.426025625,39.4397121875C34.829765625,40.1227321875,34.829765625,40.1227321875,35.594265625,39.9405921875C38.360535625,39.2809921875,41.113785625,41.0464421875,41.745415625,43.8826221875C42.344515625,46.575692187499996,40.532925625000004,49.4600421875,37.810935625,49.8945421875C35.549985625,50.2562421875,33.587285625,49.7501421875,32.222382625,47.292542187500004C31.094513625,45.2616821875,31.549048025,42.8001921875,33.253875625,41.1791421875C33.322895625,41.1127921875,33.393225625,41.0464421875,33.498725625,40.944962187499996ZM36.707805625,48.3905421875C38.639245625,48.3944421875,40.222955625,46.8267821875,40.232075625,44.9013021875C40.241185625,42.9693121875,38.678325625,41.383402187499996,36.752085625,41.3690921875C34.798505625,41.3547821875,33.201775625,42.9341921875,33.203085625,44.8817821875C33.204385625,46.8098621875,34.778975625,48.3866421875,36.707805625,48.3905421875Z" fill="#FFFFFF" fill-opacity="1" style="mix-blend-mode:passthrough"/></g><g><path d="M18.34374453125,12.1516140625C17.877484531249998,12.4261140625,17.45942453125,12.6720140625,17.002284531249998,12.9413140625C16.46569453125,12.0319140625,15.92520453125,11.1485140625,15.421184531249999,10.2443140625C15.23363453125,9.9073940625,15.07214453125,9.8241240625,14.66579453125,9.9334140625C12.585884531249999,10.4928140625,10.77295453125,9.9581240625,9.39503453125,8.3175640625C8.01710553125,6.6744040625,7.78658253125,4.7775540625,8.734721531249999,2.8507640625C9.68286453125,0.9239890625,11.32777453125,-0.050458837500000006,13.470204531250001,0.028902122500000002C15.57226453125,0.1069620625,17.119494531249998,1.1789840625,17.93609453125,3.1200740625C18.760544531249998,5.0806840625,18.38804453125,6.9033840625,16.99837453125,8.5114140625C16.851204531249998,8.6818440625,16.66366453125,8.8171540625,16.48263453125,8.9797740625C17.11298453125,10.0544140625,17.718594531249998,11.0874140625,18.34374453125,12.1516140625ZM13.291774531249999,8.5855740625C15.22061453125,8.5790640625,16.79259453125,7.0009540625,16.79129453125,5.0715740625C16.789994531250002,3.1421940625,15.21670453125,1.5679840625,13.28656453125,1.5640840625C11.335594531249999,1.5601740625,9.751884531249999,3.1499940625,9.76230453125,5.1014940625C9.77402453125,7.0243740625,11.36033453125,8.5920740625,13.291774531249999,8.5855740625Z" fill="#FFFFFF" fill-opacity="1" style="mix-blend-mode:passthrough"/></g><g><path d="M11.3840234375,20.069157812500002C11.2342234375,20.5752478125,11.0936234375,21.0488178125,10.9425234375,21.5588078125C9.8849934375,21.2582778125,8.8561034375,20.9798578125,7.8363334375,20.667617812499998C7.5120434375,20.5687478125,7.3349134375,20.5934578125,7.1265334375,20.9044078125C6.0546634375,22.5059278125,4.0476834375,23.070567812500002,2.3090034375,22.2938678125C0.5963584375,21.5288778125,-0.3218255625,19.6710578125,0.1014504375,17.8249378125C0.5143074375,16.0230578125,2.2061134375,14.7571804125,4.0932734375,14.8365414125C6.0950434375,14.9211065125,7.7490734375,16.5837878125,7.7920534375,18.5938278125C7.7998734375,18.9594078125,7.9170834375,19.0908078125,8.2557034375,19.1805778125C9.2898034375,19.4511878125,10.3122234375,19.7608278125,11.3840234375,20.069157812500002ZM3.9148434375,21.0722378125C5.2133234375,21.0644278125,6.2617434375,19.9937078125,6.2435134375,18.6940078125C6.2265834375,17.4216278125,5.1651334375,16.3860378125,3.8861934375,16.3925378125C2.5903134375,16.3990478125,1.5431934375,17.4697678125,1.5575234375,18.7707678125C1.5718434375,20.039237812499998,2.6372034375,21.0800378125,3.9148434375,21.0722378125Z" fill="#FFFFFF" fill-opacity="1" style="mix-blend-mode:passthrough"/></g><g><path d="M38.73046875,29.527764375C38.86852175,29.017774375000002,38.99615675,28.553314375,39.13811675,28.030314375C40.03154875,28.285314375,40.90024875,28.533804375,41.77023875,28.780994375C41.91089875,28.821324375,42.06067875,28.840844375,42.19091875,28.900684375C42.49436875,29.038594375,42.66367875,28.961834375,42.85773875,28.671714375C44.25519875,26.584908375,47.16082875,26.331211375,48.90476875,28.125294375C50.106868750000004,29.362544375,50.34516875,31.269804375,49.48426875,32.765954375C48.61168875,34.284224375,46.839138750000004,35.037504375,45.13821875,34.614674375C43.46985875,34.198354375,42.23258875,32.686594375,42.20263875,30.975784375C42.19612875,30.615404375,42.08932875,30.474894374999998,41.74419875,30.385124375C40.74135875,30.124924375,39.75023875,29.821794375,38.73046875,29.527764375ZM48.43716875,30.820954375C48.43325875,29.547284375,47.38483875,28.497374375,46.10849875,28.490864375C44.81001875,28.483064375,43.74596875,29.543374375,43.75117875,30.840474375C43.75507875,32.116754375,44.80349875,33.165354375,46.07853875,33.171864375C47.37832875,33.177064375,48.44107875,32.118054375,48.43716875,30.820954375Z" fill="#FFFFFF" fill-opacity="1" style="mix-blend-mode:passthrough"/></g><g><path d="M24.95679765625,16.0380859375C28.77349765625,16.2412739375,31.63159765625,17.8946359375,33.15059765625,21.305865937500002C34.65769765625,24.6892359375,34.02939765625,27.854285937500002,31.567197656250002,30.6617859375C31.51829765625,30.7163859375,31.46579765625,30.7685859375,31.413397656249998,30.819685937499997C31.041297656250002,31.1842859375,30.62759765625,31.2306859375,30.312797656249998,30.9450859375C29.99089765625,30.6524859375,29.99919765625,30.2484859375,30.36649765625,29.8710859375C31.28939765625,28.9271859375,31.92369765625,27.8310859375,32.25869765625,26.5666859375C33.337797656250004,22.4948059375,30.652597656250002,18.4078359375,26.34949765625,17.5799859375C22.20128765625,16.7823339375,18.07576765625,19.6838559375,17.54516765625,23.7754659375C17.24469765625,26.0894859375,17.91956765625,28.101585937499998,19.54234765625,29.8130859375C19.95013765625,30.2426859375,19.98113765625,30.6489859375,19.63296765625,30.9520859375C19.31937765625,31.2237859375,18.91159765625,31.1912859375,18.56581765625,30.8359859375C16.72245165625,28.9445859375,15.84965365625,26.6850859375,16.07142985625,24.0912859375C16.41721065625,20.0484259375,19.32772765625,16.9657839375,23.431787656250002,16.2052819375C23.942107656250002,16.1123944375,24.46674765625,16.0903338375,24.95679765625,16.0380859375Z" fill="#FFFFFF" fill-opacity="1" style="mix-blend-mode:passthrough"/></g></g></svg>