<svg xmlns="http://www.w3.org/2000/svg" xmlns:xlink="http://www.w3.org/1999/xlink" fill="none" version="1.1" width="50" height="50" viewBox="0 0 50 50"><defs><clipPath id="master_svg0_27_05620"><rect x="0" y="0" width="50" height="50" rx="0"/></clipPath></defs><g clip-path="url(#master_svg0_27_05620)"><g><path d="M26.107146875,9.6231134375C27.881646875,9.6231134375,29.571246875,9.6216234375,31.260946875,9.6231134375C31.653946875,9.6231134375,31.576546875,9.3328334375,31.578046875,9.1065734375C31.582446875,7.7102834375,31.580946875,6.3154734375,31.580946875,4.9191934375C31.580946875,3.7283234375,31.578046875,2.5374534375,31.582446875,1.3465934375C31.586946875,0.4698154375,31.997846875,-0.0169507625,32.707946875,-0.0005763705C33.385246875,0.0143094375,33.799146875,0.5144734375,33.800546875,1.3406334375C33.803546875,3.8712234375,33.802046875,6.4018134375,33.802046875,8.9324034375C33.802046875,9.1333634375,33.802046875,9.3328334375,33.802046875,9.6052434375C34.887346875,9.6052434375,35.923446875,9.5903634375,36.958046875,9.6082234375C38.713246875,9.6394834375,40.084246875,10.8512234375,40.307546875,12.5883234375C40.376046875,13.1198234375,40.358146875,13.6646234375,40.365646875,14.2035234375C40.374546875,14.8346234375,40.367146875,15.4658234375,40.367146875,16.1862234375C40.621646875,16.1862234375,40.837546875,16.1862234375,41.051946875,16.1862234375C43.619846875,16.1862234375,46.187846875,16.1892234375,48.755746875,16.1848234375C49.267846875,16.1833234375,49.727846875,16.3485234375,49.867846875,16.8412234375C49.963146875,17.1732234375,49.948246875,17.6718234375,49.754646875,17.9175234375C49.543246875,18.1854234375,49.072846875,18.3745234375,48.711146875,18.3804234375C46.180346875,18.4191234375,43.649646875,18.4013234375,41.118946875,18.4013234375C40.900046875,18.4013234375,40.679746875,18.4013234375,40.413246875,18.4013234375C40.413246875,20.2307234375,40.413246875,22.0066234375,40.413246875,23.8837234375C40.618746875,23.8837234375,40.831546875,23.8837234375,41.044446875,23.8837234375C43.594546875,23.8837234375,46.143146875,23.8882234375,48.691746875,23.8807234375C49.147346875,23.8792234375,49.605846875,23.9537234375,49.785946875,24.3854234375C49.921446875,24.7099234375,49.991346875,25.1951234375,49.838046875,25.4676234375C49.672846875,25.7623234375,49.221746875,26.0511234375,48.882346875,26.0675234375C47.545446875,26.1359234375,46.204246875,26.0972234375,44.864346875,26.0987234375C43.398046875,26.0987234375,41.930246875,26.0987234375,40.404346875,26.0987234375C40.389446875,26.3384234375,40.368646875,26.5349234375,40.367146875,26.7299234375C40.364146875,28.1262234375,40.384946875,29.5210234375,40.355246875,30.9158234375C40.344746875,31.4144234375,40.469846875,31.5856234375,40.999846875,31.5797234375C43.585646875,31.5529234375,46.172946875,31.5633234375,48.758746875,31.5707234375C49.526946875,31.5737234375,49.980946875,31.9771234375,49.998846875,32.6291234375C50.018146875,33.3243234375,49.525446875,33.7828234375,48.726046875,33.7843234375C46.195246875,33.7902234375,43.664546875,33.7858234375,41.133746875,33.7858234375C40.911946875,33.7858234375,40.691646875,33.7858234375,40.376046875,33.7858234375C40.376046875,34.1058234375,40.376046875,34.3931234375,40.376046875,34.6819234375C40.376046875,35.3711234375,40.380546875,36.0588234375,40.374546875,36.7480234375C40.358146875,38.8782234375,38.942446875,40.3147234375,36.804746875,40.3519234375C35.825146875,40.3698234375,34.844146875,40.3549234375,33.803546875,40.3549234375C33.803546875,40.6451234375,33.803546875,40.8625234375,33.803546875,41.0813234375C33.803546875,43.6312234375,33.808046875,46.1797234375,33.800546875,48.7296234375C33.797646875,49.7151234375,32.934146875,50.2897234375,32.149646875,49.8416234375C31.713446875,49.5930234375,31.583946875,49.1941234375,31.585446875,48.7103234375C31.594346875,46.1797234375,31.589946875,43.6491234375,31.588446875,41.1185234375C31.588446875,40.8982234375,31.588446875,40.6779234375,31.588446875,40.4070234375C29.751446875,40.4070234375,27.963546875,40.4070234375,26.105646875,40.4070234375C26.105646875,40.6436234375,26.105646875,40.8610234375,26.105646875,41.0783234375C26.105646875,43.6461234375,26.111646875,46.2139234375,26.101146875,48.7817234375C26.098246875,49.7047234375,25.276446875,50.2554234375,24.511246875,49.8654234375C24.042346875,49.6272234375,23.889046875,49.2224234375,23.890546875,48.7118234375C23.897946875,46.1812234375,23.893446875,43.6506234375,23.893446875,41.1200234375C23.893446875,40.8997234375,23.893446875,40.6779234375,23.893446875,40.4070234375C22.080246875,40.4070234375,20.307246875,40.4070234375,18.471746875,40.4070234375C18.459846875,40.6377234375,18.438946875,40.8714234375,18.438946875,41.1066234375C18.436046875,43.6372234375,18.441946875,46.1678234375,18.433046875,48.6984234375C18.430046875,49.4918234375,18.056446875,49.9428234375,17.416246875,49.9845234375C16.679346875,50.0321234375,16.211946875,49.5245234375,16.208946875,48.6478234375C16.203046875,46.1722234375,16.207446875,43.6982234375,16.207446875,41.2227234375C16.207446875,40.9652234375,16.207446875,40.7062234375,16.207446875,40.3623234375C15.748946875,40.3623234375,15.329146875,40.3623234375,14.909346875,40.3623234375C14.331746875,40.3623234375,13.755646875,40.3683234375,13.179546875,40.3608234375C11.122146875,40.3370234375,9.676676875,38.9094234375,9.637966875,36.8463234375C9.620106875,35.8608234375,9.634996875,34.8769234375,9.634996875,33.7932234375C9.386386875,33.7932234375,9.173506875,33.7932234375,8.959136875,33.7932234375C6.371826875,33.7932234375,3.786006875,33.7962234375,1.200176875,33.7902234375C0.573450875,33.7887234375,0.120894875,33.4300234375,0.018176475,32.8926234375C-0.080075825,32.3820234375,0.187884875,31.8506234375,0.679146875,31.6720234375C0.897980875,31.5931234375,1.151056875,31.5841234375,1.389246875,31.5826234375C3.882766875,31.5767234375,6.376286875,31.5797234375,8.869816875,31.5782234375C9.090136875,31.5782234375,9.310466875,31.5782234375,9.581396875,31.5782234375C9.581396875,29.7428234375,9.581396875,27.9550234375,9.581396875,26.0957234375C9.344696875,26.0957234375,9.127356875,26.0957234375,8.910006875,26.0957234375C6.359916875,26.0957234375,3.811306875,26.0987234375,1.262706875,26.0928234375C0.463288875,26.0913234375,-0.027972625,25.6224234375,0.006266875,24.9272234375C0.037528975,24.2871234375,0.512414875,23.8837234375,1.270146875,23.8807234375C3.726456875,23.8763234375,6.182766875,23.8792234375,8.639066875,23.8777234375C8.933826875,23.8777234375,9.230076875,23.8777234375,9.579916875,23.8777234375C9.579916875,22.0661234375,9.579916875,20.2947234375,9.579916875,18.4623234375C9.350656875,18.4504234375,9.116936875,18.4295234375,8.881726875,18.4295234375C6.462636875,18.4266234375,4.043546875,18.4280234375,1.624456875,18.4266234375C1.420506875,18.4266234375,1.213576875,18.4280234375,1.011116875,18.4057234375C0.435003875,18.3432234375,0.043483675,17.9428234375,0.007755585000000001,17.3950234375C-0.027972525,16.8472234375,0.306978875,16.3827234375,0.862252875,16.2488234375C1.057266875,16.2011234375,1.267166875,16.1996234375,1.469626875,16.1996234375C3.963156875,16.1967234375,6.456676875,16.1981234375,8.950206875,16.1981234375C9.149686875,16.1981234375,9.349166875,16.1981234375,9.612666875,16.1981234375C9.612666875,15.2335234375,9.612666875,14.3270234375,9.612666875,13.4205234375C9.614156875,11.0045234375,11.000146875,9.6231034375,13.429646875,9.6186334375C14.321346875,9.6171534375,15.213046875,9.6186334375,16.195546875,9.6186334375C16.195546875,9.3655834375,16.195546875,9.1512234375,16.195546875,8.9353834375C16.195546875,6.3675734375,16.198546875,3.7997734375,16.194046875,1.2319634375C16.192546875,0.7198924375,16.357846875,0.2614094375,16.852046875,0.1199944375C17.185546875,0.0247249375,17.682746875,0.0396108375,17.928346875,0.2316374375C18.196346875,0.4430164375,18.385446875,0.9134084375,18.391346875,1.2751334375C18.430046875,3.8057234375,18.412246875,6.3363134375,18.412246875,8.8669034375C18.412246875,9.0857234375,18.412246875,9.3060334375,18.412246875,9.5710034375C20.243246875,9.5710034375,22.019246875,9.5710034375,23.894946875,9.5710034375C23.894946875,9.3655834375,23.894946875,9.1527134375,23.894946875,8.9398434375C23.894946875,6.3526934375,23.897946875,3.7670234375,23.893446875,1.1798634375C23.893446875,0.6856554375,24.067646875,0.2480124375,24.539546875,0.1199944375C24.874546875,0.0277023375,25.370246875,0.0366338375,25.615846875,0.2286614375C25.885346875,0.4385514375,26.080346875,0.9089434375,26.086346875,1.2691834375C26.125046875,3.7997734375,26.107146875,6.3303634375,26.107146875,8.8609534375C26.107146875,9.0887034375,26.107146875,9.3090134375,26.107146875,9.6231134375ZM38.117746875,24.9897234375C38.117746875,21.1388234375,38.119246875,17.2863234375,38.117746875,13.4353234375C38.117746875,12.2088234375,37.753046875,11.8485234375,36.512946875,11.8485234375C28.828446875,11.8470234375,21.142446875,11.8470234375,13.457946875,11.8485234375C12.241646875,11.8485234375,11.853146875,12.2355234375,11.853146875,13.4517234375C11.851646875,21.1358234375,11.851646875,28.8213234375,11.853146875,36.5054234375C11.853146875,37.7320234375,12.228246875,38.1190234375,13.447446875,38.1190234375C21.151346875,38.1220234375,28.855246875,38.1220234375,36.559146875,38.1190234375C37.757446875,38.1190234375,38.119246875,37.7439234375,38.120746875,36.5441234375C38.119246875,32.6931234375,38.117746875,28.8422234375,38.117746875,24.9897234375Z" fill="#FFFFFF" fill-opacity="1" style="mix-blend-mode:passthrough"/></g><g><path d="M24.4591621475,29.8497903125C24.4591621475,28.9387803125,24.4666059875,28.0277603125,24.4561841645,27.1167523125C24.4517183375,26.7341853125,24.5618806875,26.4171190125,24.9757316875,26.4037223495C25.4253106875,26.3903256125,25.5473846875,26.7133473125,25.5458946875,27.1227083125C25.5384446875,28.9253803125,25.5414246875,30.7280503125,25.5444046875,32.5322203125C25.5444046875,32.9028703125,25.4669946875,33.2259003125,25.0263476875,33.2392903125C24.5514612875,33.2541803125,24.4561864365,32.9237103125,24.4591644175,32.5262603125C24.4636279775,31.634600312499998,24.4591621475,30.7429403125,24.4591621475,29.8497903125Z" fill="#FFFFFF" fill-opacity="1" style="mix-blend-mode:passthrough"/></g><g><path d="M28.35610981375,29.8103171875C28.35610981375,28.8992971875,28.36355364375,27.9897771875,28.35313183375,27.0787631875C28.34866600375,26.6857781875,28.48711134375,26.3955047175,28.90393934375,26.4014580434C29.28355134375,26.4074113775,29.43836734375,26.6887531875,29.43836734375,27.0519681875C29.43985734375,28.8918571875,29.43985734375,30.731747187499998,29.43688734375,32.5701471875C29.43688734375,32.943777187500004,29.31034634375,33.2489371875,28.87267934375,33.2400071875C28.42458964375,33.2310771875,28.35015612375,32.9140071875,28.35313183375,32.5418571875C28.36057564375,31.6323371875,28.35610981375,30.721327187500002,28.35610981375,29.8103171875Z" fill="#FFFFFF" fill-opacity="1" style="mix-blend-mode:passthrough"/></g><g><path d="M32.24768638625,29.79985375C32.24768638625,28.90819375,32.25364007625,28.01653375,32.24470840985,27.12636075C32.24173043625,26.75421475,32.32062980625,26.41928385,32.74936790625,26.402909328C33.20490090625,26.38653485,33.32845890625,26.72741875,33.32845890625,27.12189475C33.32994890625,28.92308375,33.33143890625,30.72426375,33.32696890625,32.52545375C33.32548890625,32.90801375,33.23318590625,33.25634375,32.75234590625,33.24145375C32.29830070625,33.22806375,32.24619853625,32.890153749999996,32.24768638625,32.52842375C32.24917651625,31.61890375,32.24768638625,30.70937375,32.24768638625,29.79985375Z" fill="#FFFFFF" fill-opacity="1" style="mix-blend-mode:passthrough"/></g></g></svg>