<svg xmlns="http://www.w3.org/2000/svg" xmlns:xlink="http://www.w3.org/1999/xlink" fill="none" version="1.1" width="46.938777923583984" height="46" viewBox="0 0 46.938777923583984 46"><defs><clipPath id="master_svg0_20_38919"><rect x="0" y="0" width="46.938777923583984" height="46" rx="0"/></clipPath></defs><g clip-path="url(#master_svg0_20_38919)"><g><path d="M35.8715,46C35.5242,46,35.1756,45.9175,34.8326,45.7553C33.6602,45.1973,32.4063,44.5707,30.9964,43.8407C30.7307,43.7036,30.4777,43.6365,30.2204,43.6365C29.9604,43.6365,29.7003,43.7064,29.4248,43.8477C28.1188,44.5204,26.8199,45.1581,25.7207,45.6937C25.3144,45.8909,24.9096,45.9916,24.5188,45.9916C23.3225,45.9916,22.4847,45.0364,22.4819,43.6687C22.479,42.4925,22.4805,41.3164,22.4805,40.1123L22.4805,37.7474L21.0368,37.7474C19.527,37.7474,18.0173,37.7488,16.5075,37.7488C14.9977,37.7502,13.4894,37.7502,11.981,37.7502C9.87104,37.7502,7.76244,37.7488,5.65244,37.7432C2.75382,37.7362,0.56229,35.9349,0.0702839,33.1546C0.0126489,32.8274,0.00421451,32.4666,0.00421451,32.1281C0,23.6629,-0.00281146,14.6019,0.00281146,5.69895C0.00421719,2.87815,1.64049,0.749605,4.27202,0.144047C4.66562,0.0531436,5.12108,0.00699257,5.62714,0.00699257C12.9482,0.00279703,20.2706,0,27.5931,0C32.1659,0,36.7374,0.00139852,41.3102,0.00279703C44.5504,0.00419555,46.9093,2.31594,46.9191,5.49897C46.9458,14.1782,46.9458,23.2098,46.9177,32.3421C46.9078,35.3461,44.587,37.6662,41.5183,37.7376C41.209,37.7446,40.8801,37.7488,40.4794,37.7488C40.1856,37.7488,39.889,37.7474,39.5896,37.7446C39.2789,37.7432,38.9655,37.7404,38.645,37.7404L37.9421,37.7404L37.9421,39.062C37.9421,39.5528,37.9435,40.0451,37.9435,40.536C37.9463,41.6157,37.9477,42.7317,37.9379,43.8267C37.928,45.0658,37.0382,46,35.8715,46ZM24.4738,44.0519L25.4648,43.6085C25.5281,43.5806,25.5871,43.554,25.6434,43.5302C25.7642,43.4771,25.8795,43.4281,25.9962,43.3694C26.2801,43.2281,26.5669,43.0897,26.8523,42.9498C27.565,42.6016,28.303,42.2422,29.0213,41.8604C29.4332,41.6422,29.8226,41.5359,30.2134,41.5359C30.6056,41.5359,31.002,41.6436,31.4223,41.8646C32.1659,42.2548,32.9293,42.6296,33.6673,42.9918C33.9414,43.126,34.2155,43.2603,34.4896,43.396C34.6063,43.4533,34.7173,43.4981,34.8256,43.54C34.8692,43.5568,34.9127,43.575,34.9577,43.5932L35.9319,43.9987L35.9319,35.8775L34.8874,36.4537C33.3215,37.318,31.7456,37.7557,30.2035,37.7557C28.6586,37.7557,27.0828,37.3166,25.5196,36.4481L24.4738,35.8677L24.4738,44.0519ZM30.4945,20.1037C32.9208,20.1037,35.0533,21.1246,36.833,23.1371C39.2354,25.8558,39.733,28.9815,38.3132,32.4274C37.9604,33.2847,37.9576,34.0651,37.9547,34.8916L37.9491,35.788L38.6562,35.788C38.95,35.788,39.2368,35.7894,39.5193,35.7894C39.7934,35.7908,40.0619,35.7908,40.329,35.7908C40.6608,35.7908,40.9883,35.7894,41.3173,35.7852C43.5285,35.7601,44.9595,34.3196,44.9595,32.1169C44.9637,23.5734,44.9637,14.6662,44.9595,5.64301C44.9581,3.40399,43.4905,1.95652,41.2189,1.95652L23.4617,1.95792L5.70446,1.95792C3.43701,1.95792,1.97224,3.40818,1.97083,5.6528C1.96662,13.9138,1.96802,22.5567,1.97224,32.075C1.97224,32.405,1.9863,32.7938,2.08611,33.1826C2.5022,34.7867,3.85873,35.7852,5.62714,35.7866C7.95785,35.7894,10.2885,35.7908,12.6193,35.7908C14.5015,35.7908,21.384,35.788,21.384,35.788C21.4964,35.788,21.5977,35.7782,21.6876,35.7699C21.7185,35.7671,21.7481,35.7643,21.7776,35.7615L22.3511,35.7209L22.4242,35.1545C22.5774,33.9784,22.5072,33.4175,22.0812,32.426C21.3615,30.745,21.1675,29.0556,21.5063,27.4067C22.2541,23.7566,24.4077,21.4211,27.908,20.4673C28.7936,20.2267,29.6637,20.1037,30.4945,20.1037ZM30.2288,22.0952C26.4292,22.0952,23.3281,25.1621,23.3183,28.9339C23.3084,32.6973,26.3842,35.7699,30.174,35.7852L30.2021,35.7852C34.0046,35.7852,37.1015,32.7211,37.1057,28.9535C37.1099,25.1831,34.0342,22.1064,30.2485,22.0966L30.2288,22.0966L30.2288,22.0952Z" fill="#FFFFFF" fill-opacity="1" style="mix-blend-mode:passthrough"/></g><g><path d="M17.72897703125,10.8997496875C15.53462703125,10.8997496875,12.93261703125,10.8983496875,10.26594703125,10.8843696875C9.93700403125,10.8829696875,9.59822203125,10.8018596875,9.38033303125,10.6745896875C9.04436363125,10.4759996875,8.91925363125,10.1627296875,9.00922033125,9.7431776875C9.10481003125,9.2956526875,9.34659603125,9.0593036875,9.79221303125,8.9753925875C9.96933503125,8.9418279675,10.18581703125,8.9418279675,10.39526703125,8.9418279675C14.346787031249999,8.9404296875,18.29969703125,8.9404296875,22.25125703125,8.9404296875C27.01245703125,8.9404296875,31.77225703125,8.9418279675,36.533457031249995,8.9432267875C36.82025703125,8.9432267875,37.052157031250005,8.9530168875,37.250357031250005,9.0019647875C37.66925703125,9.1054546875,37.97715703125,9.5571756875,37.93775703125,10.0074996875C37.89835703125,10.4578196875,37.51885703125,10.8424096875,37.07325703125,10.8829696875C36.93125703125,10.8955596875,36.77665703125,10.8969596875,36.643057031249995,10.8969596875L23.43625703125,10.8969596875L17.72897703125,10.8997496875Z" fill="#FFFFFF" fill-opacity="1" style="mix-blend-mode:passthrough"/></g><g><path d="M13.351851953125,19.873406875C12.214611953125,19.873406875,11.078781953125,19.865016875,9.976690953125,19.848236875C9.687109953125,19.844036875,9.438294953125,19.741946875,9.255550953125,19.553146875C9.077023353125,19.368546875,8.982839123125,19.116816875,8.989867671125,18.844099875C9.003924753125,18.280497875000002,9.425643953125,17.914087515,10.065251953125,17.908492255C10.498221953125,17.904296875,10.931181953125,17.904296875,11.362741953125,17.904296875C11.698711953125,17.904296875,12.033271953125,17.904296875,12.369241953125,17.905694625C12.705211953125,17.905694625,13.041181953125001,17.907092375,13.378561953125,17.907092375C13.708911953125,17.907092375,14.039251953125,17.907092375,14.368191953124999,17.905694625C14.697131953125,17.905694625,15.026081953125,17.904296875,15.355021953125,17.904296875C15.782361953125001,17.904296875,16.209701953125,17.905694625,16.637041953125,17.909890005C17.254161953125,17.915483175,17.691341953125,18.304272875,17.701181953125,18.855285875C17.705401953124998,19.123796875,17.611221953125,19.372736875,17.432691953125,19.554546875C17.247131953125,19.744746875,16.994101953125,19.846836875,16.698901953125,19.851026875C15.570091953125,19.866416875,14.444101953125,19.873406875,13.351851953125,19.873406875Z" fill="#FFFFFF" fill-opacity="1" style="mix-blend-mode:passthrough"/></g></g></svg>