<svg xmlns="http://www.w3.org/2000/svg" xmlns:xlink="http://www.w3.org/1999/xlink" fill="none" version="1.1" width="37.393768310546875" height="14" viewBox="0 0 37.393768310546875 14"><g><g transform="matrix(0,1,-1,0,11.219684919342399,-11.19453207589686)"><path d="M25.09800849761963,10.014476421722769L21.094238497619628,1.7966664217227697C20.54532849761963,0.7029834217227697,19.42633849761963,0.012576421722769737,18.202638497619628,0.012576421722769737C16.978928497619627,0.012576421722769737,15.859938497619629,0.7029834217227697,15.311028497619628,1.7966664217227697L11.29513109761963,10.038776421722769C11.08763849761963,10.44697642172277,11.260042997619628,10.945776421722769,11.675287497619628,11.13877642172277C11.787894497619629,11.19177642172277,11.910770497619628,11.21937642172277,12.03522749761963,11.21967642172277C12.349278497619629,11.22187642172277,12.63623849761963,11.04217642172277,12.77127849761963,10.75857642172277L16.78312849761963,2.52866642172277C17.04388849761963,1.9836464217227698,17.59441849761963,1.6367664217227698,18.198588497619628,1.6367664217227698C18.802768497619628,1.6367664217227698,19.35329849761963,1.9836464217227698,19.614068497619627,2.52866642172277L23.62190849761963,10.74647642172277C23.72050849761963,10.93657642172277,23.88850849761963,11.08137642172277,24.09100849761963,11.150876421722769C24.40680849761963,11.27447642172277,24.766108497619626,11.18787642172277,24.991008497619628,10.93407642172277C25.21590849761963,10.68027642172277,25.25860849761963,10.313176421722769,25.09800849761963,10.014476421722769Z" fill="#FFFFFF" fill-opacity="1" style="mix-blend-mode:passthrough"/></g><g transform="matrix(0,1,-1,0,19.94004567526281,-19.91489283181727)" style="opacity:0.800000011920929;"><path d="M33.81836925354004,10.014476421722769L29.814599253540038,1.7966664217227697C29.26568925354004,0.7029834217227697,28.14669925354004,0.012576421722769737,26.922999253540038,0.012576421722769737C25.699289253540037,0.012576421722769737,24.58029925354004,0.7029834217227697,24.031389253540038,1.7966664217227697L20.015491853540038,10.038776421722769C19.80799925354004,10.44697642172277,19.98040375354004,10.945776421722769,20.39564825354004,11.13877642172277C20.50825525354004,11.19177642172277,20.63113125354004,11.21937642172277,20.75558825354004,11.21967642172277C21.06963925354004,11.22187642172277,21.35659925354004,11.04217642172277,21.49163925354004,10.75857642172277L25.50348925354004,2.52866642172277C25.76424925354004,1.9836464217227698,26.31477925354004,1.6367664217227698,26.91894925354004,1.6367664217227698C27.523129253540038,1.6367664217227698,28.07365925354004,1.9836464217227698,28.334429253540037,2.52866642172277L32.34226925354004,10.74647642172277C32.44086925354004,10.93657642172277,32.608869253540036,11.08137642172277,32.811369253540036,11.150876421722769C33.12716925354004,11.27447642172277,33.48646925354004,11.18787642172277,33.71136925354004,10.93407642172277C33.93626925354004,10.68027642172277,33.97896925354004,10.313176421722769,33.81836925354004,10.014476421722769Z" fill="#FFFFFF" fill-opacity="1" style="mix-blend-mode:passthrough"/></g><g transform="matrix(0,1,-1,0,28.658296585083008,-28.658296585083008)" style="opacity:0.5;"><path d="M42.54919658508301,10.0019L38.54542658508301,1.78409C37.99651658508301,0.690407,36.877526585083004,0,35.65382658508301,0C34.430116585083006,0,33.31112658508301,0.690407,32.76221658508301,1.78409L28.746319185083006,10.0262C28.538826585083008,10.4344,28.711231085083007,10.9332,29.126475585083007,11.1262C29.239082585083008,11.1792,29.36195858508301,11.2068,29.48641558508301,11.2071C29.800466585083008,11.2093,30.08742658508301,11.0296,30.22246658508301,10.746L34.23431658508301,2.51609C34.495076585083005,1.97107,35.04560658508301,1.62419,35.64977658508301,1.62419C36.25395658508301,1.62419,36.80448658508301,1.97107,37.065256585083006,2.51609L41.07309658508301,10.7339C41.17169658508301,10.924,41.339696585083004,11.0688,41.542196585083005,11.1383C41.85799658508301,11.2619,42.217296585083005,11.1753,42.44219658508301,10.9215C42.66709658508301,10.6677,42.70979658508301,10.3006,42.54919658508301,10.0019Z" fill="#FFFFFF" fill-opacity="1" style="mix-blend-mode:passthrough"/></g><g transform="matrix(0,1,-1,0,37.39377212524414,-37.39377212524414)" style="opacity:0.20000000298023224;"><path d="M51.28467212524414,10.0019L47.28090212524414,1.78409C46.73199212524414,0.690407,45.61300212524414,0,44.38930212524414,0C43.16559212524414,0,42.04660212524414,0.690407,41.49769212524414,1.78409L37.48179472524414,10.0262C37.27430212524414,10.4344,37.44670662524414,10.9332,37.86195112524414,11.1262C37.974558125244144,11.1792,38.09743412524414,11.2068,38.22189112524414,11.2071C38.53594212524414,11.2093,38.82290212524414,11.0296,38.95794212524414,10.746L42.96979212524414,2.51609C43.23055212524414,1.97107,43.78108212524414,1.62419,44.38525212524414,1.62419C44.98943212524414,1.62419,45.539962125244145,1.97107,45.80073212524414,2.51609L49.80857212524414,10.7339C49.907172125244145,10.924,50.07517212524414,11.0688,50.27767212524414,11.1383C50.59347212524414,11.2619,50.95277212524414,11.1753,51.17767212524414,10.9215C51.40257212524414,10.6677,51.445272125244145,10.3006,51.28467212524414,10.0019Z" fill="#FFFFFF" fill-opacity="1" style="mix-blend-mode:passthrough"/></g></g></svg>