<svg xmlns="http://www.w3.org/2000/svg" xmlns:xlink="http://www.w3.org/1999/xlink" fill="none" version="1.1" width="60" height="60" viewBox="0 0 60 60"><g><g><ellipse cx="30" cy="30" rx="5" ry="5" fill="#FFFFFF" fill-opacity="1"/></g><g style="opacity:0.5;"><path d="M52,30Q52,30.5401,51.9735,31.0795Q51.947,31.6189,51.8941,32.156400000000005Q51.8411,32.693799999999996,51.7619,33.2281Q51.6826,33.762299999999996,51.5773,34.292Q51.4719,34.8217,51.3407,35.345600000000005Q51.2095,35.8694,51.0527,36.3863Q50.8959,36.903099999999995,50.714,37.4116Q50.532,37.920100000000005,50.3253,38.419Q50.1187,38.918,49.8878,39.4062Q49.6569,39.894400000000005,49.4023,40.3707Q49.1477,40.847,48.87,41.3103Q48.5924,41.7735,48.2923,42.2225Q47.9923,42.6716,47.6706,43.1054Q47.3488,43.5392,47.0062,43.9567Q46.6636,44.3741,46.3009,44.7743Q45.9382,45.1745,45.5563,45.5563Q45.1745,45.9382,44.7743,46.3009Q44.3741,46.6636,43.9567,47.0062Q43.5392,47.3488,43.1054,47.6706Q42.6716,47.9923,42.2225,48.2923Q41.7735,48.5924,41.3103,48.87Q40.847,49.1477,40.3707,49.4023Q39.894400000000005,49.6569,39.4062,49.8878Q38.918,50.1187,38.419,50.3253Q37.920100000000005,50.532,37.4116,50.714Q36.903099999999995,50.8959,36.3863,51.0527Q35.8694,51.2095,35.345600000000005,51.3407Q34.8217,51.4719,34.292,51.5773Q33.762299999999996,51.6826,33.2281,51.7619Q32.693799999999996,51.8411,32.156400000000005,51.8941Q31.6189,51.947,31.0795,51.9735Q30.5401,52,30,52Q29.4599,52,28.9205,51.9735Q28.3811,51.947,27.8436,51.8941Q27.3062,51.8411,26.7719,51.7619Q26.2377,51.6826,25.708,51.5773Q25.1783,51.4719,24.6544,51.3407Q24.1305,51.2095,23.6137,51.0527Q23.096899999999998,50.8959,22.5884,50.714Q22.079900000000002,50.532,21.581,50.3253Q21.082,50.1187,20.5938,49.8878Q20.105600000000003,49.6569,19.6293,49.4023Q19.153,49.1477,18.689700000000002,48.87Q18.2265,48.5924,17.77745,48.2923Q17.328400000000002,47.9923,16.89461,47.6706Q16.46083,47.3488,16.04335,47.0062Q15.625869999999999,46.6636,15.2257,46.3009Q14.82554,45.9382,14.44365,45.5563Q14.06176,45.1745,13.699069999999999,44.7743Q13.33639,44.3741,12.99377,43.9567Q12.651150000000001,43.5392,12.32943,43.1054Q12.00771,42.6716,11.70767,42.2225Q11.40762,41.7735,11.12997,41.3103Q10.85232,40.847,10.59773,40.3707Q10.34314,39.894400000000005,10.11224,39.4062Q9.88133,38.918,9.67465,38.419Q9.46797,37.920100000000005,9.28603,37.4116Q9.10409,36.903099999999995,8.947312,36.3863Q8.790539,35.8694,8.659312,35.345600000000005Q8.528086,34.8217,8.422724,34.292Q8.317361,33.762299999999996,8.238117,33.2281Q8.158872,32.693799999999996,8.105936,32.156400000000005Q8.0529999,31.6189,8.0265,31.0795Q8,30.5401,8,30Q8,29.4599,8.0265,28.9205Q8.0529999,28.3811,8.105936,27.8436Q8.158872,27.3062,8.238117,26.7719Q8.317361,26.2377,8.422724,25.708Q8.528086,25.1783,8.659312,24.6544Q8.790539,24.1305,8.947312,23.6137Q9.10409,23.096899999999998,9.28603,22.5884Q9.46797,22.079900000000002,9.67465,21.581Q9.88133,21.082,10.11223,20.5938Q10.34314,20.105600000000003,10.59773,19.6293Q10.85232,19.153,11.12997,18.689700000000002Q11.40762,18.2265,11.70767,17.77745Q12.00771,17.328400000000002,12.32943,16.89461Q12.651150000000001,16.46083,12.99377,16.04335Q13.33639,15.625869999999999,13.699069999999999,15.2257Q14.06176,14.82554,14.44365,14.44365Q14.82554,14.06176,15.2257,13.699069999999999Q15.625869999999999,13.33639,16.04335,12.99377Q16.46083,12.651150000000001,16.89462,12.32943Q17.328400000000002,12.00771,17.77745,11.70767Q18.2265,11.40762,18.689700000000002,11.12997Q19.153,10.85232,19.6293,10.59773Q20.105600000000003,10.34314,20.5938,10.11224Q21.082,9.88133,21.581,9.67465Q22.079900000000002,9.46797,22.5884,9.28603Q23.096899999999998,9.10409,23.6137,8.947312Q24.1305,8.790539,24.6544,8.659312Q25.1783,8.528086,25.708,8.422724Q26.2377,8.317361,26.7719,8.238117Q27.3062,8.158872,27.8436,8.105936Q28.3811,8.0529999,28.9205,8.0265Q29.4599,8,30,8Q30.5401,8,31.0795,8.0265Q31.6189,8.0529999,32.156400000000005,8.105936Q32.693799999999996,8.158872,33.2281,8.238117Q33.762299999999996,8.317361,34.292,8.422724Q34.8217,8.528086,35.345600000000005,8.659312Q35.8694,8.790539,36.3863,8.947312Q36.903099999999995,9.10409,37.4116,9.28603Q37.920100000000005,9.46797,38.419,9.67465Q38.918,9.88133,39.4062,10.11223Q39.894400000000005,10.34314,40.3707,10.59773Q40.847,10.85232,41.3103,11.12997Q41.7735,11.40762,42.2225,11.70767Q42.6716,12.00771,43.1054,12.32943Q43.5392,12.651150000000001,43.9567,12.99377Q44.3741,13.33639,44.7743,13.699069999999999Q45.1745,14.06176,45.5563,14.44365Q45.9382,14.82554,46.3009,15.2257Q46.6636,15.625869999999999,47.0062,16.04335Q47.3488,16.46083,47.6706,16.89462Q47.9923,17.328400000000002,48.2923,17.77745Q48.5924,18.2265,48.87,18.689700000000002Q49.1477,19.153,49.4023,19.6293Q49.6569,20.105600000000003,49.8878,20.5938Q50.1187,21.082,50.3253,21.581Q50.532,22.079900000000002,50.714,22.5884Q50.8959,23.096899999999998,51.0527,23.6137Q51.2095,24.1305,51.3407,24.6544Q51.4719,25.1783,51.5773,25.708Q51.6826,26.2377,51.7619,26.7719Q51.8411,27.3062,51.8941,27.8436Q51.947,28.3811,51.9735,28.9205Q52,29.4599,52,30ZM49,30Q49,29.5336,48.9771,29.0677Q48.9542,28.6019,48.9085,28.1377Q48.8628,27.6735,48.7943,27.2121Q48.7259,26.7507,48.6349,26.2933Q48.5439,25.8358,48.4306,25.3834Q48.3173,24.9309,48.1819,24.4846Q48.0465,24.0382,47.8893,23.5991Q47.7322,23.1599,47.5537,22.729Q47.3752,22.298099999999998,47.1758,21.8765Q46.9764,21.4548,46.7565,21.0435Q46.5366,20.6321,46.2968,20.232Q46.057,19.832,45.7979,19.444200000000002Q45.5388,19.0563,45.2609,18.6817Q44.9831,18.3071,44.6872,17.94653Q44.3913,17.58598,44.0781,17.240380000000002Q43.7648,16.89478,43.435,16.564970000000002Q43.1052,16.23516,42.7596,15.92193Q42.414,15.608699999999999,42.0535,15.3128Q41.6929,15.0169,41.3183,14.73906Q40.9437,14.461210000000001,40.5558,14.202079999999999Q40.168,13.94295,39.768,13.70316Q39.3679,13.463370000000001,38.9565,13.243500000000001Q38.5452,13.023620000000001,38.1235,12.824200000000001Q37.701899999999995,12.624780000000001,37.271,12.446290000000001Q36.8401,12.267800000000001,36.4009,12.11066Q35.9617,11.95353,35.5154,11.81813Q35.0691,11.682739999999999,34.6166,11.56941Q34.1642,11.45607,33.7067,11.365079999999999Q33.249300000000005,11.27408,32.7879,11.20565Q32.326499999999996,11.13721,31.8623,11.09149Q31.3981,11.045770000000001,30.9323,11.02289Q30.4664,11,30,11Q29.5336,11,29.0677,11.02289Q28.6019,11.045770000000001,28.1377,11.09149Q27.6735,11.13721,27.2121,11.20565Q26.7507,11.274090000000001,26.2933,11.365079999999999Q25.8358,11.45607,25.3834,11.56941Q24.9309,11.682739999999999,24.4846,11.81813Q24.0382,11.95353,23.5991,12.11066Q23.1599,12.267800000000001,22.729,12.446290000000001Q22.298099999999998,12.624780000000001,21.8765,12.824200000000001Q21.4548,13.02363,21.0435,13.243500000000001Q20.6321,13.463370000000001,20.232,13.70316Q19.832,13.94295,19.444200000000002,14.202079999999999Q19.0563,14.461210000000001,18.6817,14.73906Q18.3071,15.0169,17.94653,15.3128Q17.58598,15.608699999999999,17.240380000000002,15.92193Q16.89478,16.23516,16.564970000000002,16.564970000000002Q16.23516,16.89478,15.92193,17.240380000000002Q15.608699999999999,17.58598,15.3128,17.94653Q15.0169,18.3071,14.73906,18.6817Q14.461210000000001,19.0563,14.202079999999999,19.444200000000002Q13.94295,19.832,13.70316,20.232Q13.463370000000001,20.6321,13.243500000000001,21.0435Q13.023620000000001,21.4548,12.824200000000001,21.8765Q12.624780000000001,22.298099999999998,12.446290000000001,22.729Q12.267800000000001,23.1599,12.11066,23.5991Q11.95353,24.0382,11.81813,24.4846Q11.682739999999999,24.9309,11.56941,25.3834Q11.45607,25.8358,11.365079999999999,26.2933Q11.27408,26.7507,11.20565,27.2121Q11.13721,27.6735,11.09149,28.1377Q11.045770000000001,28.6019,11.02289,29.0677Q11,29.5336,11,30Q11,30.4664,11.02289,30.9323Q11.045770000000001,31.3981,11.09149,31.8623Q11.13721,32.326499999999996,11.20565,32.7879Q11.27408,33.249300000000005,11.365079999999999,33.7067Q11.45607,34.1642,11.56941,34.6166Q11.682739999999999,35.0691,11.81813,35.5154Q11.95353,35.9617,12.11066,36.4009Q12.267800000000001,36.8401,12.446290000000001,37.271Q12.624780000000001,37.701899999999995,12.824200000000001,38.1235Q13.023620000000001,38.5452,13.243500000000001,38.9565Q13.463370000000001,39.3679,13.70316,39.768Q13.94295,40.168,14.202079999999999,40.5558Q14.461210000000001,40.9437,14.73906,41.3183Q15.0169,41.6929,15.3128,42.0535Q15.608699999999999,42.414,15.92193,42.7596Q16.23516,43.1052,16.564970000000002,43.435Q16.89478,43.7648,17.240380000000002,44.0781Q17.58598,44.3913,17.94653,44.6872Q18.3071,44.9831,18.6817,45.2609Q19.0563,45.5388,19.444200000000002,45.7979Q19.832,46.057,20.232,46.2968Q20.6321,46.5366,21.0435,46.7565Q21.4548,46.9764,21.8765,47.1758Q22.298099999999998,47.3752,22.729,47.5537Q23.1599,47.7322,23.5991,47.8893Q24.0382,48.0465,24.4846,48.1819Q24.9309,48.3173,25.3834,48.4306Q25.8358,48.5439,26.2933,48.6349Q26.7507,48.7259,27.2121,48.7943Q27.6735,48.8628,28.1377,48.9085Q28.6019,48.9542,29.0677,48.9771Q29.5336,49,30,49Q30.4664,49,30.9323,48.9771Q31.3981,48.9542,31.8623,48.9085Q32.326499999999996,48.8628,32.7879,48.7943Q33.249300000000005,48.7259,33.7067,48.6349Q34.1642,48.5439,34.6166,48.4306Q35.0691,48.3173,35.5154,48.1819Q35.9617,48.0465,36.4009,47.8893Q36.8401,47.7322,37.271,47.5537Q37.701899999999995,47.3752,38.1235,47.1758Q38.5452,46.9764,38.9565,46.7565Q39.3679,46.5366,39.768,46.2968Q40.168,46.057,40.5558,45.7979Q40.9437,45.5388,41.3183,45.2609Q41.6929,44.9831,42.0535,44.6872Q42.414,44.3913,42.7596,44.0781Q43.1052,43.7648,43.435,43.435Q43.7648,43.1052,44.0781,42.7596Q44.3913,42.414,44.6872,42.0535Q44.9831,41.6929,45.2609,41.3183Q45.5388,40.9437,45.7979,40.5558Q46.057,40.168,46.2968,39.768Q46.5366,39.3679,46.7565,38.9565Q46.9764,38.5452,47.1758,38.1235Q47.3752,37.701899999999995,47.5537,37.271Q47.7322,36.8401,47.8893,36.4009Q48.0465,35.9617,48.1819,35.5154Q48.3173,35.0691,48.4306,34.6166Q48.5439,34.1642,48.6349,33.7067Q48.7259,33.249300000000005,48.7943,32.7879Q48.8628,32.326499999999996,48.9085,31.8623Q48.9542,31.3981,48.9771,30.9323Q49,30.4664,49,30Z" fill="#FFFFFF" fill-opacity="1"/></g><g style="opacity:0.20000000298023224;"><path d="M60,30Q60,30.7365,59.9639,31.472Q59.9277,32.2076,59.8555,32.9405Q59.7833,33.6734,59.6753,34.4019Q59.5672,35.1304,59.4235,35.8527Q59.2799,36.575,59.1009,37.2894Q58.922,38.0038,58.7082,38.7085Q58.4944,39.4133,58.2463,40.1067Q57.9982,40.8001,57.7164,41.4805Q57.4345,42.1609,57.1197,42.8266Q56.8048,43.4924,56.4576,44.1419Q56.1105,44.7914,55.7318,45.4231Q55.3532,46.0548,54.9441,46.6671Q54.5349,47.2794,54.0962,47.871Q53.6575,48.4625,53.1903,49.0318Q52.7231,49.6011,52.2285,50.1468Q51.734,50.6924,51.2132,51.2132Q50.6924,51.734,50.1468,52.2285Q49.6011,52.7231,49.0318,53.1903Q48.4625,53.6575,47.871,54.0962Q47.2794,54.5349,46.6671,54.9441Q46.0548,55.3532,45.4231,55.7319Q44.7914,56.1105,44.1419,56.4576Q43.4924,56.8048,42.8266,57.1197Q42.1609,57.4345,41.4805,57.7164Q40.8001,57.9982,40.1067,58.2463Q39.4133,58.4944,38.7085,58.7082Q38.0038,58.922,37.2894,59.1009Q36.575,59.2799,35.8527,59.4236Q35.1304,59.5672,34.4019,59.6753Q33.6734,59.7833,32.9405,59.8555Q32.2076,59.9277,31.472,59.9639Q30.7365,60,30,60Q29.2635,60,28.528,59.9639Q27.7924,59.9277,27.0595,59.8555Q26.3266,59.7833,25.5981,59.6753Q24.8696,59.5672,24.1473,59.4235Q23.425,59.2799,22.7106,59.1009Q21.9962,58.922,21.2915,58.7082Q20.5867,58.4944,19.8933,58.2463Q19.1999,57.9982,18.5195,57.7164Q17.8391,57.4345,17.1733,57.1197Q16.5076,56.8048,15.8581,56.4576Q15.2086,56.1105,14.5769,55.7318Q13.9452,55.3532,13.3329,54.9441Q12.7205,54.5349,12.129,54.0962Q11.5375,53.6575,10.9682,53.1903Q10.3989,52.7231,9.85323,52.2285Q9.30755,51.734,8.7868,51.2132Q8.26604,50.6924,7.77146,50.1468Q7.27689,49.6011,6.80969,49.0318Q6.34248,48.4625,5.90377,47.871Q5.46507,47.2794,5.05591,46.6671Q4.64676,46.0548,4.26814,45.4231Q3.88953,44.7914,3.54236,44.1419Q3.1952,43.4924,2.88032,42.8266Q2.56544,42.1609,2.28361,41.4805Q2.00178,40.8001,1.75368,40.1067Q1.50557,39.4133,1.29179,38.7085Q1.07801,38.0038,0.899062,37.2894Q0.720117,36.575,0.576441,35.8527Q0.432766,35.1304,0.324705,34.4019Q0.216644,33.6734,0.144458,32.9405Q0.0722726,32.2076,0.0361363,31.472Q0,30.7365,0,30Q0,29.2635,0.0361363,28.528Q0.0722726,27.7924,0.144458,27.0595Q0.216644,26.3266,0.324705,25.5981Q0.432766,24.8696,0.576441,24.1473Q0.720117,23.425,0.899062,22.7106Q1.07801,21.9962,1.29179,21.2915Q1.50557,20.5867,1.75368,19.8933Q2.00178,19.1999,2.28361,18.5195Q2.56544,17.8391,2.88032,17.1733Q3.1952,16.5076,3.54236,15.8581Q3.88953,15.2086,4.26814,14.5769Q4.64676,13.9452,5.05591,13.3329Q5.46507,12.7205,5.90377,12.129Q6.34248,11.5375,6.80969,10.9682Q7.27689,10.3989,7.77146,9.85323Q8.26604,9.30755,8.7868,8.7868Q9.30755,8.26604,9.85323,7.77146Q10.3989,7.27689,10.9682,6.80969Q11.5375,6.34248,12.129,5.90377Q12.7205,5.46507,13.3329,5.05591Q13.9452,4.64676,14.5769,4.26814Q15.2086,3.88953,15.8581,3.54236Q16.5076,3.1952,17.1733,2.88032Q17.8391,2.56544,18.5195,2.28361Q19.1999,2.00178,19.8933,1.75368Q20.5867,1.50557,21.2915,1.29179Q21.9962,1.07801,22.7106,0.899062Q23.425,0.720117,24.1473,0.576441Q24.8696,0.432766,25.5981,0.324705Q26.3266,0.216644,27.0595,0.144458Q27.7924,0.0722726,28.528,0.0361363Q29.2635,0,30,0Q30.7365,0,31.472,0.0361363Q32.2076,0.0722726,32.9405,0.144458Q33.6734,0.216644,34.4019,0.324705Q35.1304,0.432766,35.8527,0.576441Q36.575,0.720117,37.2894,0.899062Q38.0038,1.07801,38.7085,1.29179Q39.4133,1.50557,40.1067,1.75368Q40.8001,2.00178,41.4805,2.28361Q42.1609,2.56544,42.8266,2.88032Q43.4924,3.1952,44.1419,3.54236Q44.7914,3.88953,45.4231,4.26814Q46.0548,4.64676,46.6671,5.05591Q47.2794,5.46507,47.871,5.90377Q48.4625,6.34248,49.0318,6.80969Q49.6011,7.27689,50.1468,7.77146Q50.6924,8.26604,51.2132,8.7868Q51.734,9.30755,52.2285,9.85323Q52.7231,10.3989,53.1903,10.9682Q53.6575,11.5375,54.0962,12.129Q54.5349,12.7205,54.9441,13.3329Q55.3532,13.9452,55.7319,14.5769Q56.1105,15.2086,56.4576,15.8581Q56.8048,16.5076,57.1197,17.1733Q57.4345,17.8391,57.7164,18.5195Q57.9982,19.1999,58.2463,19.8933Q58.4944,20.5867,58.7082,21.2915Q58.922,21.9962,59.1009,22.7106Q59.2799,23.425,59.4236,24.1473Q59.5672,24.8696,59.6753,25.5981Q59.7833,26.3266,59.8555,27.0595Q59.9277,27.7924,59.9639,28.528Q60,29.2635,60,30ZM59,30Q59,29.2881,58.9651,28.577Q58.9301,27.866,58.8604,27.1575Q58.7906,26.449,58.6861,25.7448Q58.5817,25.0406,58.4428,24.3424Q58.3039,23.6441,58.1309,22.9536Q57.9579,22.263,57.7513,21.5817Q57.5446,20.9005,57.3048,20.2302Q57.0649,19.5599,56.7925,18.9022Q56.5201,18.2445,56.2157,17.6009Q55.9113,16.9573,55.5757,16.3295Q55.2401,15.7016,54.8741,15.091Q54.5081,14.4804,54.1126,13.8885Q53.7171,13.2965,53.293,12.7247Q52.8689,12.1529,52.4173,11.6026Q51.9657,11.0523,51.4876,10.5248Q51.0095,9.9973,50.5061,9.4939Q50.0027,8.99051,49.4752,8.51242Q48.9477,8.03433,48.3974,7.5827Q47.8471,7.13107,47.2753,6.70698Q46.7035,6.2829,46.1115,5.88738Q45.5196,5.49186,44.909,5.12587Q44.2983,4.75988,43.6705,4.42428Q43.0426,4.08869,42.3991,3.78431Q41.7555,3.47993,41.0978,3.20749Q40.4401,2.93506,39.7698,2.69522Q39.0995,2.45539,38.4183,2.24873Q37.737,2.04207,37.0464,1.86909Q36.3559,1.69611,35.6576,1.55723Q34.9594,1.41834,34.2552,1.31388Q33.551,1.20942,32.8425,1.13964Q32.134,1.06986,31.423,1.03493Q30.7119,1,30,1Q29.2881,1,28.577,1.03493Q27.866,1.06986,27.1575,1.13964Q26.449,1.20942,25.7448,1.31388Q25.0406,1.41834,24.3424,1.55723Q23.6441,1.69611,22.9536,1.86909Q22.263,2.04207,21.5817,2.24873Q20.9005,2.45539,20.2302,2.69522Q19.5599,2.93506,18.9022,3.20749Q18.2445,3.47993,17.6009,3.78431Q16.9573,4.08869,16.3295,4.42428Q15.7016,4.75988,15.091,5.12587Q14.4804,5.49187,13.8885,5.88738Q13.2965,6.2829,12.7247,6.70698Q12.1529,7.13107,11.6026,7.5827Q11.0523,8.03433,10.5248,8.51242Q9.9973,8.99051,9.4939,9.4939Q8.99051,9.9973,8.51242,10.5248Q8.03433,11.0523,7.5827,11.6026Q7.13107,12.1529,6.70698,12.7247Q6.2829,13.2965,5.88738,13.8885Q5.49186,14.4804,5.12587,15.091Q4.75988,15.7016,4.42428,16.3295Q4.08869,16.9573,3.78431,17.6009Q3.47993,18.2445,3.20749,18.9022Q2.93506,19.5599,2.69522,20.2302Q2.45539,20.9005,2.24873,21.5817Q2.04207,22.263,1.86909,22.9536Q1.69611,23.6441,1.55723,24.3424Q1.41834,25.0406,1.31388,25.7448Q1.20942,26.449,1.13964,27.1575Q1.06986,27.866,1.03493,28.577Q1,29.2881,1,30Q1,30.7119,1.03493,31.423Q1.06986,32.134,1.13964,32.8425Q1.20942,33.551,1.31388,34.2552Q1.41834,34.9594,1.55723,35.6576Q1.69611,36.3559,1.86909,37.0464Q2.04207,37.737,2.24873,38.4183Q2.45539,39.0995,2.69522,39.7698Q2.93506,40.4401,3.20749,41.0978Q3.47993,41.7555,3.78431,42.3991Q4.08869,43.0427,4.42428,43.6705Q4.75988,44.2984,5.12587,44.909Q5.49187,45.5196,5.88738,46.1115Q6.2829,46.7035,6.70698,47.2753Q7.13107,47.8471,7.5827,48.3974Q8.03433,48.9477,8.51242,49.4752Q8.99051,50.0027,9.4939,50.5061Q9.9973,51.0095,10.5248,51.4876Q11.0523,51.9657,11.6026,52.4173Q12.1529,52.8689,12.7247,53.293Q13.2965,53.7171,13.8885,54.1126Q14.4804,54.5081,15.091,54.8741Q15.7016,55.2401,16.3295,55.5757Q16.9573,55.9113,17.6009,56.2157Q18.2445,56.5201,18.9022,56.7925Q19.5599,57.0649,20.2302,57.3048Q20.9005,57.5446,21.5817,57.7513Q22.263,57.9579,22.9536,58.1309Q23.6441,58.3039,24.3424,58.4428Q25.0406,58.5817,25.7448,58.6861Q26.449,58.7906,27.1575,58.8604Q27.866,58.9301,28.577,58.9651Q29.2881,59,30,59Q30.7119,59,31.423,58.9651Q32.134,58.9301,32.8425,58.8604Q33.551,58.7906,34.2552,58.6861Q34.9594,58.5817,35.6576,58.4428Q36.3559,58.3039,37.0464,58.1309Q37.737,57.9579,38.4183,57.7513Q39.0995,57.5446,39.7698,57.3048Q40.4401,57.0649,41.0978,56.7925Q41.7555,56.5201,42.3991,56.2157Q43.0427,55.9113,43.6705,55.5757Q44.2984,55.2401,44.909,54.8741Q45.5196,54.5081,46.1115,54.1126Q46.7035,53.7171,47.2753,53.293Q47.8471,52.8689,48.3974,52.4173Q48.9477,51.9657,49.4752,51.4876Q50.0027,51.0095,50.5061,50.5061Q51.0095,50.0027,51.4876,49.4752Q51.9657,48.9477,52.4173,48.3974Q52.8689,47.8471,53.293,47.2753Q53.7171,46.7035,54.1126,46.1115Q54.5081,45.5196,54.8741,44.909Q55.2401,44.2983,55.5757,43.6705Q55.9113,43.0426,56.2157,42.3991Q56.5201,41.7555,56.7925,41.0978Q57.0649,40.4401,57.3048,39.7698Q57.5446,39.0995,57.7513,38.4183Q57.9579,37.737,58.1309,37.0464Q58.3039,36.3559,58.4428,35.6576Q58.5817,34.9594,58.6861,34.2552Q58.7906,33.551,58.8604,32.8425Q58.9301,32.134,58.9651,31.423Q59,30.7119,59,30Z" fill="#FFFFFF" fill-opacity="1"/></g></g></svg>