<svg xmlns="http://www.w3.org/2000/svg" xmlns:xlink="http://www.w3.org/1999/xlink" fill="none" version="1.1" width="539" height="58" viewBox="0 0 539 58"><defs><linearGradient x1="0.05096565932035446" y1="1" x2="1.1614161729812622" y2="1" id="master_svg0_18_05740"><stop offset="44.86461579799652%" stop-color="#FFFFFF" stop-opacity="1"/><stop offset="100%" stop-color="#5900CC" stop-opacity="1"/></linearGradient></defs><g><g><path d="M97.9332,27.429L124.332,50.9728L124.311,51.0143C125.524,52.11,125.942,53.8413,125.365,55.3737C124.788,56.9061,123.333,57.9254,121.702,57.9402C120.734,57.9421,119.798,57.5869,119.073,56.9419L91.3284,32.1919C87.1541,34.2722,82.2516,34.2722,78.0774,32.1919L77.6632,31.9631L77.6632,54.0301C77.5134,56.1072,75.7922,57.7154,73.7191,57.7154C71.6459,57.7154,69.9246,56.1072,69.7748,54.0301L69.7748,4.2597C69.6087,1.95867,71.4223,0,73.7191,0C76.0157,0,77.8293,1.95867,77.6632,4.2597L77.6632,18.8185C77.665,21.5005,79.1814,23.9492,81.5756,25.1362C83.9697,26.3232,86.8269,26.043,88.9473,24.4133L117.126,2.74143C118.815,1.06816,121.58,1.25461,123.032,3.13955C124.483,5.0245,123.967,7.7598,121.93,8.98093L97.9332,27.429ZM194.396,1.6183C195.79,-0.0663912,198.286,-0.28156,199.945,1.13995L199.945,1.16074C201.618,2.5745,201.823,5.08746,200.401,6.75549L178.723,32.4415C176.867,34.6851,174.387,36.3217,171.6,37.1419L171.6,53.9469C171.451,56.024,169.729,57.6322,167.656,57.6322C165.583,57.6322,163.862,56.024,163.712,53.9469L163.712,37.1211C160.932,36.2872,158.455,34.653,156.59,32.4207L134.912,6.73471C133.49,5.06664,133.694,2.55368,135.367,1.13995C136.161,0.452012,137.202,0.121231,138.245,0.224816C139.292,0.307646,140.262,0.809801,140.937,1.6183L162.615,27.3043C163.869,28.8026,165.717,29.6699,167.667,29.6753C169.609,29.6638,171.448,28.7971,172.698,27.3043L194.396,1.6183ZM269.12,2.51255C270.129,0.496887,272.554,-0.342841,274.586,0.619894C276.592,1.63391,277.428,4.07001,276.47,6.11065L255.309,49.7872C252.888,54.8099,247.821,58.0001,242.266,58.0001C236.71,58.0001,231.643,54.8099,229.222,49.7872L208.061,6.11065C207.592,5.12869,207.525,4.00108,207.875,2.97012C208.233,1.94521,208.976,1.10171,209.945,0.619894C211.977,-0.342841,214.402,0.496855,215.412,2.51255L236.572,46.1891C237.634,48.3753,239.844,49.7621,242.266,49.7621C244.687,49.7621,246.897,48.3753,247.959,46.1891L269.12,2.51255ZM322.02,9.4384L342.518,51.7006C343.34,53.2365,343.122,55.1246,341.97,56.4299C340.819,57.7352,338.979,58.1804,337.362,57.545C336.325,57.1875,335.465,56.4427,334.961,55.4651L314.442,13.2029C313.107,10.4,310.289,8.61607,307.195,8.61607C304.102,8.61607,301.284,10.4,299.949,13.2029L279.41,55.5275C278.718,56.9857,277.249,57.9101,275.642,57.8985C275.004,57.8972,274.375,57.7552,273.799,57.4826C271.673,56.4902,270.79,53.9246,271.853,51.8254L292.412,9.4384C295.223,3.81388,300.951,0.26328,307.216,0.26328C313.481,0.26328,319.21,3.81388,322.02,9.4384ZM9.97968,25.5779L49.4221,25.5779C54.9257,25.5894,59.3811,30.0743,59.3812,35.6027L59.3812,42.0086C59.3697,50.7796,52.2943,57.8871,43.5627,57.8986L6.45992,57.8986C4.17291,57.8986,2.31898,56.0362,2.31898,53.7389C2.31898,51.4416,4.17291,49.5792,6.45992,49.5792L43.5626,49.5792C47.7249,49.5792,51.0991,46.1898,51.0992,42.0086L51.0992,35.6027C51.0992,34.6724,50.3483,33.9181,49.4221,33.9181L9.97968,33.9181C4.46805,33.9181,0,29.4298,0,23.8933L0,17.4666C0.0114366,8.69896,7.09026,1.59748,15.8184,1.59745L52.9005,1.59745C55.1875,1.59745,57.0415,3.4598,57.0415,5.75712C57.0415,8.05444,55.1875,9.91679,52.9005,9.91679L15.8184,9.91679C11.6641,9.91679,8.29325,13.2936,8.28188,17.4666L8.28188,23.8933C8.29325,24.827,9.05002,25.578,9.97968,25.5779ZM535.63,1.63909L482.316,1.63909C480.361,2.01138,478.946,3.72743,478.946,5.72595C478.946,7.72448,480.361,9.44053,482.316,9.81282L504.905,9.81282L504.905,53.7805C505.275,55.7441,506.984,57.1654,508.973,57.1654C510.963,57.1654,512.671,55.7441,513.042,53.7805L513.042,9.81285L535.63,9.81285C537.585,9.44056,539,7.72451,539,5.72599C539,3.72746,537.585,2.01141,535.63,1.63909ZM407.51,5.94445C407.51,3.64714,409.364,1.78479,411.651,1.78479C414.06,1.68628,416.044,3.669,415.957,6.09006L415.957,39.5546C415.754,49.9184,407.205,58.1427,396.888,57.8987L367.55,57.8987C357.241,58.1309,348.705,49.91,348.501,39.5546L348.501,6.09006C348.501,3.79274,350.355,1.93039,352.642,1.93039C354.929,1.93039,356.783,3.79274,356.783,6.09006L356.783,39.409C357.041,45.0876,361.79,49.5062,367.446,49.3298L396.847,49.3298C402.503,49.5062,407.252,45.0876,407.51,39.409L407.51,5.94445ZM480.97,49.3712L442.418,49.3712C437.383,49.3598,433.308,45.2567,433.308,40.1992L433.308,6.0899C433.308,3.76386,431.431,1.87825,429.115,1.87825C426.8,1.87825,424.922,3.76386,424.922,6.0899L424.922,40.1992C424.934,49.9006,432.76,57.7623,442.418,57.7738L480.97,57.7738C483.257,57.7738,485.111,55.9114,485.111,53.6141C485.111,51.3168,483.257,49.4544,480.97,49.4544L480.97,49.3712Z" fill-rule="evenodd" fill="url(#master_svg0_18_05740)" fill-opacity="1" style="mix-blend-mode:passthrough"/></g></g></svg>