<svg xmlns="http://www.w3.org/2000/svg" xmlns:xlink="http://www.w3.org/1999/xlink" fill="none" version="1.1" width="50" height="50" viewBox="0 0 50 50"><g><rect x="0.5" y="0.5" width="49" height="49" rx="19.5" fill-opacity="0" stroke-opacity="0.10000000149011612" stroke="#FFFFFF" fill="none" stroke-width="1"/><g><path d="M34.3203,20.73C34.3203,20.73,34.1303,19.2575,33.5587,18.61667C32.8399,17.761667,32.025999999999996,17.761667,31.6555,17.714167C29.0019,17.5,25.00554,17.5,25.00554,17.5L24.99446,17.5C24.99446,17.5,21.00842,17.5,18.34446,17.714167C17.973959999999998,17.761667,17.16013,17.7725,16.441292,18.61667C15.869708,19.25833,15.69,20.73,15.69,20.73C15.69,20.73,15.5,22.4525,15.5,24.18667L15.5,25.80167C15.5,27.5233,15.69,29.2575,15.69,29.2575C15.69,29.2575,15.88,30.73,16.441292,31.3717C17.16013,32.2267,18.11171,32.190799999999996,18.53446,32.286699999999996C20.056829999999998,32.4525,24.99446,32.5,24.99446,32.5C24.99446,32.5,28.9916,32.4883,31.6453,32.275C32.015,32.2267,32.8296,32.215,33.5484,31.3717C34.1192,30.73,34.31,29.2575,34.31,29.2575C34.31,29.2575,34.5,27.535800000000002,34.5,25.80167L34.5,24.18667C34.5,22.46417,34.31,20.73,34.31,20.73L34.3203,20.73ZM23.03904,27.7733L23.03904,21.775L28.177,24.77917L23.03904,27.7733L23.03904,27.7733Z" fill-rule="evenodd" fill="#FFFFFF" fill-opacity="1" style="mix-blend-mode:passthrough"/></g></g></svg>