<svg xmlns="http://www.w3.org/2000/svg" xmlns:xlink="http://www.w3.org/1999/xlink" fill="none" version="1.1" width="50" height="50" viewBox="0 0 50 50"><g><rect x="0.5" y="0.5" width="49" height="49" rx="19.5" fill-opacity="0" stroke-opacity="0.10000000149011612" stroke="#FFFFFF" fill="none" stroke-width="1"/><g><path d="M28.6449,16C28.9527,18.55452,30.430799999999998,20.07703,33,20.23904L33,23.11156C31.511200000000002,23.25256,30.2068,22.78231,28.6899,21.89655L28.6899,27.2703C28.6899,34.0954,20.97634,36.2292,17.875378,31.3369C15.88299,28.1876,17.102804,22.663809999999998,23.49521,22.4418L23.49521,25.47183C23.00835,25.54758,22.48796,25.666829999999997,22.01177,25.82283C20.59005,26.2878,19.78396,27.1571,20.00796,28.6909C20.4392,31.6279,26.0255,32.4979,25.56074,26.7573L25.56074,16.00525004L28.6449,16.00525004L28.6449,16Z" fill-rule="evenodd" fill="#FFFFFF" fill-opacity="1" style="mix-blend-mode:passthrough"/></g></g></svg>