<svg xmlns="http://www.w3.org/2000/svg" xmlns:xlink="http://www.w3.org/1999/xlink" fill="none" version="1.1" width="50" height="50" viewBox="0 0 50 50"><g><rect x="0.5" y="0.5" width="49" height="49" rx="19.5" fill-opacity="0" stroke-opacity="0.10000000149011612" stroke="#FFFFFF" fill="none" stroke-width="1"/><g><path d="M33.925,21.32544C33.85,20.35058,33.7,19.75073,33.475,19.15087C33.3964,18.836669999999998,33.2765,18.54223,33.1047,18.25805C32.9486,18.000239999999998,32.7498,17.75048,32.5,17.50073C31.975,16.975584,31.525,16.676025,30.925,16.450439C30.325,16.225586,29.725,16.0754394,28.75,16.000732376L25,16.000732376C22.52496,16.000732376,22.22504,16.000732376,21.32499,16.0754394C20.35004,16.0754394,19.67501,16.225586,19.07499,16.450439C18.55001,16.676025,18.02496,16.975584,17.5,17.50073C17.22131,17.77979,17.00598,18.03686,16.831667,18.30713C16.677581,18.5459,16.555542,18.79419,16.449982,19.07544C16.225037,19.67529,16.0749816,20.35058,16.0749816,21.32544C16.0613402,21.4895,16.0501707,21.63378,16.0410155,21.77514C16.0233458,22.04687,16.013275,22.30761,16.0075987,22.67748C15.999999854015,23.16674,15.999999854015,23.847920000000002,15.999999854015,25.00074C15.999999854015,27.4756,15.999999854015,27.775100000000002,16.0749816,28.6753C16.149963,29.650100000000002,16.300018,30.250700000000002,16.524963,30.8506C16.675018,31.450400000000002,16.975037,31.9756,17.5,32.500699999999995C18.02496,33.025099999999995,18.47504,33.3254,19.07499,33.5503C19.67501,33.775099999999995,20.27496,33.9253,21.25,34.000699999999995L25,34.000699999999995C26.211399999999998,34.000699999999995,26.901699999999998,34.000699999999995,27.3964,33.992000000000004C27.912399999999998,33.9831,28.2155,33.9641,28.675,33.9253C29.218400000000003,33.8835,29.6453,33.8183,30.0206,33.7304C30.3188,33.6602,30.584400000000002,33.575199999999995,30.85,33.4756C30.9254,33.4478,30.999499999999998,33.417699999999996,31.072499999999998,33.3869C31.1345,33.360600000000005,31.195700000000002,33.3335,31.256,33.3049C31.689799999999998,33.0991,32.0796,32.8281,32.425,32.4253C32.95,31.900100000000002,33.25,31.450400000000002,33.475,30.8506C33.7,30.250700000000002,33.85,29.650100000000002,33.925,28.6753C34,27.775100000000002,34,27.4756,34,25.00074C34,22.52587,34,22.22558,33.925,21.32544ZM21.84985,24.99924C21.84985,26.7212,23.27826,28.1494,24.99992,28.1494C26.7215,28.1494,28.1498,26.7212,28.1498,24.99924C28.1498,23.27807,26.7215,21.84912,24.99992,21.84912C23.27826,21.84912,21.84985,23.27807,21.84985,24.99924ZM20.34985,24.99924C20.34985,27.549500000000002,22.44989,29.650100000000002,24.99992,29.650100000000002C27.549799999999998,29.650100000000002,29.6498,27.549500000000002,29.6498,24.99924C29.6498,22.44897,27.549799999999998,20.34912,24.99992,20.34912C22.44989,20.34912,20.34985,22.44897,20.34985,24.99924ZM28.75,20.1997C28.75,20.80029,29.2,21.25073,29.8,21.25073C30.400100000000002,21.25073,30.85,20.80029,30.85,20.1997C30.85,19.59985,30.400100000000002,19.14941,29.8,19.14941C29.2,19.14941,28.75,19.59985,28.75,20.1997Z" fill-rule="evenodd" fill="#FFFFFF" fill-opacity="1" style="mix-blend-mode:passthrough"/></g></g></svg>