<svg xmlns="http://www.w3.org/2000/svg" xmlns:xlink="http://www.w3.org/1999/xlink" fill="none" version="1.1" width="50" height="50" viewBox="0 0 50 50"><g><rect x="0.5" y="0.5" width="49" height="49" rx="19.5" fill-opacity="0" stroke-opacity="0.10000000149011612" stroke="#FFFFFF" fill="none" stroke-width="1"/><g><path d="M31.3,31.3L28.6,31.3L28.6,26.53C28.6,25.783,27.997,25.18,27.25,25.18C26.503,25.18,25.9,25.783,25.9,26.53L25.9,31.3L23.2,31.3L23.2,23.2L25.9,23.2L25.9,24.28C26.35,23.524,27.331,23.02,28.15,23.02C29.887,23.02,31.3,24.433,31.3,26.17L31.3,31.3ZM20.05,21.679000000000002C19.15,21.679000000000002,18.421,20.95,18.421,20.05C18.421,19.15,19.15,18.421,20.05,18.421C20.95,18.421,21.679000000000002,19.15,21.679000000000002,20.05C21.679000000000002,20.95,20.95,21.679000000000002,20.05,21.679000000000002ZM21.4,31.3L18.7,31.3L18.7,23.2L21.4,23.2L21.4,31.3ZM32.2,16L17.8,16C16.800998,16,15.99999821186,16.801,15.99999821186,17.8L15.99999821186,32.2C15.99999821186,33.19,16.809998,34,17.8,34L32.2,34C33.19,34,34,33.19,34,32.2L34,17.8C34,16.801,33.19,15.999999642372,32.2,16Z" fill="#FFFFFF" fill-opacity="1" style="mix-blend-mode:passthrough"/></g></g></svg>