<svg xmlns="http://www.w3.org/2000/svg" xmlns:xlink="http://www.w3.org/1999/xlink" fill="none" version="1.1" width="50" height="50" viewBox="0 0 50 50"><g><rect x="0.5" y="0.5" width="49" height="49" rx="19.5" fill-opacity="0" stroke-opacity="0.10000000149011612" stroke="#FFFFFF" fill="none" stroke-width="1"/><g><path d="M16.993,16.000732465C16.44475,16.000732465,16,16.445482,16,16.993736L16,33.0077C16,33.5567,16.44475,34.000699999999995,16.993,34.000699999999995L25.75,34.000699999999995L25.75,27.250799999999998L23.5,27.250799999999998L23.5,25.000700000000002L25.75,25.000700000000002L25.75,23.50076C25.75,21.17649,27.4262,19.75073,29.5,19.75073C30.4938,19.75073,31.125999999999998,19.71773,31.375,19.75073L31,22.00074L29.5,22.00074C28.375,22.00074,28,22.71324,28,23.50076L28,25.000700000000002L31.204700000000003,25.000700000000002L30.625,27.250799999999998L28,27.250799999999998L28,34.000699999999995L33.0062,34.000699999999995C33.556,34.000699999999995,34,33.5567,34,33.0077L34,16.993736C34,16.445482,33.556,16.000732199,33.007000000000005,16.000732199L16.993,16.000732465Z" fill="#FFFFFF" fill-opacity="1" style="mix-blend-mode:passthrough"/></g></g></svg>