<svg xmlns="http://www.w3.org/2000/svg" xmlns:xlink="http://www.w3.org/1999/xlink" fill="none" version="1.1" width="174.38201904296875" height="18.680021286010742" viewBox="0 0 174.38201904296875 18.680021286010742"><g><path d="M31.6842,8.83405L40.2249,16.4167L40.2182,16.4301C40.6105,16.783,40.7459,17.3406,40.5592,17.8341C40.3725,18.3277,39.9018,18.656,39.3741,18.6607C39.0608,18.6614,38.7581,18.547,38.5234,18.3392L29.5473,10.368C28.1969,11.038,26.6108,11.038,25.2603,10.368L25.1263,10.2943L25.1263,17.4014C25.0778,18.0704,24.521,18.5883,23.8502,18.5883C23.1795,18.5883,22.6226,18.0704,22.5741,17.4014L22.5741,1.37192C22.5204,0.630826,23.1072,0,23.8502,0C24.5933,0,25.18,0.630826,25.1263,1.37192L25.1263,6.06087C25.1269,6.92464,25.6175,7.71329,26.392,8.09559C27.1666,8.47789,28.091,8.38765,28.777,7.86276L37.8938,0.882929C38.4402,0.344022,39.3348,0.404071,39.8043,1.01115C40.2737,1.61824,40.1068,2.49919,39.4478,2.89248L31.6842,8.83405ZM62.8928,0.521205C63.3438,-0.0213825,64.1512,-0.0906816,64.688,0.367142L64.688,0.373837C65.2293,0.829166,65.2955,1.63851,64.8354,2.17573L57.822,10.4484C57.2216,11.171,56.4193,11.6981,55.5177,11.9622L55.5177,17.3746C55.4692,18.0436,54.9123,18.5616,54.2416,18.5616C53.5709,18.5616,53.014,18.0436,52.9655,17.3746L52.9655,11.9555C52.066,11.687,51.2649,11.1607,50.6612,10.4417L43.6478,2.16904C43.1877,1.63181,43.2539,0.822461,43.7952,0.367142C44.0521,0.145579,44.3887,0.0390446,44.7263,0.0724063C45.065,0.0990833,45.3788,0.260812,45.5971,0.521205L52.6105,8.79386C53.0165,9.27642,53.6143,9.55576,54.245,9.55748C54.8732,9.55379,55.4683,9.27465,55.8727,8.79386L62.8928,0.521205ZM87.0679,0.809215C87.3945,0.160032,88.1791,-0.110419,88.8363,0.199649C89.4855,0.526233,89.756,1.31083,89.4459,1.96805L82.6,16.0349C81.8165,17.6526,80.1773,18.68,78.3799,18.68C76.5825,18.68,74.9432,17.6526,74.1598,16.0349L67.3138,1.96805C67.1621,1.65179,67.1404,1.28863,67.2535,0.956582C67.3694,0.626492,67.6099,0.354825,67.9234,0.199649C68.5806,-0.110419,69.3652,0.160022,69.6918,0.809215L76.5378,14.8761C76.8814,15.5802,77.5964,16.0268,78.3799,16.0268C79.1634,16.0268,79.8784,15.5802,80.222,14.8761L87.0679,0.809215ZM104.183,3.03982L110.814,16.6512C111.08,17.1458,111.01,17.7539,110.637,18.1743C110.265,18.5947,109.669,18.7381,109.146,18.5334C108.811,18.4183,108.533,18.1785,108.369,17.8636L101.731,4.25224C101.299,3.34953,100.387,2.77497,99.3866,2.77497C98.3858,2.77497,97.474,3.34953,97.0421,4.25224L90.3971,17.8837C90.1734,18.3533,89.6981,18.6511,89.178,18.6473C88.9718,18.6469,88.7683,18.6012,88.5818,18.5134C87.894,18.1937,87.6084,17.3674,87.9521,16.6914L94.6038,3.03982C95.513,1.22833,97.3664,0.0847942,99.3933,0.0847942C101.42,0.0847942,103.274,1.22833,104.183,3.03982ZM3.22871,8.23786L15.9895,8.23786C17.77,8.24156,19.2115,9.686,19.2115,11.4665L19.2115,13.5297C19.2078,16.3545,16.9187,18.6436,14.0938,18.6473L2.08997,18.6473C1.35006,18.6473,0.750256,18.0475,0.750256,17.3076C0.750256,16.5677,1.35006,15.9679,2.08997,15.9679L14.0938,15.9679C15.4404,15.9679,16.532,14.8763,16.532,13.5297L16.532,11.4665C16.532,11.1669,16.2891,10.924,15.9895,10.924L3.22871,10.924C1.44554,10.924,0,9.47843,0,7.69528L0,5.62545C0.00370007,2.80166,2.2939,0.514499,5.11771,0.514489L17.1148,0.514489C17.8548,0.514489,18.4546,1.11429,18.4546,1.85419C18.4546,2.59408,17.8548,3.19389,17.1148,3.19389L5.11771,3.19389C3.77369,3.19389,2.6831,4.28146,2.67943,5.62545L2.67943,7.69528C2.6831,7.99602,2.92794,8.23788,3.22871,8.23786ZM173.292,0.527899L156.043,0.527899C155.411,0.647803,154.953,1.20049,154.953,1.84415C154.953,2.48782,155.411,3.0405,156.043,3.1604L163.351,3.1604L163.351,17.321C163.471,17.9534,164.024,18.4112,164.667,18.4112C165.311,18.4112,165.864,17.9534,165.984,17.321L165.984,3.16042L173.292,3.16042C173.924,3.04051,174.382,2.48783,174.382,1.84416C174.382,1.2005,173.924,0.647813,173.292,0.527899ZM131.841,1.91452C131.841,1.17463,132.441,0.574824,133.181,0.574824C133.96,0.543098,134.602,1.18167,134.574,1.96142L134.574,12.7393C134.508,16.0772,131.742,18.726,128.405,18.6474L118.913,18.6474C115.578,18.7222,112.816,16.0745,112.75,12.7393L112.75,1.96142C112.75,1.22152,113.35,0.621719,114.09,0.621719C114.83,0.621719,115.43,1.22152,115.43,1.96142L115.43,12.6924C115.513,14.5213,117.049,15.9444,118.879,15.8876L128.391,15.8876C130.221,15.9444,131.758,14.5213,131.841,12.6924L131.841,1.91452ZM155.608,15.9009L143.135,15.9009C141.506,15.8973,140.188,14.5758,140.188,12.9469L140.188,1.96137C140.188,1.21222,139.58,0.604926,138.831,0.604926C138.082,0.604926,137.475,1.21222,137.475,1.96137L137.475,12.9469C137.478,16.0714,140.01,18.6035,143.135,18.6071L155.608,18.6071C156.348,18.6071,156.947,18.0073,156.947,17.2674C156.947,16.5275,156.348,15.9277,155.608,15.9277L155.608,15.9009Z" fill-rule="evenodd" fill="#FFFFFF" fill-opacity="1" style="mix-blend-mode:passthrough"/></g></svg>