<svg xmlns="http://www.w3.org/2000/svg" xmlns:xlink="http://www.w3.org/1999/xlink" fill="none" version="1.1" width="8.210000038146973" height="10.1227445602417" viewBox="0 0 8.210000038146973 10.1227445602417"><g transform="matrix(0,1,1,0,0,0)"><path d="M9.80633,7.13088L7.05192,1.47737C6.67429,0.72497,5.90447,0.25,5.06262,0.25C4.22077,0.25,3.45095,0.72497,3.07332,1.47737L0.3105558,7.14757C0.1678099,7.42838,0.2864167,7.77159,0.572087,7.90434C0.649556,7.94081,0.734089,7.95981,0.81971,7.95999C1.035764,7.96154,1.233182,7.83788,1.32608,7.64281L4.08606,1.98096C4.26545,1.60601,4.64419,1.36737,5.05984,1.36737C5.47549,1.36737,5.85423,1.60601,6.03363,1.98096L8.79082,7.63447C8.85865,7.76524,8.97422,7.86487,9.11356,7.91269C9.33082,7.99769,9.57803,7.93813,9.73276,7.76352C9.88748,7.58892,9.91685,7.33634,9.80633,7.13088Z" fill="#FFFFFF" fill-opacity="1" style="mix-blend-mode:passthrough"/><path d="M9.02734,8.14739Q9.54833,8.3486,9.91987,7.92933Q10.2913,7.51009,10.02901,7.01715L7.27666,1.36788Q6.96033,0.737548,6.36263,0.368774Q5.76493,0,5.06262,0Q4.36031,0,3.76261,0.368774Q3.16492,0.737547,2.84989,1.36523L0.085814,7.03807Q-0.06746200000000002,7.33952,0.044377,7.66314Q0.156218,7.98676,0.466731,8.13106Q0.6335729999999999,8.2096,0.819192,8.209990000000001Q1.33112,8.21366,1.55179,7.7503L4.31078,2.0905Q4.53716,1.61737,5.05984,1.61737Q5.58252,1.61737,5.80811,2.08886L8.56748,7.74683L8.5689,7.74957Q8.71941,8.03978,9.02734,8.14739ZM9.58616,7.24932Q9.68748,7.43766,9.54565,7.59773Q9.40381,7.75779,9.20465,7.67987L9.19972,7.67794L9.19471,7.67623Q9.07359,7.63466,9.01399,7.52173L6.25914,1.87306Q5.89757,1.117369,5.05984,1.117369Q4.2221,1.117369,3.86134,1.87141L1.100368,7.53532Q1.016516,7.71139,0.820228,7.70999Q0.7458659999999999,7.70983,0.677443,7.67763Q0.5594509999999999,7.6228,0.516953,7.49982Q0.47445499999999996,7.37685,0.535298,7.25708L3.29676,1.58952Q3.84358,0.5,5.06262,0.5Q6.28166,0.5,6.82717,1.58687L9.58379,7.24489L9.58616,7.24932Z" fill-rule="evenodd" fill="#FFFFFF" fill-opacity="1"/></g></svg>