<svg xmlns="http://www.w3.org/2000/svg" xmlns:xlink="http://www.w3.org/1999/xlink" fill="none" version="1.1" width="8.210000038146973" height="10.1227445602417" viewBox="0 0 8.210000038146973 10.1227445602417"><g transform="matrix(0,1,-1,0,8.210000038146973,-7.710000038146973)"><path d="M17.516330038146975,7.13088L14.761920038146972,1.47737C14.384290038146972,0.72497,13.614470038146973,0.25,12.772620038146972,0.25C11.930770038146973,0.25,11.160950038146973,0.72497,10.783320038146972,1.47737L8.020555838146972,7.14757C7.877809938146973,7.42838,7.996416738146973,7.77159,8.282087038146972,7.90434C8.359556038146973,7.94081,8.444089038146974,7.95981,8.529710038146973,7.95999C8.745764038146973,7.96154,8.943182038146972,7.83788,9.036080038146972,7.64281L11.796060038146972,1.98096C11.975450038146974,1.60601,12.354190038146973,1.36737,12.769840038146974,1.36737C13.185490038146973,1.36737,13.564230038146974,1.60601,13.743630038146971,1.98096L16.500820038146973,7.63447C16.568650038146973,7.76524,16.684220038146975,7.86487,16.823560038146972,7.91269C17.040820038146972,7.99769,17.28803003814697,7.93813,17.44276003814697,7.76352C17.597480038146973,7.58892,17.626850038146973,7.33634,17.516330038146975,7.13088Z" fill="#000" fill-opacity="1" style="mix-blend-mode:passthrough"/><path d="M16.737340038146975,8.14739Q17.258330038146973,8.3486,17.629870038146972,7.92933Q18.001300038146972,7.51009,17.739010038146972,7.01715L14.986660038146972,1.36788Q14.670330038146972,0.737548,14.072630038146972,0.368774Q13.474930038146972,0,12.772620038146972,0Q12.070310038146973,0,11.472610038146973,0.368774Q10.874920038146973,0.737547,10.559890038146973,1.36523L7.795814038146973,7.03807Q7.642538038146973,7.33952,7.7543770381469725,7.66314Q7.866218038146973,7.98676,8.176731038146972,8.13106Q8.343573038146973,8.2096,8.529192038146972,8.209990000000001Q9.041120038146973,8.21366,9.261790038146973,7.7503L12.020780038146974,2.0905Q12.247160038146973,1.61737,12.769840038146974,1.61737Q13.292520038146971,1.61737,13.518110038146972,2.08886L16.277480038146972,7.74683L16.278900038146972,7.74957Q16.429410038146973,8.03978,16.737340038146975,8.14739ZM17.296160038146972,7.24932Q17.397480038146973,7.43766,17.255650038146975,7.59773Q17.113810038146973,7.75779,16.914650038146974,7.67987L16.909720038146972,7.67794L16.904710038146973,7.67623Q16.783590038146972,7.63466,16.723990038146972,7.52173L13.969140038146973,1.87306Q13.607570038146973,1.117369,12.769840038146974,1.117369Q11.932100038146974,1.117369,11.571340038146973,1.87141L8.810368038146972,7.53532Q8.726516038146972,7.71139,8.530228038146973,7.70999Q8.455866038146972,7.70983,8.387443038146973,7.67763Q8.269451038146972,7.6228,8.226953038146974,7.49982Q8.184455038146973,7.37685,8.245298038146972,7.25708L11.006760038146972,1.58952Q11.553580038146972,0.5,12.772620038146972,0.5Q13.991660038146971,0.5,14.537170038146972,1.58687L17.293790038146973,7.24489L17.296160038146972,7.24932Z" fill-rule="evenodd" fill="#000" fill-opacity="1"/></g></svg>