<svg xmlns="http://www.w3.org/2000/svg" xmlns:xlink="http://www.w3.org/1999/xlink" fill="none" version="1.1" width="26.040058135986328" height="23.809999465942383" viewBox="0 0 26.040058135986328 23.809999465942383"><g><path d="M24.5831,9.40056C24.5831,8.9988,24.9091,8.67274,25.3109,8.67274C25.7131,8.67224,26.0386,8.99975,26.0357,9.40202L26.0357,10.6248C26.0357,12.9844,24.2891,14.9262,22.0724,15.1256L22.0724,15.194C22.0724,18.4416,19.5399,21.085,16.4251,21.085L11.475,21.085L5.94274,23.7387C5.84377,23.7867,5.73606,23.81,5.62836,23.81C5.493,23.81,5.35618,23.7721,5.23829,23.6965C5.02724,23.5611,4.89916,23.3267,4.90061,23.0764L4.91517,21.0355C2.14538,20.66,0,18.1839,0,15.194L0,10.4603C0,7.35101,2.32295,4.79781,5.25284,4.58528L5.25284,4.51832C5.25284,2.02771,7.20028,0,9.59309,0L21.6998,0C24.0926,0,26.0401,2.02626,26.0401,4.51832C26.0401,4.92008,25.714,5.24615,25.3123,5.24615C24.9106,5.24615,24.5846,4.92008,24.5846,4.51832C24.5846,2.82978,23.2906,1.45565,21.6998,1.45565L9.59455,1.45565C8.0037,1.45565,6.70978,2.82978,6.70978,4.51832L6.70978,4.56927L16.428,4.56927C19.5413,4.56927,22.0753,7.21127,22.0753,10.4603L22.0753,13.6569C23.4886,13.4604,24.5831,12.1765,24.5831,10.6233L24.5831,9.40056ZM16.428,19.6279C18.7394,19.6279,20.6198,17.6381,20.6198,15.1926L20.6198,10.4603C20.6198,8.01478,18.7394,6.02492,16.428,6.02492L5.65019,6.02492C3.33742,6.02492,1.45694,8.01479,1.45694,10.4603L1.45694,15.1926C1.45694,17.6381,3.33888,19.6279,5.65019,19.6279C6.05419,19.6284,6.38067,19.9575,6.37793,20.3616L6.36628,21.9206L10.9976,19.6993C11.0952,19.6527,11.2029,19.6279,11.312,19.6279L16.428,19.6279ZM24.583,6.75406C24.583,6.3523,24.9091,6.02624,25.3108,6.02624C25.7125,6.02624,26.0385,6.3523,26.0385,6.75406L26.0385,7.10196C26.0385,7.50372,25.7125,7.82978,25.3108,7.82978C24.9091,7.82978,24.583,7.50372,24.583,7.10196L24.583,6.75406ZM6.8798,14.0543C7.45374,14.0543,7.91901,13.5662,7.91901,12.964C7.91901,12.3619,7.45374,11.8737,6.8798,11.8737C6.30585,11.8737,5.84058,12.3619,5.84058,12.964C5.84058,13.5662,6.30585,14.0543,6.8798,14.0543ZM10.8851,14.0543C11.4591,14.0543,11.9244,13.5662,11.9244,12.964C11.9244,12.3619,11.4591,11.8737,10.8851,11.8737C10.3112,11.8737,9.84592,12.3619,9.84592,12.964C9.84592,13.5662,10.3112,14.0543,10.8851,14.0543ZM14.9273,14.0543C15.5012,14.0543,15.9665,13.5662,15.9665,12.964C15.9665,12.3619,15.5012,11.8737,14.9273,11.8737C14.3533,11.8737,13.888,12.3619,13.888,12.964C13.888,13.5662,14.3533,14.0543,14.9273,14.0543Z" fill-rule="evenodd" fill="#FFFFFF" fill-opacity="1" style="mix-blend-mode:passthrough"/></g></svg>