<svg xmlns="http://www.w3.org/2000/svg" xmlns:xlink="http://www.w3.org/1999/xlink" fill="none" version="1.1" width="11" height="13.756744384765625" viewBox="0 0 11 13.756744384765625"><g transform="matrix(0,1,-1,0,11,-11)"><path d="M24.6588,9.83124L20.70357,1.74279C20.16453,0.67407,19.069580000000002,0,17.87261,0C16.67564,0,15.5807,0.67407,15.04166,1.74279L11.0783161,9.83124C10.887466,10.2333,11.0573532,10.7141,11.458474,10.907C11.565418,10.9646,11.68482,10.9951,11.806278,10.996C12.11741,10.9951,12.40045,10.8158,12.53424,10.5349L16.49758,2.44645C16.75536,1.91256,17.29593,1.57328,17.88879,1.57328C18.481659999999998,1.57328,19.02223,1.91256,19.28001,2.44645L23.235300000000002,10.5349C23.3253,10.7284,23.4927,10.8752,23.6963,10.9393C23.8932,11.0202,24.1141,11.0202,24.311,10.9393C24.718899999999998,10.7343,24.8763,10.2326,24.6588,9.83124Z" fill="#FFFFFF" fill-opacity="1" style="mix-blend-mode:passthrough"/></g></svg>