<svg xmlns="http://www.w3.org/2000/svg" xmlns:xlink="http://www.w3.org/1999/xlink" fill="none" version="1.1" width="11" height="13.756744384765625" viewBox="0 0 11 13.756744384765625"><g transform="matrix(0,1,1,0,0,0)"><path d="M13.6588,9.83124L9.70357,1.74279C9.16453,0.67407,8.06958,0,6.87261,0C5.67564,0,4.5807,0.67407,4.04166,1.74279L0.0783161,9.83124C-0.112534,10.2333,0.0573532,10.7141,0.458474,10.907C0.565418,10.9646,0.68482,10.9951,0.806278,10.996C1.11741,10.9951,1.40045,10.8158,1.53424,10.5349L5.49758,2.44645C5.75536,1.91256,6.29593,1.57328,6.88879,1.57328C7.48166,1.57328,8.02223,1.91256,8.28001,2.44645L12.2353,10.5349C12.3253,10.7284,12.4927,10.8752,12.6963,10.9393C12.8932,11.0202,13.1141,11.0202,13.311,10.9393C13.7189,10.7343,13.8763,10.2326,13.6588,9.83124Z" fill="#FFFFFF" fill-opacity="1" style="mix-blend-mode:passthrough"/></g></svg>