<svg xmlns="http://www.w3.org/2000/svg" xmlns:xlink="http://www.w3.org/1999/xlink" fill="none" version="1.1" width="17.181819915771484" height="18" viewBox="0 0 17.181819915771484 18"><g><path d="M2.4181,1.24409C3.53396,0.461642,5.04113,0.732836,5.84232,1.86023L7.43189,4.09719C8.112,5.05416,8.05286,6.37936,7.29047,7.26603L7.02526,7.57431C6.90164,7.71813,6.88272,7.92958,6.97868,8.09485C7.24937,8.56697,7.57637,9.00124,7.95182,9.38721C8.36096,9.80469,8.93838,10.2809,9.68071,10.8107C9.84765,10.9299,10.0722,10.9078,10.2149,10.7581C10.5452,10.4102,10.9253,10.1181,11.3416,9.8924C12.3152,9.36485,13.5951,10.1305,15.6563,12.0728L15.9123,12.3166C16.9285,13.2916,17.0052,14.9395,16.0843,16.013L15.9765,16.1376C15.4343,16.7554,14.9542,17.183,14.509,17.4251C13.6328,17.9009,13.3231,17.989,12.3244,17.9991L12.06,18C10.3324,17.9991,6.90609,16.0955,4.23512,13.195C1.33377,10.0441,0.31322,8.08082,0.0203159,5.41191C-0.130752,3.94721,0.579268,2.52855,1.53184,1.86461L2.4181,1.24409ZM4.49445,2.90613C4.22735,2.53038,3.72497,2.44005,3.35305,2.7009L2.46342,3.32361C2.00896,3.64023,1.60863,4.44056,1.68878,5.21764C1.92503,7.37259,2.71562,8.95876,5.14489,11.6505L5.4445,11.9785C7.82635,14.5654,10.8506,16.2454,12.0609,16.2459C12.9043,16.2467,13.0277,16.2428,13.5053,15.992L13.7348,15.8692C13.9396,15.7573,14.2216,15.5162,14.5615,15.15L14.7356,14.9561L14.8363,14.8399C15.1424,14.482,15.1162,13.9333,14.7776,13.609C13.8703,12.7394,13.136,12.128,12.5888,11.7816C12.35,11.6303,12.1603,11.5382,12.0319,11.5023L12.0252,11.5005L11.9858,11.5237C11.8163,11.6276,11.6577,11.7496,11.5124,11.8877L11.3315,12.0684C10.613,12.7534,9.53821,12.8325,8.73486,12.2596C7.91783,11.6768,7.26697,11.14,6.77936,10.6432C6.30255,10.1538,5.88714,9.60313,5.54312,9.00437C5.06375,8.17791,5.15869,7.12091,5.77685,6.40211L6.04206,6.09383C6.27084,5.82781,6.28857,5.43018,6.08445,5.14309L4.49445,2.90613ZM10.6522,3.90861C12.2917,4.24278,13.4444,5.57592,13.7461,7.33663C13.8278,7.81351,13.5241,8.26931,13.0678,8.35468C12.6115,8.44006,12.1753,8.12268,12.0936,7.64579C11.9094,6.57051,11.2602,5.81974,10.3311,5.6303C9.8799,5.53399,9.58722,5.07564,9.67531,4.60323C9.7634,4.13081,10.1993,3.82083,10.6522,3.90861ZM10.7168,0.0135641C14.0797,0.634966,16.4792,3.31484,17.1657,6.95335C17.2557,7.42878,16.9596,7.89034,16.5047,7.9841C16.0497,8.07787,15.6082,7.76829,15.5187,7.29278C14.9614,4.33706,13.0751,2.23079,10.4243,1.74095C9.96785,1.65654,9.66331,1.20143,9.74408,0.724428C9.82484,0.247424,10.2603,-0.0708399,10.7168,0.0135641Z" fill="#FFFFFF" fill-opacity="1" style="mix-blend-mode:passthrough"/></g></svg>