<svg xmlns="http://www.w3.org/2000/svg" xmlns:xlink="http://www.w3.org/1999/xlink" fill="none" version="1.1" width="18.0000057220459" height="18" viewBox="0 0 18.0000057220459 18"><g><path d="M9,1.84211C10.53,1.84211,11.7,3.03947,11.7,4.60527C11.7,6.17105,10.53,7.36842,9,7.36842C7.47,7.36842,6.3,6.17105,6.3,4.60527C6.3,3.03947,7.47,1.84211,9,1.84211ZM9,0C6.48,1.38032e-7,4.5,2.02632,4.5,4.60527C4.5,7.18421,6.48,9.21053,9,9.21053C11.52,9.21053,13.5,7.18421,13.5,4.60527C13.5,2.02632,11.52,1.38032e-7,9,0ZM14.4,12.4737C15.39,12.4737,16.2,13.3026,16.2,14.3158L16.2,16.1579L1.8,16.1579L1.8,14.3158C1.8,13.3026,2.61,12.4737,3.6,12.4737L14.4,12.4737ZM14.4,10.6316L3.6,10.6316C1.62,10.6316,0,12.2895,0,14.3158L0,16.1579C0,17.1711,0.81,18,1.8,18L16.2,18C17.19,18,18,17.1711,18,16.1579L18,14.3158C18,12.2895,16.38,10.6316,14.4,10.6316Z" fill="#FFFFFF" fill-opacity="1" style="mix-blend-mode:passthrough"/></g></svg>