<svg xmlns="http://www.w3.org/2000/svg" xmlns:xlink="http://www.w3.org/1999/xlink" fill="none" version="1.1" width="20.654544830322266" height="20.571428298950195" viewBox="0 0 20.654544830322266 20.571428298950195"><g><path d="M9.48738,0C13.1301,0.0000075062,16.4506,2.07973,18.0298,5.35035C19.609,8.62097,19.1675,12.5039,16.8941,15.3397L20.333,18.7672C20.7566,19.1748,20.7624,19.8492,20.346,20.2641C19.9297,20.6789,19.2528,20.6731,18.8437,20.2511L15.4037,16.8247C10.3006,20.8861,2.70061,18.7094,0.541017,12.568C-1.61859,6.4266,2.9561,3.7531e-7,9.48738,0ZM9.48738,2.09888C5.4154,2.09888,2.1144,5.38784,2.1144,9.44498C2.1144,13.5021,5.4154,16.7911,9.48738,16.7911C13.5584,16.7897,16.8578,13.5011,16.8578,9.44498C16.8578,5.38883,13.5584,2.10028,9.48738,2.09888Z" fill="#FFFFFF" fill-opacity="1"/></g></svg>