<svg xmlns="http://www.w3.org/2000/svg" xmlns:xlink="http://www.w3.org/1999/xlink" fill="none" version="1.1" width="14.888148307800293" height="8" viewBox="0 0 14.888148307800293 8"><g transform="matrix(1,0,0,-1,0,16)"><path d="M13.9049,16C13.6252,16,13.3454,15.91111,13.159,15.733329999999999L8.03108,9.95556C7.84461,9.86667,7.75138,9.77778,7.47167,9.77778C7.37844,9.77778,7.09873,9.86667,7.0055,9.95556L1.5979,15.64444C1.22496,16,0.665549,16,0.292611,15.733329999999999C-0.0803273,15.37778,-0.0803273,14.844439999999999,0.199376,14.48889L5.60698,8.8C6.07315,8.266667,6.81903,8,7.56491,8C8.31079,8,8.96343,8.355555,9.52283,8.888889L14.6507,14.57778C15.0237,14.93333,14.9304,15.46667,14.5575,15.82222C14.371,15.91111,14.0913,16,13.9049,16Z" fill="#FFFFFF" fill-opacity="1" style="mix-blend-mode:passthrough"/></g></svg>