<svg xmlns="http://www.w3.org/2000/svg" xmlns:xlink="http://www.w3.org/1999/xlink" fill="none" version="1.1" width="11.166666984558105" height="8.5" viewBox="0 0 11.166666984558105 8.5"><g transform="matrix(1,0,0,-1,0,16.5)"><path d="M10.843,15.389700000000001L7.78982,9.52354C7.37123,8.742836,6.5179,8.25,5.58472,8.25C4.65154,8.25,3.7982,8.742836,3.37961,9.52354L0.3171251,15.40702C0.1588935,15.69839,0.2903673,16.0545,0.607028,16.19225C0.692902,16.23009,0.786606,16.2498,0.881515,16.24999C1.121008,16.25159,1.33984,16.12328,1.44282,15.92088L4.50222,10.04607C4.70107,9.65702,5.12089,9.4094,5.58163,9.4094C6.04238,9.4094,6.4622,9.65702,6.66106,10.04607L9.71737,15.91222C9.79256,16.04792,9.92067,16.1513,10.07513,16.20091C10.316,16.289099999999998,10.59,16.22731,10.7615,16.046129999999998C10.933,15.86496,10.9656,15.602879999999999,10.843,15.389700000000001Z" fill="#FFFFFF" fill-opacity="1" style="mix-blend-mode:passthrough"/><path d="M9.9938,16.437359999999998Q10.5462,16.63727,10.943,16.218Q11.3545,15.78332,11.0625,15.2699L8.01158,9.40812Q7.66256,8.75713,7.00527,8.377518Q6.35161,8,5.58472,8Q4.81782,8,4.16416,8.377518Q3.50687,8.757131,3.15928,9.40541L0.09536800000000001,15.29159Q-0.075324,15.60582,0.04946500000000001,15.94383Q0.1719619,16.27563,0.507306,16.4215Q0.684553,16.49961,0.88103,16.49999Q1.42682,16.50366,1.66564,16.03425L4.72395,10.16154Q4.98062,9.6594,5.58163,9.6594Q6.18265,9.6594,6.43846,10.15985L9.49714,16.03058L9.4987,16.03338Q9.6626,16.3292,9.9938,16.437359999999998ZM10.6263,15.51426Q10.7375,15.70781,10.5799,15.87427Q10.4075,16.0564,10.1611,15.96616L10.15637,15.96443L10.15158,15.96289Q10.00666,15.91634,9.93743,15.79353L6.88367,9.93228Q6.48861,9.159397,5.58163,9.159398Q4.67465,9.159398,4.28048,9.93059L1.219997,15.80752Q1.121261,16.00159,0.881999,15.99999Q0.790294,15.99981,0.706751,15.963000000000001Q0.567104,15.90225,0.518519,15.77066Q0.47222600000000003,15.64527,0.5388820000000001,15.52245L3.59994,9.64167Q4.212070000000001,8.5,5.58472,8.5Q6.95736,8.5,7.56806,9.63896L10.6237,15.50974L10.6263,15.51426Z" fill-rule="evenodd" fill="#FFFFFF" fill-opacity="1"/></g></svg>