<svg xmlns="http://www.w3.org/2000/svg" xmlns:xlink="http://www.w3.org/1999/xlink" fill="none" version="1.1" width="14.502166748046875" height="17.526281356811523" viewBox="0 0 14.502166748046875 17.526281356811523"><g><path d="M0.104139,15.8245Q-0.215439,16.626,0.445688,17.196Q1.10019,17.7603,1.86908,17.3605L12.1306,12.4965Q13.2214,11.9638,13.8613,10.9548Q14.5022,9.94422,14.5022,8.75619Q14.5022,7.56816,13.8613,6.55756Q13.2214,5.54853,12.1332,5.01715L1.83448,0.13506Q1.3632,-0.0980579,0.859818,0.0711929Q0.35404,0.241249,0.127642,0.715246Q0.0028019,0.973259,0.00219154,1.25993Q-0.00360107,2.0452,0.723022,2.38187L11.0019,7.25683Q11.9732,7.70897,11.9732,8.75127Q11.9732,9.79357,11.0035,10.245L0.733366,15.118L0.730657,15.1194Q0.273478,15.3501,0.104139,15.8245Z" fill-rule="evenodd" fill="#5900CC" fill-opacity="1" style="mix-blend-mode:passthrough"/></g></svg>